<?xml version="1.0" encoding="UTF-8"?>
<svg width="990px" height="995px" viewBox="0 0 990 995" version="1.1" xmlns="http://www.w3.org/2000/svg" xmlns:xlink="http://www.w3.org/1999/xlink">
    <!-- Generator: Sketch 52.6 (67491) - http://www.bohemiancoding.com/sketch -->
    <title>Group 2</title>
    <desc>Created with Sketch.</desc>
    <g id="ECC" stroke="none" stroke-width="1" fill="none" fill-rule="evenodd">
        <g id="Group-2" transform="translate(0.000000, 3.000000)">
            <g id="Group">
                <polyline id="Shape" stroke="#000000" stroke-width="4" stroke-linecap="square" points="45.727273 494.399999 46.5895291 488.783012 47.4517853 486.481177 48.3140414 484.731801 50.0385537 481.996617 51.7630659 479.816455 53.4875782 477.968278 56.0743466 475.606702 58.661115 473.589456 61.2478834 471.822575 64.6969079 469.761675 68.1459324 467.963483 72.4572131 466.005488 76.7684938 464.306413 81.0797744 462.819551 86.2533112 461.268909 91.4268489 459.933508 97.4626418 458.605704 103.498435 457.489523 110.396484 456.434919 118.156789 455.488284 126.77935 454.686685 136.264168 454.055946 146.611242 453.608183 158.682828 453.324958 174.203438 453.205164 212.142709 453.025441 224.214295 452.696271 234.561369 452.206206 244.046186 451.549241 253.531003 450.664037 262.153566 449.641699 270.776127 448.398608 279.398688 446.926115 288.02125 445.21974 296.643811 443.278768 305.266372 441.105683 313.888934 438.705501 322.511496 436.085108 331.996313 432.958061 341.481131 429.586218 350.965948 425.98177 360.450766 422.1568 370.79784 417.746271 381.144914 413.101384 392.354243 407.820191 403.563573 402.294606 414.772903 396.538327 426.844489 390.095297 438.916075 383.412537 451.849917 376.000072 464.783759 368.339297 478.579858 359.907062 492.375956 351.217702 506.172054 342.282057 520.830409 332.528801 535.488764 322.518562 550.147118 312.260431 565.667728 301.137717 581.188339 289.754871 596.70895 278.119697 613.091817 265.572181 629.474683 252.758939 645.85755 239.686852 663.102673 225.65404 680.347796 211.348143 697.592918 196.775379 715.700298 181.193048 733.807677 165.329007 751.915056 149.188997 770.022435 132.778373 788.99207 115.3015 807.961705 97.538537 826.931341 79.494566 845.900976 61.174375 865.732868 41.731019 885.564759 21.995595 905.39665 1.972737 907.121162 0.218182"></polyline>
                <polyline id="Shape" stroke="#000000" stroke-width="4" stroke-linecap="square" points="45.727273 494.400001 46.5895291 500.016988 47.4517853 502.318823 48.3140414 504.068199 50.0385537 506.803383 51.7630659 508.983545 53.4875782 510.831722 56.0743466 513.193298 58.661115 515.210544 61.2478834 516.977425 64.6969079 519.038325 68.1459324 520.836517 72.4572131 522.794512 76.7684938 524.493587 81.0797744 525.980449 86.2533112 527.531091 91.4268489 528.866492 97.4626418 530.194296 103.498435 531.310477 110.396484 532.365081 118.156789 533.311716 126.77935 534.113315 136.264168 534.744054 146.611242 535.191817 158.682828 535.475042 174.203438 535.594836 212.142709 535.774559 224.214295 536.103729 234.561369 536.593794 244.046186 537.250759 253.531003 538.135963 262.153566 539.158301 270.776127 540.401392 279.398688 541.873885 288.02125 543.58026 296.643811 545.521232 305.266372 547.694317 313.888934 550.094499 322.511496 552.714892 331.996313 555.841939 341.481131 559.213782 350.965948 562.81823 360.450766 566.6432 370.79784 571.053729 381.144914 575.698616 392.354243 580.979809 403.563573 586.505394 414.772903 592.261673 426.844489 598.704703 438.916075 605.387463 451.849917 612.799928 464.783759 620.460703 478.579858 628.892938 492.375956 637.582298 506.172054 646.517943 520.830409 656.271199 535.488764 666.281438 550.147118 676.539569 565.667728 687.662283 581.188339 699.045129 596.70895 710.680303 613.091817 723.227819 629.474683 736.041061 645.85755 749.113148 663.102673 763.14596 680.347796 777.451857 697.592918 792.024621 715.700298 807.606952 733.807677 823.470993 751.915056 839.611003 770.022435 856.021627 788.99207 873.4985 807.961705 891.261463 826.931341 909.305434 845.900976 927.625625 865.732868 947.068981 885.564759 966.804405 905.39665 986.827263 907.121162 988.581818 907.121162 988.581818"></polyline>
                <text id="y^2-=-x^3+7" transform="translate(528.569331, 283.538944) rotate(-36.000000) translate(-528.569331, -283.538944) " font-family="Georgia" font-size="36" font-weight="normal" fill="#9B9B9B">
                    <tspan x="426.569331" y="296.038944">y^2 = x^3+7</tspan>
                </text>
                <path d="M0.621044253,494.595105 L989.199561,494.595105" id="Path-4" stroke="#979797"></path>
            </g>
            <polyline id="Path-2" stroke="#4A90E2" stroke-width="2" points="779.927849 122.975921 779.927849 866.632231 88.680999 460.300962"></polyline>
            <circle id="Oval" stroke="#2673BA" stroke-width="3" fill="#4A90E2" cx="89" cy="460" r="6"></circle>
            <circle id="Oval" stroke="#2673BA" stroke-width="3" fill="#4A90E2" cx="218" cy="536" r="6"></circle>
            <circle id="Oval" stroke="#2673BA" stroke-width="3" fill="#4A90E2" cx="780" cy="123" r="6"></circle>
            <text id="B" font-family="Georgia" font-size="36" font-weight="normal" fill="#000000">
                <tspan x="189" y="583">B</tspan>
            </text>
            <text id="A+B" font-family="Georgia" font-size="36" font-weight="normal" fill="#000000">
                <tspan x="720" y="97">A+B</tspan>
            </text>
            <text id="A" font-family="Georgia" font-size="36" font-weight="normal" fill="#000000">
                <tspan x="55" y="440">A</tspan>
            </text>
        </g>
    </g>
</svg>