<?xml version="1.0" encoding="UTF-8"?>
<svg width="963px" height="995px" viewBox="0 0 963 995" version="1.1" xmlns="http://www.w3.org/2000/svg" xmlns:xlink="http://www.w3.org/1999/xlink">
    <!-- Generator: Sketch 52.6 (67491) - http://www.bohemiancoding.com/sketch -->
    <title>ECDSA</title>
    <desc>Created with Sketch.</desc>
    <g id="ECDSA" stroke="none" stroke-width="1" fill="none" fill-rule="evenodd">
        <g transform="translate(0.000000, 3.000000)">
            <polyline id="Shape" stroke="#000000" stroke-width="4" stroke-linecap="square" points="98.727273 494.399999 99.5895291 488.783012 100.451785 486.481177 101.314041 484.731801 103.038554 481.996617 104.763066 479.816455 106.487578 477.968278 109.074347 475.606702 111.661115 473.589456 114.247883 471.822575 117.696908 469.761675 121.145932 467.963483 125.457213 466.005488 129.768494 464.306413 134.079774 462.819551 139.253311 461.268909 144.426849 459.933508 150.462642 458.605704 156.498435 457.489523 163.396484 456.434919 171.156789 455.488284 179.77935 454.686685 189.264168 454.055946 199.611242 453.608183 211.682828 453.324958 227.203438 453.205164 265.142709 453.025441 277.214295 452.696271 287.561369 452.206206 297.046186 451.549241 306.531003 450.664037 315.153566 449.641699 323.776127 448.398608 332.398688 446.926115 341.02125 445.21974 349.643811 443.278768 358.266372 441.105683 366.888934 438.705501 375.511496 436.085108 384.996313 432.958061 394.481131 429.586218 403.965948 425.98177 413.450766 422.1568 423.79784 417.746271 434.144914 413.101384 445.354243 407.820191 456.563573 402.294606 467.772903 396.538327 479.844489 390.095297 491.916075 383.412537 504.849917 376.000072 517.783759 368.339297 531.579858 359.907062 545.375956 351.217702 559.172054 342.282057 573.830409 332.528801 588.488764 322.518562 603.147118 312.260431 618.667728 301.137717 634.188339 289.754871 649.70895 278.119697 666.091817 265.572181 682.474683 252.758939 698.85755 239.686852 716.102673 225.65404 733.347796 211.348143 750.592918 196.775379 768.700298 181.193048 786.807677 165.329007 804.915056 149.188997 823.022435 132.778373 841.99207 115.3015 860.961705 97.538537 879.931341 79.494566 898.900976 61.174375 918.732868 41.731019 938.564759 21.995595 958.39665 1.972737 960.121162 0.218182"></polyline>
            <polyline id="Shape" stroke="#000000" stroke-width="4" stroke-linecap="square" points="98.727273 494.400001 99.5895291 500.016988 100.451785 502.318823 101.314041 504.068199 103.038554 506.803383 104.763066 508.983545 106.487578 510.831722 109.074347 513.193298 111.661115 515.210544 114.247883 516.977425 117.696908 519.038325 121.145932 520.836517 125.457213 522.794512 129.768494 524.493587 134.079774 525.980449 139.253311 527.531091 144.426849 528.866492 150.462642 530.194296 156.498435 531.310477 163.396484 532.365081 171.156789 533.311716 179.77935 534.113315 189.264168 534.744054 199.611242 535.191817 211.682828 535.475042 227.203438 535.594836 265.142709 535.774559 277.214295 536.103729 287.561369 536.593794 297.046186 537.250759 306.531003 538.135963 315.153566 539.158301 323.776127 540.401392 332.398688 541.873885 341.02125 543.58026 349.643811 545.521232 358.266372 547.694317 366.888934 550.094499 375.511496 552.714892 384.996313 555.841939 394.481131 559.213782 403.965948 562.81823 413.450766 566.6432 423.79784 571.053729 434.144914 575.698616 445.354243 580.979809 456.563573 586.505394 467.772903 592.261673 479.844489 598.704703 491.916075 605.387463 504.849917 612.799928 517.783759 620.460703 531.579858 628.892938 545.375956 637.582298 559.172054 646.517943 573.830409 656.271199 588.488764 666.281438 603.147118 676.539569 618.667728 687.662283 634.188339 699.045129 649.70895 710.680303 666.091817 723.227819 682.474683 736.041061 698.85755 749.113148 716.102673 763.14596 733.347796 777.451857 750.592918 792.024621 768.700298 807.606952 786.807677 823.470993 804.915056 839.611003 823.022435 856.021627 841.99207 873.4985 860.961705 891.261463 879.931341 909.305434 898.900976 927.625625 918.732868 947.068981 938.564759 966.804405 958.39665 986.827263 960.121162 988.581818 960.121162 988.581818"></polyline>
            <polyline id="Path-2" stroke="#4A90E2" stroke-width="2" points="832.927849 122.975921 832.927849 866.632231 141.680999 460.300962"></polyline>
            <circle id="Oval" stroke="#2673BA" stroke-width="3" fill="#4A90E2" cx="142" cy="460" r="6"></circle>
            <circle id="Oval" stroke="#2673BA" stroke-width="3" fill="#4A90E2" cx="271" cy="536" r="6"></circle>
            <circle id="Oval" stroke="#000000" stroke-width="3" fill="#9B9B9B" cx="420" cy="421" r="6"></circle>
            <circle id="Oval" stroke="#2673BA" stroke-width="3" fill="#4A90E2" cx="833" cy="123" r="6"></circle>
            <circle id="Oval" stroke="#B50004" stroke-width="3" fill="#D0021B" cx="273" cy="453" r="6"></circle>
            <circle id="Oval" stroke="#B50004" stroke-width="3" fill="#D0021B" cx="632" cy="292" r="6"></circle>
            <text id="z×G" font-family="Georgia" font-size="36" font-weight="normal" fill="#000000">
                <tspan x="222" y="583">z×G</tspan>
            </text>
            <text id="G" font-family="Georgia" font-size="36" font-weight="normal" fill="#000000">
                <tspan x="435" y="446">G</tspan>
            </text>
            <text id="s×R" font-family="Georgia" font-size="36" font-weight="normal" fill="#000000">
                <tspan x="763" y="97">s×R</tspan>
            </text>
            <text id="r×P" font-family="Georgia" font-size="36" font-weight="normal" fill="#000000">
                <tspan x="78" y="440">r×P</tspan>
            </text>
            <text id="s×R-=-r×P-+-z×G" transform="translate(808.500000, 466.500000) rotate(-90.000000) translate(-808.500000, -466.500000) " font-family="Georgia" font-size="36" font-weight="normal" fill="#9B9B9B">
                <tspan x="673" y="479">s×R = r×P + z×G</tspan>
            </text>
            <text id="P-=-pk×G" font-family="Georgia" font-size="36" font-weight="normal" fill="#000000">
                <tspan x="199" y="397">P = pk×G</tspan>
            </text>
            <text id="y^2-=-x^3+7" transform="translate(651.569331, 674.538944) rotate(36.000000) translate(-651.569331, -674.538944) " font-family="Georgia" font-size="36" font-weight="normal" fill="#9B9B9B">
                <tspan x="549.569331" y="687.038944">y^2 = x^3+7</tspan>
            </text>
            <text id="Public-key" font-family="HelveticaNeue, Helvetica Neue" font-size="20" font-weight="normal" fill="#9B9B9B">
                <tspan x="202" y="360">Public key</tspan>
            </text>
            <text id="Generator-point" font-family="HelveticaNeue, Helvetica Neue" font-size="20" font-weight="normal" fill="#9B9B9B">
                <tspan x="434" y="471">Generator point</tspan>
            </text>
            <text id="R-=-k×G" font-family="Georgia" font-size="36" font-weight="normal" fill="#000000">
                <tspan x="639" y="331">R = k×G</tspan>
            </text>
            <text id="Random-point" font-family="HelveticaNeue, Helvetica Neue" font-size="20" font-weight="normal" fill="#9B9B9B">
                <tspan x="638" y="356">Random point</tspan>
            </text>
            <path id="Path-3" d="M308.535599,421.665343 C338.488796,405.688675 371.160527,403.358881 406.391542,414.655624 L404.864866,419.416849 C371.089933,408.586995 339.982126,410.725964 311.38496,425.81377 L318.011506,435.461498 L285.897651,439.928075 L301.592703,411.557045 L308.535599,421.665343 Z" fill="#D0021B" fill-rule="nonzero"></path>
            <path id="Path-3" d="M584.789236,297.44469 C509.653924,309.29997 456.057455,345.945991 423.766595,407.477027 L419.339222,405.153587 C452.419437,342.118417 507.465681,304.525352 584.24397,292.468968 L582.924434,280.427809 L613.33139,291.682455 L586.0835,309.255232 L584.789236,297.44469 Z" fill="#D0021B" fill-rule="nonzero"></path>
            <path id="Path-3" d="M784.878805,127.889531 C710.89526,142.094852 661.839425,190.716502 637.496418,274.111022 L632.696721,272.709982 C657.581266,187.46026 708.175163,137.409813 784.262574,122.916762 L782.767475,110.851973 L813.33057,121.67543 L786.333947,139.631832 L784.878811,127.88953 Z" fill="#4A90E2" fill-rule="nonzero"></path>
            <path id="Path-3" d="M201.088757,154.5 L94,154.5 L94,149.5 L201.088757,149.5 L201.088757,137.5 L230.088757,152 L201.088757,166.5 L201.088757,154.5 Z" fill="#4A90E2" fill-rule="nonzero"></path>
            <path id="Path-3" d="M201.088757,93.5 L94,93.5 L94,88.5 L201.088757,88.5 L201.088757,76.5 L230.088757,91 L201.088757,105.5 L201.088757,93.5 Z" fill="#D0021B" fill-rule="nonzero"></path>
            <path id="Path-3" d="M177.034412,428.300654 C208.488876,412.828141 238.624455,415.736152 267.032073,436.991069 L264.036656,440.994502 C237.295324,420.98632 209.339519,418.175806 179.767673,432.529962 L186.116533,442.353865 L153.88986,445.916383 L170.375849,417.997534 L177.034412,428.300654 Z" fill="#4A90E2" fill-rule="nonzero"></path>
            <path id="Path-3" d="M318.853507,515.395105 C363.635279,498.621383 395.586064,471.609509 414.824096,434.320103 L419.267593,436.612554 C399.398171,475.125794 366.378532,502.995478 320.327662,520.181975 L323.899524,531.780513 L291.916396,526.457968 L315.364309,504.064992 L318.853507,515.395105 Z" fill="#4A90E2" fill-rule="nonzero"></path>
            <path d="M0.098623771,494.595105 L746.500006,494.595105" id="Path-4" stroke="#979797"></path>
            <path d="M631.470484,293.628429 L631.470484,494.502126" id="Path-5" stroke="#979797" stroke-dasharray="5"></path>
            <text id="r" font-family="Georgia" font-size="36" font-weight="normal" fill="#000000">
                <tspan x="624" y="522">r</tspan>
            </text>
            <text id="Signing" font-family="HelveticaNeue, Helvetica Neue" font-size="20" font-weight="normal" fill="#000000">
                <tspan x="95" y="81">Signing</tspan>
            </text>
            <text id="Verification" font-family="HelveticaNeue, Helvetica Neue" font-size="20" font-weight="normal" fill="#000000">
                <tspan x="95" y="141">Verification</tspan>
            </text>
        </g>
    </g>
</svg>