<?xml version="1.0" encoding="UTF-8"?>
<svg width="1065px" height="995px" viewBox="0 0 1065 995" version="1.1" xmlns="http://www.w3.org/2000/svg" xmlns:xlink="http://www.w3.org/1999/xlink">
    <!-- Generator: Sketch 52.6 (67491) - http://www.bohemiancoding.com/sketch -->
    <title>Group</title>
    <desc>Created with Sketch.</desc>
    <g id="Schnorr" stroke="none" stroke-width="1" fill="none" fill-rule="evenodd">
        <g id="Group" transform="translate(0.000000, 3.000000)">
            <polyline id="Shape" stroke="#000000" stroke-width="4" stroke-linecap="square" points="200.727273 494.399999 201.589529 488.783012 202.451785 486.481177 203.314041 484.731801 205.038554 481.996617 206.763066 479.816455 208.487578 477.968278 211.074347 475.606702 213.661115 473.589456 216.247883 471.822575 219.696908 469.761675 223.145932 467.963483 227.457213 466.005488 231.768494 464.306413 236.079774 462.819551 241.253311 461.268909 246.426849 459.933508 252.462642 458.605704 258.498435 457.489523 265.396484 456.434919 273.156789 455.488284 281.77935 454.686685 291.264168 454.055946 301.611242 453.608183 313.682828 453.324958 329.203438 453.205164 367.142709 453.025441 379.214295 452.696271 389.561369 452.206206 399.046186 451.549241 408.531003 450.664037 417.153566 449.641699 425.776127 448.398608 434.398688 446.926115 443.02125 445.21974 451.643811 443.278768 460.266372 441.105683 468.888934 438.705501 477.511496 436.085108 486.996313 432.958061 496.481131 429.586218 505.965948 425.98177 515.450766 422.1568 525.79784 417.746271 536.144914 413.101384 547.354243 407.820191 558.563573 402.294606 569.772903 396.538327 581.844489 390.095297 593.916075 383.412537 606.849917 376.000072 619.783759 368.339297 633.579858 359.907062 647.375956 351.217702 661.172054 342.282057 675.830409 332.528801 690.488764 322.518562 705.147118 312.260431 720.667728 301.137717 736.188339 289.754871 751.70895 278.119697 768.091817 265.572181 784.474683 252.758939 800.85755 239.686852 818.102673 225.65404 835.347796 211.348143 852.592918 196.775379 870.700298 181.193048 888.807677 165.329007 906.915056 149.188997 925.022435 132.778373 943.99207 115.3015 962.961705 97.538537 981.931341 79.494566 1000.90098 61.174375 1020.73287 41.731019 1040.56476 21.995595 1060.39665 1.972737 1062.12116 0.218182 1062.12116 0.218182"></polyline>
            <polyline id="Shape" stroke="#000000" stroke-width="4" stroke-linecap="square" points="200.727273 494.400001 201.589529 500.016988 202.451785 502.318823 203.314041 504.068199 205.038554 506.803383 206.763066 508.983545 208.487578 510.831722 211.074347 513.193298 213.661115 515.210544 216.247883 516.977425 219.696908 519.038325 223.145932 520.836517 227.457213 522.794512 231.768494 524.493587 236.079774 525.980449 241.253311 527.531091 246.426849 528.866492 252.462642 530.194296 258.498435 531.310477 265.396484 532.365081 273.156789 533.311716 281.77935 534.113315 291.264168 534.744054 301.611242 535.191817 313.682828 535.475042 329.203438 535.594836 367.142709 535.774559 379.214295 536.103729 389.561369 536.593794 399.046186 537.250759 408.531003 538.135963 417.153566 539.158301 425.776127 540.401392 434.398688 541.873885 443.02125 543.58026 451.643811 545.521232 460.266372 547.694317 468.888934 550.094499 477.511496 552.714892 486.996313 555.841939 496.481131 559.213782 505.965948 562.81823 515.450766 566.6432 525.79784 571.053729 536.144914 575.698616 547.354243 580.979809 558.563573 586.505394 569.772903 592.261673 581.844489 598.704703 593.916075 605.387463 606.849917 612.799928 619.783759 620.460703 633.579858 628.892938 647.375956 637.582298 661.172054 646.517943 675.830409 656.271199 690.488764 666.281438 705.147118 676.539569 720.667728 687.662283 736.188339 699.045129 751.70895 710.680303 768.091817 723.227819 784.474683 736.041061 800.85755 749.113148 818.102673 763.14596 835.347796 777.451857 852.592918 792.024621 870.700298 807.606952 888.807677 823.470993 906.915056 839.611003 925.022435 856.021627 943.99207 873.4985 962.961705 891.261463 981.931341 909.305434 1000.90098 927.625625 1020.73287 947.068981 1040.56476 966.804405 1060.39665 986.827263 1062.12116 988.581818 1062.12116 988.581818"></polyline>
            <polyline id="Path-2" stroke="#4A90E2" stroke-width="2" points="934.927849 122.975921 934.927849 866.632231 243.680999 460.300962"></polyline>
            <circle id="Oval" stroke="#2673BA" stroke-width="3" fill="#4A90E2" cx="244" cy="460" r="6"></circle>
            <circle id="Oval" stroke="#B50004" stroke-width="3" fill="#D0021B" cx="373" cy="536" r="6"></circle>
            <circle id="Oval" stroke="#000000" stroke-width="3" fill="#9B9B9B" cx="522" cy="421" r="6"></circle>
            <circle id="Oval" stroke="#2673BA" stroke-width="3" fill="#4A90E2" cx="935" cy="123" r="6"></circle>
            <circle id="Oval" stroke="#B50004" stroke-width="3" fill="#D0021B" cx="375" cy="453" r="6"></circle>
            <text id="G" font-family="Georgia" font-size="36" font-weight="normal" fill="#000000">
                <tspan x="537" y="446">G</tspan>
            </text>
            <text id="s×G" font-family="Georgia" font-size="36" font-weight="normal" fill="#000000">
                <tspan x="865" y="97">s×G</tspan>
            </text>
            <text id="hash(R,P,m)×P" font-family="Georgia" font-size="36" font-weight="normal" fill="#000000">
                <tspan x="0" y="440">hash(R,P,m)×P</tspan>
            </text>
            <text id="s×G-=-R-+-hash(P,R,m" transform="translate(905.000000, 470.500000) rotate(-90.000000) translate(-905.000000, -470.500000) " font-family="Georgia" font-size="36" font-weight="normal" fill="#9B9B9B">
                <tspan x="696" y="483">s×G = R + hash(R,P,m)×P</tspan>
            </text>
            <text id="P-=-pk×G" font-family="Georgia" font-size="36" font-weight="normal" fill="#000000">
                <tspan x="301" y="397">P = pk×G</tspan>
            </text>
            <text id="y^2-=-x^3+7" transform="translate(753.569331, 674.538944) rotate(36.000000) translate(-753.569331, -674.538944) " font-family="Georgia" font-size="36" font-weight="normal" fill="#9B9B9B">
                <tspan x="651.569331" y="687.038944">y^2 = x^3+7</tspan>
            </text>
            <text id="Public-key" font-family="HelveticaNeue, Helvetica Neue" font-size="20" font-weight="normal" fill="#9B9B9B">
                <tspan x="304" y="360">Public key</tspan>
            </text>
            <text id="Generator-point" font-family="HelveticaNeue, Helvetica Neue" font-size="20" font-weight="normal" fill="#9B9B9B">
                <tspan x="536" y="471">Generator point</tspan>
            </text>
            <text id="R-=-k×G" font-family="Georgia" font-size="36" font-weight="normal" fill="#000000">
                <tspan x="247" y="587">R = k×G</tspan>
            </text>
            <text id="Random-point" font-family="HelveticaNeue, Helvetica Neue" font-size="20" font-weight="normal" fill="#9B9B9B">
                <tspan x="246" y="612">Random point</tspan>
            </text>
            <path id="Path-3" d="M410.535599,421.665343 C440.488796,405.688675 473.160527,403.358881 508.391542,414.655624 L506.864866,419.416849 C473.089933,408.586995 441.982126,410.725964 413.38496,425.81377 L420.011506,435.461498 L387.897651,439.928075 L403.592703,411.557045 L410.535599,421.665343 Z" fill="#D0021B" fill-rule="nonzero"></path>
            <path id="Path-3" d="M887.2713,132.420219 C710.94135,168.733342 592.098515,260.201614 530.476861,406.932852 L525.866889,404.996836 C588.164054,256.657095 708.418189,164.122961 886.363201,127.502316 L884.175215,115.653062 L915.326053,124.64613 L889.441095,144.17096 L887.2713,132.420219 Z" fill="#4A90E2" fill-rule="nonzero"></path>
            <path id="Path-3" d="M108.088757,154.5 L1,154.5 L1,149.5 L108.088757,149.5 L108.088757,137.5 L137.088757,152 L108.088757,166.5 L108.088757,154.5 Z" fill="#4A90E2" fill-rule="nonzero"></path>
            <path id="Path-3" d="M108.088757,93.5 L1,93.5 L1,88.5 L108.088757,88.5 L108.088757,76.5 L137.088757,91 L108.088757,105.5 L108.088757,93.5 Z" fill="#D0021B" fill-rule="nonzero"></path>
            <path id="Path-3" d="M279.034412,428.300654 C310.488876,412.828141 340.624455,415.736152 369.032073,436.991069 L366.036656,440.994502 C339.295324,420.98632 311.339519,418.175806 281.767673,432.529962 L288.116533,442.353865 L255.88986,445.916383 L272.375849,417.997534 L279.034412,428.300654 Z" fill="#4A90E2" fill-rule="nonzero"></path>
            <path id="Path-3" d="M420.853507,515.395105 C465.635279,498.621383 497.586064,471.609509 516.824096,434.320103 L521.267593,436.612554 C501.398171,475.125794 468.378532,502.995478 422.327662,520.181975 L425.899524,531.780513 L393.916396,526.457968 L417.364309,504.064992 L420.853507,515.395105 Z" fill="#D0021B" fill-rule="nonzero"></path>
            <path d="M102.098624,494.595105 L848.500006,494.595105" id="Path-4" stroke="#979797"></path>
            <text id="Signing" font-family="HelveticaNeue, Helvetica Neue" font-size="20" font-weight="normal" fill="#000000">
                <tspan x="2" y="81">Signing</tspan>
            </text>
            <text id="Verification" font-family="HelveticaNeue, Helvetica Neue" font-size="20" font-weight="normal" fill="#000000">
                <tspan x="2" y="141">Verification</tspan>
            </text>
        </g>
    </g>
</svg>
