<?xml version="1.0" encoding="UTF-8"?>
<svg width="698px" height="475px" viewBox="0 0 698 475" version="1.1" xmlns="http://www.w3.org/2000/svg" xmlns:xlink="http://www.w3.org/1999/xlink">
    <!-- Generator: Sketch 52.6 (67491) - http://www.bohemiancoding.com/sketch -->
    <title>Group 2</title>
    <desc>Created with Sketch.</desc>
    <g id="BLS" stroke="none" stroke-width="1" fill="none" fill-rule="evenodd">
        <g id="Group-2" transform="translate(0.000000, -6.000000)">
            <g id="Group">
                <g transform="translate(0.000000, -251.000000)">
                    <polyline id="Shape" stroke="#000000" stroke-width="4" stroke-linecap="square" points="98.727273 494.399999 99.5895291 488.783012 100.451785 486.481177 101.314041 484.731801 103.038554 481.996617 104.763066 479.816455 106.487578 477.968278 109.074347 475.606702 111.661115 473.589456 114.247883 471.822575 117.696908 469.761675 121.145932 467.963483 125.457213 466.005488 129.768494 464.306413 134.079774 462.819551 139.253311 461.268909 144.426849 459.933508 150.462642 458.605704 156.498435 457.489523 163.396484 456.434919 171.156789 455.488284 179.77935 454.686685 189.264168 454.055946 199.611242 453.608183 211.682828 453.324958 227.203438 453.205164 265.142709 453.025441 277.214295 452.696271 287.561369 452.206206 297.046186 451.549241 306.531003 450.664037 315.153566 449.641699 323.776127 448.398608 332.398688 446.926115 341.02125 445.21974 349.643811 443.278768 358.266372 441.105683 366.888934 438.705501 375.511496 436.085108 384.996313 432.958061 394.481131 429.586218 403.965948 425.98177 413.450766 422.1568 423.79784 417.746271 434.144914 413.101384 445.354243 407.820191 456.563573 402.294606 467.772903 396.538327 479.844489 390.095297 491.916075 383.412537 504.849917 376.000072 517.783759 368.339297 531.579858 359.907062 545.375956 351.217702 559.172054 342.282057 573.830409 332.528801 588.488764 322.518562 603.147118 312.260431 618.667728 301.137717 634.188339 289.754871 649.70895 278.119697 666.091817 265.572181 682.474683 252.758939 698.85755 239.686852 716.102673 225.65404 733.347796 211.348143 750.592918 196.775379 768.700298 181.193048 786.807677 165.329007 804.915056 149.188997 823.022435 132.778373 841.99207 115.3015 860.961705 97.538537 879.931341 79.494566 898.900976 61.174375 918.732868 41.731019 938.564759 21.995595 958.39665 1.972737 960.121162 0.218182 960.121162 0.218182"></polyline>
                    <polyline id="Shape" stroke="#000000" stroke-width="4" stroke-linecap="square" points="98.727273 494.400001 99.5895291 500.016988 100.451785 502.318823 101.314041 504.068199 103.038554 506.803383 104.763066 508.983545 106.487578 510.831722 109.074347 513.193298 111.661115 515.210544 114.247883 516.977425 117.696908 519.038325 121.145932 520.836517 125.457213 522.794512 129.768494 524.493587 134.079774 525.980449 139.253311 527.531091 144.426849 528.866492 150.462642 530.194296 156.498435 531.310477 163.396484 532.365081 171.156789 533.311716 179.77935 534.113315 189.264168 534.744054 199.611242 535.191817 211.682828 535.475042 227.203438 535.594836 265.142709 535.774559 277.214295 536.103729 287.561369 536.593794 297.046186 537.250759 306.531003 538.135963 315.153566 539.158301 323.776127 540.401392 332.398688 541.873885 341.02125 543.58026 349.643811 545.521232 358.266372 547.694317 366.888934 550.094499 375.511496 552.714892 384.996313 555.841939 394.481131 559.213782 403.965948 562.81823 413.450766 566.6432 423.79784 571.053729 434.144914 575.698616 445.354243 580.979809 456.563573 586.505394 467.772903 592.261673 479.844489 598.704703 491.916075 605.387463 504.849917 612.799928 517.783759 620.460703 531.579858 628.892938 545.375956 637.582298 559.172054 646.517943 573.830409 656.271199 588.488764 666.281438 603.147118 676.539569 618.667728 687.662283 634.188339 699.045129 649.70895 710.680303 666.091817 723.227819 682.474683 736.041061 698.85755 749.113148 716.102673 763.14596 733.347796 777.451857 750.592918 792.024621 768.700298 807.606952 786.807677 823.470993 804.915056 839.611003 823.022435 856.021627 841.99207 873.4985 860.961705 891.261463 879.931341 909.305434 898.900976 927.625625 918.732868 947.068981 938.564759 966.804405 958.39665 986.827263 960.121162 988.581818 960.121162 988.581818"></polyline>
                    <path d="M0.098623771,494.595105 L746.500006,494.595105" id="Path-4" stroke="#979797"></path>
                </g>
            </g>
            <circle id="Oval" stroke="#000000" stroke-width="3" fill="#9B9B9B" cx="420" cy="170" r="6"></circle>
            <circle id="Oval" stroke="#B50004" stroke-width="3" fill="#D0021B" cx="273" cy="202" r="6"></circle>
            <path d="M460.857422,185.033203 C460.57617,185.06836 460.198245,185.124023 459.723633,185.200195 C459.249021,185.276368 458.865236,185.384765 458.572266,185.525391 C458.220701,185.701173 457.97168,185.950194 457.825195,186.272461 C457.67871,186.594728 457.605469,186.972654 457.605469,187.40625 L457.605469,189.339844 C457.605469,190.746101 457.614258,191.69531 457.631836,192.1875 C457.649414,192.67969 457.669922,193.083983 457.693359,193.400391 C456.134758,194.103519 454.582039,194.642576 453.035156,195.017578 C451.488274,195.39258 449.970711,195.580078 448.482422,195.580078 C446.888664,195.580078 445.353523,195.281253 443.876953,194.683594 C442.400383,194.085935 441.111334,193.236334 440.009766,192.134766 C438.896479,191.021479 438.011722,189.667977 437.355469,188.074219 C436.699215,186.480461 436.371094,184.699229 436.371094,182.730469 C436.371094,180.832022 436.684567,179.071297 437.311523,177.448242 C437.93848,175.825187 438.826166,174.416022 439.974609,173.220703 C441.087896,172.048822 442.415031,171.137699 443.956055,170.487305 C445.497078,169.836911 447.146476,169.511719 448.904297,169.511719 C450.310554,169.511719 451.535151,169.681639 452.578125,170.021484 C453.621099,170.36133 454.541012,170.771482 455.337891,171.251953 L456.058594,170.056641 L457.464844,170.056641 L457.623047,178.775391 L456.181641,178.775391 C455.935546,177.814448 455.630861,176.868169 455.267578,175.936523 C454.904295,175.004878 454.43555,174.169926 453.861328,173.431641 C453.287107,172.693356 452.586918,172.104494 451.760742,171.665039 C450.934566,171.225584 449.947271,171.005859 448.798828,171.005859 C447.544916,171.005859 446.425786,171.26074 445.441406,171.770508 C444.457026,172.280276 443.601566,173.039057 442.875,174.046875 C442.160153,175.019536 441.609377,176.232415 441.222656,177.685547 C440.835936,179.138679 440.642578,180.76171 440.642578,182.554688 C440.642578,184.136727 440.833006,185.627923 441.213867,187.02832 C441.594728,188.428718 442.148434,189.638667 442.875,190.658203 C443.601566,191.701177 444.50976,192.521481 445.599609,193.119141 C446.689459,193.7168 447.925774,194.015625 449.308594,194.015625 C450.339849,194.015625 451.280269,193.857423 452.129883,193.541016 C452.979496,193.224608 453.580076,192.890627 453.931641,192.539062 C454.025391,191.929684 454.075195,191.314456 454.081055,190.693359 C454.086914,190.072263 454.089844,189.544924 454.089844,189.111328 L454.089844,187.740234 C454.089844,187.248044 454.022462,186.811525 453.887695,186.430664 C453.752929,186.049803 453.474611,185.771485 453.052734,185.595703 C452.666014,185.419921 452.141605,185.288086 451.479492,185.200195 C450.81738,185.112304 450.29883,185.056641 449.923828,185.033203 L449.923828,183.75 L460.857422,183.75 L460.857422,185.033203 Z" id="G" fill="#000000"></path>
            <path d="M219.8125,127.208984 C219.8125,128.509772 219.55762,129.661128 219.047852,130.663086 C218.538083,131.665044 217.832036,132.494137 216.929688,133.150391 C216.039058,133.806644 215.060552,134.287108 213.994141,134.591797 C212.927729,134.896486 211.796881,135.048828 210.601562,135.048828 L207.806641,135.048828 L207.806641,142.607422 C207.806641,143.01758 207.874023,143.377928 208.008789,143.688477 C208.143555,143.999025 208.421873,144.236327 208.84375,144.400391 C209.054689,144.482422 209.426755,144.558593 209.959961,144.628906 C210.493167,144.699219 210.98242,144.740234 211.427734,144.751953 L211.427734,146 L200.722656,146 L200.722656,144.751953 C201.003908,144.728516 201.41113,144.6875 201.944336,144.628906 C202.477542,144.570312 202.849608,144.494141 203.060547,144.400391 C203.412111,144.248046 203.666991,144.025392 203.825195,143.732422 C203.983399,143.439452 204.0625,143.064455 204.0625,142.607422 L204.0625,124.607422 C204.0625,124.197264 204.003907,123.828127 203.886719,123.5 C203.769531,123.171873 203.494143,122.925782 203.060547,122.761719 C202.615232,122.609374 202.172854,122.500977 201.733398,122.436523 C201.293943,122.37207 200.916017,122.328125 200.599609,122.304688 L200.599609,121.056641 L211.990234,121.056641 C214.310558,121.056641 216.194329,121.616205 217.641602,122.735352 C219.088874,123.854498 219.8125,125.345694 219.8125,127.208984 Z M214.46875,131.462891 C214.867189,130.900388 215.130859,130.317386 215.259766,129.713867 C215.388673,129.110349 215.453125,128.568362 215.453125,128.087891 C215.453125,127.419919 215.374024,126.740238 215.21582,126.048828 C215.057616,125.357418 214.785158,124.753909 214.398438,124.238281 C213.988279,123.687497 213.449222,123.259767 212.78125,122.955078 C212.113278,122.650389 211.281255,122.498047 210.285156,122.498047 L207.806641,122.498047 L207.806641,133.519531 L209.599609,133.519531 C210.865241,133.519531 211.893551,133.323244 212.68457,132.930664 C213.47559,132.538084 214.070311,132.048831 214.46875,131.462891 Z M250.082031,133.994141 L232.345703,133.994141 L232.345703,131.796875 L250.082031,131.796875 L250.082031,133.994141 Z M250.082031,140.533203 L232.345703,140.533203 L232.345703,138.335938 L250.082031,138.335938 L250.082031,140.533203 Z M278.576172,130.724609 C279.267582,131.544926 279.803709,132.497065 280.18457,133.581055 C280.565432,134.665044 280.755859,135.90429 280.755859,137.298828 C280.755859,138.669929 280.527346,139.920893 280.070312,141.051758 C279.613279,142.182623 279.009769,143.14648 278.259766,143.943359 C277.474605,144.751957 276.601567,145.373045 275.640625,145.806641 C274.679683,146.240237 273.660162,146.457031 272.582031,146.457031 C271.539057,146.457031 270.683597,146.339845 270.015625,146.105469 C269.347653,145.871093 268.802736,145.595705 268.380859,145.279297 L268.240234,145.279297 L268.240234,150.482422 C268.240234,150.904299 268.322265,151.255858 268.486328,151.537109 C268.650391,151.818361 268.902342,152.023437 269.242188,152.152344 C269.523439,152.257813 269.924802,152.360351 270.446289,152.459961 C270.967776,152.559571 271.398436,152.615234 271.738281,152.626953 L271.738281,153.804688 L262.052734,153.804688 L262.052734,152.626953 C262.416017,152.603516 262.767576,152.574219 263.107422,152.539062 C263.447267,152.503906 263.751952,152.445313 264.021484,152.363281 C264.373049,152.246093 264.61914,152.041017 264.759766,151.748047 C264.900391,151.455077 264.970703,151.109377 264.970703,150.710938 L264.970703,132.271484 C264.970703,131.91992 264.882813,131.58008 264.707031,131.251953 C264.531249,130.923826 264.302736,130.660157 264.021484,130.460938 C263.810546,130.320312 263.51758,130.211914 263.142578,130.135742 C262.767576,130.05957 262.404299,130.009766 262.052734,129.986328 L262.052734,128.84375 L267.958984,128.457031 L268.205078,128.667969 L268.205078,130.619141 L268.345703,130.654297 C268.955081,129.951168 269.710933,129.365237 270.613281,128.896484 C271.51563,128.427732 272.412105,128.193359 273.302734,128.193359 C274.380865,128.193359 275.36816,128.421873 276.264648,128.878906 C277.161137,129.33594 277.931637,129.951168 278.576172,130.724609 Z M275.710938,143.1875 C276.17969,142.460934 276.52539,141.617192 276.748047,140.65625 C276.970704,139.695308 277.082031,138.623053 277.082031,137.439453 C277.082031,136.572261 276.988282,135.687505 276.800781,134.785156 C276.61328,133.882808 276.320314,133.09766 275.921875,132.429688 C275.523436,131.749997 275.001956,131.199221 274.357422,130.777344 C273.712887,130.355467 272.939458,130.144531 272.037109,130.144531 C271.169918,130.144531 270.431644,130.334959 269.822266,130.71582 C269.212888,131.096682 268.685549,131.550779 268.240234,132.078125 L268.240234,142.326172 C268.345704,142.64258 268.518553,142.970701 268.758789,143.310547 C268.999025,143.650392 269.265624,143.943358 269.558594,144.189453 C269.921877,144.482423 270.314451,144.719726 270.736328,144.901367 C271.158205,145.083009 271.673825,145.173828 272.283203,145.173828 C272.939456,145.173828 273.572263,145.000978 274.181641,144.655273 C274.791019,144.309569 275.300779,143.820316 275.710938,143.1875 Z M301.673828,146 L296.435547,146 C295.52148,144.675775 294.542974,143.25782 293.5,141.746094 C292.457026,140.234367 291.373052,138.763679 290.248047,137.333984 L288.806641,138.6875 L288.806641,142.800781 C288.806641,143.222658 288.882812,143.571288 289.035156,143.84668 C289.187501,144.122072 289.433592,144.324218 289.773438,144.453125 C290.054689,144.570313 290.324217,144.658203 290.582031,144.716797 C290.839845,144.775391 291.13867,144.816406 291.478516,144.839844 L291.478516,146 L282.970703,146 L282.970703,144.839844 C283.240236,144.816406 283.521483,144.790039 283.814453,144.760742 C284.107423,144.731445 284.353515,144.6875 284.552734,144.628906 C284.880861,144.523437 285.126952,144.338869 285.291016,144.075195 C285.455079,143.811522 285.537109,143.468752 285.537109,143.046875 L285.537109,122.902344 C285.537109,122.468748 285.44629,122.061525 285.264648,121.680664 C285.083007,121.299803 284.845705,121.009767 284.552734,120.810547 C284.306639,120.623046 283.922854,120.5 283.401367,120.441406 C282.87988,120.382812 282.460939,120.341797 282.144531,120.318359 L282.144531,119.193359 L288.560547,118.789062 L288.806641,119.052734 L288.806641,137.386719 C289.720708,136.472652 290.708003,135.491216 291.768555,134.442383 C292.829107,133.393549 293.722653,132.458988 294.449219,131.638672 C294.542969,131.533203 294.645507,131.395509 294.756836,131.225586 C294.868165,131.055663 294.923828,130.917969 294.923828,130.8125 C294.923828,130.496092 294.668948,130.26172 294.15918,130.109375 C293.649412,129.95703 293.160159,129.851563 292.691406,129.792969 L292.691406,128.667969 L300.320312,128.667969 L300.320312,129.757812 C299.335933,130.050783 298.465824,130.41699 297.709961,130.856445 C296.954098,131.295901 296.376955,131.691404 295.978516,132.042969 C295.697264,132.277345 295.298831,132.6582 294.783203,133.185547 C294.267576,133.712893 293.54688,134.404293 292.621094,135.259766 C293.582036,136.443365 294.66308,137.86132 295.864258,139.513672 C297.065436,141.166024 297.941403,142.361324 298.492188,143.099609 C299.007815,143.791019 299.470701,144.242186 299.880859,144.453125 C300.291018,144.664064 300.888668,144.792969 301.673828,144.839844 L301.673828,146 Z M320.798828,142.501953 L319.234375,144.066406 L312.888672,137.685547 L306.525391,144.083984 L304.978516,142.519531 L311.376953,136.15625 L304.978516,129.810547 L306.542969,128.263672 L312.888672,134.626953 L319.251953,128.246094 L320.798828,129.792969 L314.400391,136.15625 L320.798828,142.501953 Z M350.330078,136.033203 C350.048827,136.06836 349.670901,136.124023 349.196289,136.200195 C348.721677,136.276368 348.337892,136.384765 348.044922,136.525391 C347.693358,136.701173 347.444337,136.950194 347.297852,137.272461 C347.151366,137.594728 347.078125,137.972654 347.078125,138.40625 L347.078125,140.339844 C347.078125,141.746101 347.086914,142.69531 347.104492,143.1875 C347.12207,143.67969 347.142578,144.083983 347.166016,144.400391 C345.607414,145.103519 344.054695,145.642576 342.507812,146.017578 C340.96093,146.39258 339.443367,146.580078 337.955078,146.580078 C336.36132,146.580078 334.826179,146.281253 333.349609,145.683594 C331.873039,145.085935 330.58399,144.236334 329.482422,143.134766 C328.369135,142.021479 327.484378,140.667977 326.828125,139.074219 C326.171872,137.480461 325.84375,135.699229 325.84375,133.730469 C325.84375,131.832022 326.157223,130.071297 326.78418,128.448242 C327.411136,126.825187 328.298822,125.416022 329.447266,124.220703 C330.560552,123.048822 331.887688,122.137699 333.428711,121.487305 C334.969734,120.836911 336.619132,120.511719 338.376953,120.511719 C339.78321,120.511719 341.007807,120.681639 342.050781,121.021484 C343.093755,121.36133 344.013668,121.771482 344.810547,122.251953 L345.53125,121.056641 L346.9375,121.056641 L347.095703,129.775391 L345.654297,129.775391 C345.408202,128.814448 345.103517,127.868169 344.740234,126.936523 C344.376951,126.004878 343.908206,125.169926 343.333984,124.431641 C342.759763,123.693356 342.059574,123.104494 341.233398,122.665039 C340.407222,122.225584 339.419928,122.005859 338.271484,122.005859 C337.017572,122.005859 335.898442,122.26074 334.914062,122.770508 C333.929683,123.280276 333.074222,124.039057 332.347656,125.046875 C331.632809,126.019536 331.082033,127.232415 330.695312,128.685547 C330.308592,130.138679 330.115234,131.76171 330.115234,133.554688 C330.115234,135.136727 330.305662,136.627923 330.686523,138.02832 C331.067385,139.428718 331.62109,140.638667 332.347656,141.658203 C333.074222,142.701177 333.982416,143.521481 335.072266,144.119141 C336.162115,144.7168 337.398431,145.015625 338.78125,145.015625 C339.812505,145.015625 340.752925,144.857423 341.602539,144.541016 C342.452153,144.224608 343.052733,143.890627 343.404297,143.539062 C343.498047,142.929684 343.547852,142.314456 343.553711,141.693359 C343.55957,141.072263 343.5625,140.544924 343.5625,140.111328 L343.5625,138.740234 C343.5625,138.248044 343.495118,137.811525 343.360352,137.430664 C343.225585,137.049803 342.947268,136.771485 342.525391,136.595703 C342.13867,136.419921 341.614261,136.288086 340.952148,136.200195 C340.290036,136.112304 339.771486,136.056641 339.396484,136.033203 L339.396484,134.75 L350.330078,134.75 L350.330078,136.033203 Z" id="P-=-pk×G" fill="#000000"></path>
            <path d="M205.46,101.56 L209.18,101.56 C210.260005,101.573333 211.049997,101.353336 211.55,100.9 C212.050003,100.446664 212.3,99.7933376 212.3,98.94 C212.3,98.0866624 212.050003,97.4366689 211.55,96.99 C211.049997,96.5433311 210.260005,96.32 209.18,96.32 L205.46,96.32 L205.46,101.56 Z M203.56,94.72 L209.82,94.72 C211.260007,94.72 212.349996,95.0899963 213.09,95.83 C213.830004,96.5700037 214.2,97.60666 214.2,98.94 C214.2,100.27334 213.830004,101.31333 213.09,102.06 C212.349996,102.80667 211.260007,103.173333 209.82,103.16 L205.46,103.16 L205.46,109 L203.56,109 L203.56,94.72 Z M224.8,109 L223.2,109 L223.2,107.36 L223.16,107.36 C222.799998,108.000003 222.340003,108.469999 221.78,108.77 C221.219997,109.070002 220.560004,109.22 219.8,109.22 C219.119997,109.22 218.553336,109.130001 218.1,108.95 C217.646664,108.769999 217.280001,108.513335 217,108.18 C216.719999,107.846665 216.523334,107.450002 216.41,106.99 C216.296666,106.529998 216.24,106.020003 216.24,105.46 L216.24,98.66 L217.94,98.66 L217.94,105.66 C217.94,106.300003 218.126665,106.806665 218.5,107.18 C218.873335,107.553335 219.386663,107.74 220.04,107.74 C220.560003,107.74 221.009998,107.660001 221.39,107.5 C221.770002,107.339999 222.086665,107.113335 222.34,106.82 C222.593335,106.526665 222.783333,106.183335 222.91,105.79 C223.036667,105.396665 223.1,104.966669 223.1,104.5 L223.1,98.66 L224.8,98.66 L224.8,109 Z M227.42,94.72 L229.12,94.72 L229.12,100.06 L229.16,100.06 C229.440001,99.4866638 229.879997,99.0700013 230.48,98.81 C231.080003,98.5499987 231.739996,98.42 232.46,98.42 C233.260004,98.42 233.956664,98.5666652 234.55,98.86 C235.143336,99.1533348 235.636665,99.5499975 236.03,100.05 C236.423335,100.550003 236.719999,101.126663 236.92,101.78 C237.120001,102.433337 237.22,103.126663 237.22,103.86 C237.22,104.593337 237.123334,105.286663 236.93,105.94 C236.736666,106.593337 236.443335,107.163331 236.05,107.65 C235.656665,108.136669 235.163336,108.519999 234.57,108.8 C233.976664,109.080001 233.286671,109.22 232.5,109.22 C232.246665,109.22 231.963335,109.193334 231.65,109.14 C231.336665,109.086666 231.026668,109.000001 230.72,108.88 C230.413332,108.759999 230.123335,108.596668 229.85,108.39 C229.576665,108.183332 229.346668,107.926668 229.16,107.62 L229.12,107.62 L229.12,109 L227.42,109 L227.42,94.72 Z M235.42,103.74 C235.42,103.259998 235.356667,102.790002 235.23,102.33 C235.103333,101.869998 234.910001,101.460002 234.65,101.1 C234.389999,100.739998 234.056669,100.453334 233.65,100.24 C233.243331,100.026666 232.766669,99.92 232.22,99.92 C231.646664,99.92 231.160002,100.033332 230.76,100.26 C230.359998,100.486668 230.033335,100.783332 229.78,101.15 C229.526665,101.516668 229.343334,101.933331 229.23,102.4 C229.116666,102.866669 229.06,103.339998 229.06,103.82 C229.06,104.326669 229.119999,104.816664 229.24,105.29 C229.360001,105.763336 229.549999,106.179998 229.81,106.54 C230.070001,106.900002 230.406665,107.189999 230.82,107.41 C231.233335,107.630001 231.73333,107.74 232.32,107.74 C232.90667,107.74 233.396665,107.626668 233.79,107.4 C234.183335,107.173332 234.499999,106.873335 234.74,106.5 C234.980001,106.126665 235.153333,105.700002 235.26,105.22 C235.366667,104.739998 235.42,104.246669 235.42,103.74 Z M239.32,94.72 L241.02,94.72 L241.02,109 L239.32,109 L239.32,94.72 Z M245.46,96.8 L243.76,96.8 L243.76,94.72 L245.46,94.72 L245.46,96.8 Z M243.76,98.66 L245.46,98.66 L245.46,109 L243.76,109 L243.76,98.66 Z M255.12,101.98 C254.986666,101.326663 254.706669,100.820002 254.28,100.46 C253.853331,100.099998 253.280004,99.92 252.56,99.92 C251.946664,99.92 251.433335,100.033332 251.02,100.26 C250.606665,100.486668 250.276668,100.786665 250.03,101.16 C249.783332,101.533335 249.606667,101.963331 249.5,102.45 C249.393333,102.936669 249.34,103.439997 249.34,103.96 C249.34,104.440002 249.396666,104.906664 249.51,105.36 C249.623334,105.813336 249.799999,106.216665 250.04,106.57 C250.280001,106.923335 250.593331,107.206666 250.98,107.42 C251.366669,107.633334 251.826664,107.74 252.36,107.74 C253.200004,107.74 253.856664,107.520002 254.33,107.08 C254.803336,106.639998 255.093333,106.020004 255.2,105.22 L256.94,105.22 C256.753332,106.500006 256.276671,107.486663 255.51,108.18 C254.743329,108.873337 253.700007,109.22 252.38,109.22 C251.593329,109.22 250.89667,109.093335 250.29,108.84 C249.68333,108.586665 249.176669,108.226669 248.77,107.76 C248.363331,107.293331 248.056668,106.73667 247.85,106.09 C247.643332,105.44333 247.54,104.733337 247.54,103.96 C247.54,103.186663 247.639999,102.463337 247.84,101.79 C248.040001,101.116663 248.343331,100.530002 248.75,100.03 C249.156669,99.5299975 249.666664,99.1366681 250.28,98.85 C250.893336,98.5633319 251.606663,98.42 252.42,98.42 C253.00667,98.42 253.556664,98.4899993 254.07,98.63 C254.583336,98.7700007 255.036665,98.9866652 255.43,99.28 C255.823335,99.5733348 256.146665,99.9433311 256.4,100.39 C256.653335,100.836669 256.813333,101.366664 256.88,101.98 L255.12,101.98 Z M264.5,94.72 L266.2,94.72 L266.2,103.18 L270.92,98.66 L273.2,98.66 L269.1,102.42 L273.5,109 L271.34,109 L267.8,103.6 L266.2,105.08 L266.2,109 L264.5,109 L264.5,94.72 Z M281.96,102.84 C281.933333,102.439998 281.843334,102.060002 281.69,101.7 C281.536666,101.339998 281.330001,101.030001 281.07,100.77 C280.809999,100.509999 280.503335,100.303334 280.15,100.15 C279.796665,99.9966659 279.406669,99.92 278.98,99.92 C278.539998,99.92 278.143335,99.9966659 277.79,100.15 C277.436665,100.303334 277.133335,100.513332 276.88,100.78 C276.626665,101.046668 276.426667,101.356665 276.28,101.71 C276.133333,102.063335 276.046667,102.439998 276.02,102.84 L281.96,102.84 Z M283.6,105.72 C283.373332,106.880006 282.873337,107.75333 282.1,108.34 C281.326663,108.92667 280.353339,109.22 279.18,109.22 C278.353329,109.22 277.63667,109.086668 277.03,108.82 C276.42333,108.553332 275.913335,108.180002 275.5,107.7 C275.086665,107.219998 274.776668,106.64667 274.57,105.98 C274.363332,105.31333 274.246667,104.586671 274.22,103.8 C274.22,103.013329 274.339999,102.293337 274.58,101.64 C274.820001,100.986663 275.156665,100.420002 275.59,99.94 C276.023336,99.4599976 276.536664,99.086668 277.13,98.82 C277.723336,98.553332 278.37333,98.42 279.08,98.42 C280.000005,98.42 280.76333,98.6099981 281.37,98.99 C281.97667,99.3700019 282.463331,99.8533304 282.83,100.44 C283.196668,101.02667 283.449999,101.666663 283.59,102.36 C283.730001,103.053337 283.786667,103.71333 283.76,104.34 L276.02,104.34 C276.006667,104.793336 276.059999,105.223331 276.18,105.63 C276.300001,106.036669 276.493332,106.396665 276.76,106.71 C277.026668,107.023335 277.366665,107.273332 277.78,107.46 C278.193335,107.646668 278.679997,107.74 279.24,107.74 C279.960004,107.74 280.549998,107.573335 281.01,107.24 C281.470002,106.906665 281.773333,106.400003 281.92,105.72 L283.6,105.72 Z M289.58,110.38 C289.379999,110.886669 289.183334,111.313332 288.99,111.66 C288.796666,112.006668 288.583334,112.289999 288.35,112.51 C288.116666,112.730001 287.856668,112.89 287.57,112.99 C287.283332,113.090001 286.953335,113.14 286.58,113.14 C286.379999,113.14 286.180001,113.126667 285.98,113.1 C285.779999,113.073333 285.586668,113.026667 285.4,112.96 L285.4,111.4 C285.546667,111.466667 285.716666,111.523333 285.91,111.57 C286.103334,111.616667 286.266666,111.64 286.4,111.64 C286.746668,111.64 287.036666,111.556668 287.27,111.39 C287.503334,111.223332 287.679999,110.986668 287.8,110.68 L288.5,108.94 L284.4,98.66 L286.32,98.66 L289.34,107.12 L289.38,107.12 L292.28,98.66 L294.08,98.66 L289.58,110.38 Z" id="Public-key" fill="#9B9B9B"></path>
            <path d="M446.24,218.22 C445.679997,218.96667 444.986671,219.503332 444.16,219.83 C443.333329,220.156668 442.500004,220.32 441.66,220.32 C440.593328,220.32 439.640004,220.123335 438.8,219.73 C437.959996,219.336665 437.24667,218.80667 436.66,218.14 C436.07333,217.47333 435.626668,216.706671 435.32,215.84 C435.013332,214.973329 434.86,214.073338 434.86,213.14 C434.86,212.099995 435.003332,211.110005 435.29,210.17 C435.576668,209.229995 436.003331,208.40667 436.57,207.7 C437.136669,206.99333 437.843329,206.430002 438.69,206.01 C439.536671,205.589998 440.526661,205.38 441.66,205.38 C442.433337,205.38 443.16333,205.469999 443.85,205.65 C444.53667,205.830001 445.149997,206.113331 445.69,206.5 C446.230003,206.886669 446.683332,207.376664 447.05,207.97 C447.416669,208.563336 447.666666,209.279996 447.8,210.12 L445.9,210.12 C445.806666,209.573331 445.633335,209.103335 445.38,208.71 C445.126665,208.316665 444.813335,207.993335 444.44,207.74 C444.066665,207.486665 443.643336,207.296667 443.17,207.17 C442.696664,207.043333 442.193336,206.98 441.66,206.98 C440.793329,206.98 440.050003,207.153332 439.43,207.5 C438.809997,207.846668 438.303335,208.303331 437.91,208.87 C437.516665,209.436669 437.226668,210.08333 437.04,210.81 C436.853332,211.53667 436.76,212.279996 436.76,213.04 C436.76,213.78667 436.866666,214.50333 437.08,215.19 C437.293334,215.87667 437.606665,216.483331 438.02,217.01 C438.433335,217.536669 438.94333,217.956665 439.55,218.27 C440.15667,218.583335 440.859996,218.74 441.66,218.74 C442.40667,218.74 443.066664,218.620001 443.64,218.38 C444.213336,218.139999 444.696665,217.810002 445.09,217.39 C445.483335,216.969998 445.779999,216.47667 445.98,215.91 C446.180001,215.343331 446.266667,214.733337 446.24,214.08 L441.68,214.08 L441.68,212.48 L447.94,212.48 L447.94,220 L446.74,220 L446.24,218.22 Z M457.64,213.84 C457.613333,213.439998 457.523334,213.060002 457.37,212.7 C457.216666,212.339998 457.010001,212.030001 456.75,211.77 C456.489999,211.509999 456.183335,211.303334 455.83,211.15 C455.476665,210.996666 455.086669,210.92 454.66,210.92 C454.219998,210.92 453.823335,210.996666 453.47,211.15 C453.116665,211.303334 452.813335,211.513332 452.56,211.78 C452.306665,212.046668 452.106667,212.356665 451.96,212.71 C451.813333,213.063335 451.726667,213.439998 451.7,213.84 L457.64,213.84 Z M459.28,216.72 C459.053332,217.880006 458.553337,218.75333 457.78,219.34 C457.006663,219.92667 456.033339,220.22 454.86,220.22 C454.033329,220.22 453.31667,220.086668 452.71,219.82 C452.10333,219.553332 451.593335,219.180002 451.18,218.7 C450.766665,218.219998 450.456668,217.64667 450.25,216.98 C450.043332,216.31333 449.926667,215.586671 449.9,214.8 C449.9,214.013329 450.019999,213.293337 450.26,212.64 C450.500001,211.986663 450.836664,211.420002 451.27,210.94 C451.703335,210.459998 452.216664,210.086668 452.81,209.82 C453.403336,209.553332 454.05333,209.42 454.76,209.42 C455.680005,209.42 456.44333,209.609998 457.05,209.99 C457.65667,210.370002 458.143331,210.85333 458.51,211.44 C458.876668,212.02667 459.129999,212.666663 459.27,213.36 C459.410001,214.053337 459.466667,214.71333 459.44,215.34 L451.7,215.34 C451.686667,215.793336 451.739999,216.223331 451.86,216.63 C451.980001,217.036669 452.173332,217.396665 452.44,217.71 C452.706668,218.023335 453.046665,218.273332 453.46,218.46 C453.873335,218.646668 454.359997,218.74 454.92,218.74 C455.640004,218.74 456.229998,218.573335 456.69,218.24 C457.150002,217.906665 457.453333,217.400003 457.6,216.72 L459.28,216.72 Z M461.2,209.66 L462.8,209.66 L462.8,211.3 L462.84,211.3 C463.54667,210.04666 464.666659,209.42 466.2,209.42 C466.880003,209.42 467.446664,209.513332 467.9,209.7 C468.353336,209.886668 468.719999,210.146665 469,210.48 C469.280001,210.813335 469.476666,211.209998 469.59,211.67 C469.703334,212.130002 469.76,212.639997 469.76,213.2 L469.76,220 L468.06,220 L468.06,213 C468.06,212.359997 467.873335,211.853335 467.5,211.48 C467.126665,211.106665 466.613337,210.92 465.96,210.92 C465.439997,210.92 464.990002,210.999999 464.61,211.16 C464.229998,211.320001 463.913335,211.546665 463.66,211.84 C463.406665,212.133335 463.216667,212.476665 463.09,212.87 C462.963333,213.263335 462.9,213.693331 462.9,214.16 L462.9,220 L461.2,220 L461.2,209.66 Z M479.5,213.84 C479.473333,213.439998 479.383334,213.060002 479.23,212.7 C479.076666,212.339998 478.870001,212.030001 478.61,211.77 C478.349999,211.509999 478.043335,211.303334 477.69,211.15 C477.336665,210.996666 476.946669,210.92 476.52,210.92 C476.079998,210.92 475.683335,210.996666 475.33,211.15 C474.976665,211.303334 474.673335,211.513332 474.42,211.78 C474.166665,212.046668 473.966667,212.356665 473.82,212.71 C473.673333,213.063335 473.586667,213.439998 473.56,213.84 L479.5,213.84 Z M481.14,216.72 C480.913332,217.880006 480.413337,218.75333 479.64,219.34 C478.866663,219.92667 477.893339,220.22 476.72,220.22 C475.893329,220.22 475.17667,220.086668 474.57,219.82 C473.96333,219.553332 473.453335,219.180002 473.04,218.7 C472.626665,218.219998 472.316668,217.64667 472.11,216.98 C471.903332,216.31333 471.786667,215.586671 471.76,214.8 C471.76,214.013329 471.879999,213.293337 472.12,212.64 C472.360001,211.986663 472.696664,211.420002 473.13,210.94 C473.563335,210.459998 474.076664,210.086668 474.67,209.82 C475.263336,209.553332 475.91333,209.42 476.62,209.42 C477.540005,209.42 478.30333,209.609998 478.91,209.99 C479.51667,210.370002 480.003332,210.85333 480.37,211.44 C480.736669,212.02667 480.989999,212.666663 481.13,213.36 C481.270001,214.053337 481.326667,214.71333 481.3,215.34 L473.56,215.34 C473.546667,215.793336 473.599999,216.223331 473.72,216.63 C473.840001,217.036669 474.033332,217.396665 474.3,217.71 C474.566668,218.023335 474.906665,218.273332 475.32,218.46 C475.733335,218.646668 476.219997,218.74 476.78,218.74 C477.500004,218.74 478.089998,218.573335 478.55,218.24 C479.010002,217.906665 479.313333,217.400003 479.46,216.72 L481.14,216.72 Z M483,209.66 L484.6,209.66 L484.6,211.84 L484.64,211.84 C485.053335,210.999996 485.559997,210.380002 486.16,209.98 C486.760003,209.579998 487.519995,209.393333 488.44,209.42 L488.44,211.22 C487.759997,211.22 487.180002,211.313332 486.7,211.5 C486.219998,211.686668 485.833335,211.959998 485.54,212.32 C485.246665,212.680002 485.033334,213.116664 484.9,213.63 C484.766666,214.143336 484.7,214.73333 484.7,215.4 L484.7,220 L483,220 L483,209.66 Z M498.88,219.96 C498.586665,220.133334 498.180003,220.22 497.66,220.22 C497.219998,220.22 496.870001,220.096668 496.61,219.85 C496.349999,219.603332 496.22,219.200003 496.22,218.64 C495.753331,219.200003 495.210003,219.603332 494.59,219.85 C493.969997,220.096668 493.300004,220.22 492.58,220.22 C492.113331,220.22 491.670002,220.166667 491.25,220.06 C490.829998,219.953333 490.466668,219.786668 490.16,219.56 C489.853332,219.333332 489.610001,219.036668 489.43,218.67 C489.249999,218.303332 489.16,217.860003 489.16,217.34 C489.16,216.75333 489.259999,216.273335 489.46,215.9 C489.660001,215.526665 489.923332,215.223334 490.25,214.99 C490.576668,214.756665 490.949998,214.580001 491.37,214.46 C491.790002,214.339999 492.219998,214.24 492.66,214.16 C493.126669,214.066666 493.569998,213.996667 493.99,213.95 C494.410002,213.903333 494.779998,213.836667 495.1,213.75 C495.420002,213.663333 495.673332,213.536667 495.86,213.37 C496.046668,213.203332 496.14,212.960002 496.14,212.64 C496.14,212.266665 496.070001,211.966668 495.93,211.74 C495.789999,211.513332 495.610001,211.340001 495.39,211.22 C495.169999,211.099999 494.923335,211.02 494.65,210.98 C494.376665,210.94 494.106668,210.92 493.84,210.92 C493.119996,210.92 492.520002,211.056665 492.04,211.33 C491.559998,211.603335 491.3,212.119996 491.26,212.88 L489.56,212.88 C489.586667,212.239997 489.719999,211.700002 489.96,211.26 C490.200001,210.819998 490.519998,210.463335 490.92,210.19 C491.320002,209.916665 491.776664,209.720001 492.29,209.6 C492.803336,209.479999 493.35333,209.42 493.94,209.42 C494.406669,209.42 494.869998,209.453333 495.33,209.52 C495.790002,209.586667 496.206665,209.723332 496.58,209.93 C496.953335,210.136668 497.253332,210.426665 497.48,210.8 C497.706668,211.173335 497.82,211.659997 497.82,212.26 L497.82,217.58 C497.82,217.980002 497.843333,218.273332 497.89,218.46 C497.936667,218.646668 498.093332,218.74 498.36,218.74 C498.506667,218.74 498.679999,218.706667 498.88,218.64 L498.88,219.96 Z M496.12,214.66 C495.906666,214.820001 495.626668,214.936666 495.28,215.01 C494.933332,215.083334 494.570002,215.143333 494.19,215.19 C493.809998,215.236667 493.426669,215.29 493.04,215.35 C492.653331,215.41 492.306668,215.506666 492,215.64 C491.693332,215.773334 491.443334,215.963332 491.25,216.21 C491.056666,216.456668 490.96,216.793331 490.96,217.22 C490.96,217.500001 491.016666,217.736666 491.13,217.93 C491.243334,218.123334 491.389999,218.279999 491.57,218.4 C491.750001,218.520001 491.959999,218.606666 492.2,218.66 C492.440001,218.713334 492.693332,218.74 492.96,218.74 C493.520003,218.74 493.999998,218.663334 494.4,218.51 C494.800002,218.356666 495.126665,218.163334 495.38,217.93 C495.633335,217.696665 495.819999,217.443335 495.94,217.17 C496.060001,216.896665 496.12,216.640001 496.12,216.4 L496.12,214.66 Z M502.82,209.66 L504.88,209.66 L504.88,211.16 L502.82,211.16 L502.82,217.58 C502.82,217.780001 502.836666,217.939999 502.87,218.06 C502.903334,218.180001 502.966666,218.273333 503.06,218.34 C503.153334,218.406667 503.283333,218.45 503.45,218.47 C503.616668,218.49 503.833332,218.5 504.1,218.5 L504.88,218.5 L504.88,220 L503.58,220 C503.139998,220 502.763335,219.97 502.45,219.91 C502.136665,219.85 501.883334,219.740001 501.69,219.58 C501.496666,219.419999 501.353334,219.193335 501.26,218.9 C501.166666,218.606665 501.12,218.220002 501.12,217.74 L501.12,211.16 L499.36,211.16 L499.36,209.66 L501.12,209.66 L501.12,206.56 L502.82,206.56 L502.82,209.66 Z M508,214.84 C508,215.46667 508.083332,216.023331 508.25,216.51 C508.416668,216.996669 508.646665,217.403332 508.94,217.73 C509.233335,218.056668 509.576665,218.306666 509.97,218.48 C510.363335,218.653334 510.779998,218.74 511.22,218.74 C511.660002,218.74 512.076665,218.653334 512.47,218.48 C512.863335,218.306666 513.206665,218.056668 513.5,217.73 C513.793335,217.403332 514.023333,216.996669 514.19,216.51 C514.356667,216.023331 514.44,215.46667 514.44,214.84 C514.44,214.21333 514.356667,213.656669 514.19,213.17 C514.023333,212.683331 513.793335,212.273335 513.5,211.94 C513.206665,211.606665 512.863335,211.353334 512.47,211.18 C512.076665,211.006666 511.660002,210.92 511.22,210.92 C510.779998,210.92 510.363335,211.006666 509.97,211.18 C509.576665,211.353334 509.233335,211.606665 508.94,211.94 C508.646665,212.273335 508.416668,212.683331 508.25,213.17 C508.083332,213.656669 508,214.21333 508,214.84 Z M506.2,214.84 C506.2,214.079996 506.306666,213.370003 506.52,212.71 C506.733334,212.049997 507.053331,211.476669 507.48,210.99 C507.906669,210.503331 508.43333,210.120001 509.06,209.84 C509.68667,209.559999 510.406663,209.42 511.22,209.42 C512.046671,209.42 512.769997,209.559999 513.39,209.84 C514.010003,210.120001 514.533331,210.503331 514.96,210.99 C515.386669,211.476669 515.706666,212.049997 515.92,212.71 C516.133334,213.370003 516.24,214.079996 516.24,214.84 C516.24,215.600004 516.133334,216.306663 515.92,216.96 C515.706666,217.613337 515.386669,218.183331 514.96,218.67 C514.533331,219.156669 514.010003,219.536665 513.39,219.81 C512.769997,220.083335 512.046671,220.22 511.22,220.22 C510.406663,220.22 509.68667,220.083335 509.06,219.81 C508.43333,219.536665 507.906669,219.156669 507.48,218.67 C507.053331,218.183331 506.733334,217.613337 506.52,216.96 C506.306666,216.306663 506.2,215.600004 506.2,214.84 Z M518.18,209.66 L519.78,209.66 L519.78,211.84 L519.82,211.84 C520.233335,210.999996 520.739997,210.380002 521.34,209.98 C521.940003,209.579998 522.699995,209.393333 523.62,209.42 L523.62,211.22 C522.939997,211.22 522.360002,211.313332 521.88,211.5 C521.399998,211.686668 521.013335,211.959998 520.72,212.32 C520.426665,212.680002 520.213334,213.116664 520.08,213.63 C519.946666,214.143336 519.88,214.73333 519.88,215.4 L519.88,220 L518.18,220 L518.18,209.66 Z M530.52,209.66 L532.22,209.66 L532.22,211.06 L532.26,211.06 C532.540001,210.486664 532.979997,210.070001 533.58,209.81 C534.180003,209.549999 534.839996,209.42 535.56,209.42 C536.360004,209.42 537.056664,209.566665 537.65,209.86 C538.243336,210.153335 538.736665,210.549997 539.13,211.05 C539.523335,211.550003 539.819999,212.126663 540.02,212.78 C540.220001,213.433337 540.32,214.126663 540.32,214.86 C540.32,215.593337 540.223334,216.286663 540.03,216.94 C539.836666,217.593337 539.543335,218.163331 539.15,218.65 C538.756665,219.136669 538.263336,219.519999 537.67,219.8 C537.076664,220.080001 536.386671,220.22 535.6,220.22 C535.346665,220.22 535.063335,220.193334 534.75,220.14 C534.436665,220.086666 534.126668,220.000001 533.82,219.88 C533.513332,219.759999 533.223335,219.596668 532.95,219.39 C532.676665,219.183332 532.446668,218.926668 532.26,218.62 L532.22,218.62 L532.22,223.94 L530.52,223.94 L530.52,209.66 Z M538.52,214.74 C538.52,214.259998 538.456667,213.790002 538.33,213.33 C538.203333,212.869998 538.010001,212.460002 537.75,212.1 C537.489999,211.739998 537.156669,211.453334 536.75,211.24 C536.343331,211.026666 535.866669,210.92 535.32,210.92 C534.746664,210.92 534.260002,211.033332 533.86,211.26 C533.459998,211.486668 533.133335,211.783332 532.88,212.15 C532.626665,212.516669 532.443334,212.933331 532.33,213.4 C532.216666,213.866669 532.16,214.339998 532.16,214.82 C532.16,215.326669 532.219999,215.816664 532.34,216.29 C532.460001,216.763336 532.649999,217.179998 532.91,217.54 C533.170001,217.900002 533.506665,218.189999 533.92,218.41 C534.333335,218.630001 534.83333,218.74 535.42,218.74 C536.00667,218.74 536.496665,218.626668 536.89,218.4 C537.283335,218.173332 537.599999,217.873335 537.84,217.5 C538.080001,217.126665 538.253333,216.700002 538.36,216.22 C538.466667,215.739998 538.52,215.246669 538.52,214.74 Z M543.56,214.84 C543.56,215.46667 543.643333,216.023331 543.81,216.51 C543.976667,216.996669 544.206665,217.403332 544.5,217.73 C544.793335,218.056668 545.136665,218.306666 545.53,218.48 C545.923335,218.653334 546.339998,218.74 546.78,218.74 C547.220002,218.74 547.636665,218.653334 548.03,218.48 C548.423335,218.306666 548.766665,218.056668 549.06,217.73 C549.353335,217.403332 549.583332,216.996669 549.75,216.51 C549.916668,216.023331 550,215.46667 550,214.84 C550,214.21333 549.916668,213.656669 549.75,213.17 C549.583332,212.683331 549.353335,212.273335 549.06,211.94 C548.766665,211.606665 548.423335,211.353334 548.03,211.18 C547.636665,211.006666 547.220002,210.92 546.78,210.92 C546.339998,210.92 545.923335,211.006666 545.53,211.18 C545.136665,211.353334 544.793335,211.606665 544.5,211.94 C544.206665,212.273335 543.976667,212.683331 543.81,213.17 C543.643333,213.656669 543.56,214.21333 543.56,214.84 Z M541.76,214.84 C541.76,214.079996 541.866666,213.370003 542.08,212.71 C542.293334,212.049997 542.613331,211.476669 543.04,210.99 C543.466669,210.503331 543.99333,210.120001 544.62,209.84 C545.24667,209.559999 545.966663,209.42 546.78,209.42 C547.606671,209.42 548.329997,209.559999 548.95,209.84 C549.570003,210.120001 550.093331,210.503331 550.52,210.99 C550.946669,211.476669 551.266666,212.049997 551.48,212.71 C551.693334,213.370003 551.8,214.079996 551.8,214.84 C551.8,215.600004 551.693334,216.306663 551.48,216.96 C551.266666,217.613337 550.946669,218.183331 550.52,218.67 C550.093331,219.156669 549.570003,219.536665 548.95,219.81 C548.329997,220.083335 547.606671,220.22 546.78,220.22 C545.966663,220.22 545.24667,220.083335 544.62,219.81 C543.99333,219.536665 543.466669,219.156669 543.04,218.67 C542.613331,218.183331 542.293334,217.613337 542.08,216.96 C541.866666,216.306663 541.76,215.600004 541.76,214.84 Z M555.6,207.8 L553.9,207.8 L553.9,205.72 L555.6,205.72 L555.6,207.8 Z M553.9,209.66 L555.6,209.66 L555.6,220 L553.9,220 L553.9,209.66 Z M558.24,209.66 L559.84,209.66 L559.84,211.3 L559.88,211.3 C560.58667,210.04666 561.706659,209.42 563.24,209.42 C563.920003,209.42 564.486664,209.513332 564.94,209.7 C565.393336,209.886668 565.759999,210.146665 566.04,210.48 C566.320001,210.813335 566.516666,211.209998 566.63,211.67 C566.743334,212.130002 566.8,212.639997 566.8,213.2 L566.8,220 L565.1,220 L565.1,213 C565.1,212.359997 564.913335,211.853335 564.54,211.48 C564.166665,211.106665 563.653337,210.92 563,210.92 C562.479997,210.92 562.030002,210.999999 561.65,211.16 C561.269998,211.320001 560.953335,211.546665 560.7,211.84 C560.446665,212.133335 560.256667,212.476665 560.13,212.87 C560.003333,213.263335 559.94,213.693331 559.94,214.16 L559.94,220 L558.24,220 L558.24,209.66 Z M571.72,209.66 L573.78,209.66 L573.78,211.16 L571.72,211.16 L571.72,217.58 C571.72,217.780001 571.736666,217.939999 571.77,218.06 C571.803334,218.180001 571.866666,218.273333 571.96,218.34 C572.053334,218.406667 572.183333,218.45 572.35,218.47 C572.516668,218.49 572.733332,218.5 573,218.5 L573.78,218.5 L573.78,220 L572.48,220 C572.039998,220 571.663335,219.97 571.35,219.91 C571.036665,219.85 570.783334,219.740001 570.59,219.58 C570.396666,219.419999 570.253334,219.193335 570.16,218.9 C570.066666,218.606665 570.02,218.220002 570.02,217.74 L570.02,211.16 L568.26,211.16 L568.26,209.66 L570.02,209.66 L570.02,206.56 L571.72,206.56 L571.72,209.66 Z" id="Generator-point" fill="#9B9B9B"></path>
            <path id="Path-3" d="M308.535599,170.665343 C338.488796,154.688675 371.160527,152.358881 406.391542,163.655624 L404.864866,168.416849 C371.089933,157.586995 339.982126,159.725964 311.38496,174.81377 L318.011506,184.461498 L285.897651,188.928075 L301.592703,160.557045 L308.535599,170.665343 Z" fill="#D0021B" fill-rule="nonzero"></path>
            <g id="Group-3" transform="translate(188.000000, 305.000000)">
                <path d="M28.0205078,33 L17.6669922,33 L17.6669922,31.7519531 C17.9482436,31.7285155 18.3554661,31.6933596 18.8886719,31.6464844 C19.4218777,31.5996091 19.7880849,31.5292973 19.9873047,31.4355469 C20.3388689,31.2949212 20.5966789,31.0810561 20.7607422,30.7939453 C20.9248055,30.5068345 21.0068359,30.1347679 21.0068359,29.6777344 L21.0068359,20.8007812 L9.28222656,20.8007812 L9.28222656,29.484375 C9.28222656,29.8945333 9.3496087,30.240233 9.484375,30.5214844 C9.6191413,30.8027358 9.8857402,31.0488271 10.2841797,31.2597656 C10.4833994,31.3652349 10.8378881,31.4707026 11.3476562,31.5761719 C11.8574244,31.6816412 12.2587876,31.7402343 12.5517578,31.7519531 L12.5517578,33 L2.19824219,33 L2.19824219,31.7519531 C2.47949359,31.7285155 2.88671608,31.6933596 3.41992188,31.6464844 C3.95312767,31.5996091 4.31933494,31.5292973 4.51855469,31.4355469 C4.87011895,31.2949212 5.12792887,31.0810561 5.29199219,30.7939453 C5.45605551,30.5068345 5.53808594,30.1347679 5.53808594,29.6777344 L5.53808594,11.6777344 C5.53808594,11.3027325 5.46191482,10.9599625 5.30957031,10.6494141 C5.1572258,10.3388656 4.89355656,10.095704 4.51855469,9.91992188 C4.20214686,9.76757736 3.81836163,9.63281309 3.3671875,9.515625 C2.91601337,9.39843691 2.52636883,9.32812512 2.19824219,9.3046875 L2.19824219,8.05664062 L12.5517578,8.05664062 L12.5517578,9.3046875 C12.2236312,9.31640631 11.822268,9.36914016 11.3476562,9.46289062 C10.8730445,9.55664109 10.5185559,9.64453084 10.2841797,9.7265625 C9.8857402,9.8671882 9.6191413,10.1015609 9.484375,10.4296875 C9.3496087,10.7578141 9.28222656,11.1152324 9.28222656,11.5019531 L9.28222656,19.2363281 L21.0068359,19.2363281 L21.0068359,11.6777344 C21.0068359,11.3027325 20.9306648,10.9599625 20.7783203,10.6494141 C20.6259758,10.3388656 20.3623066,10.095704 19.9873047,9.91992188 C19.6708969,9.76757736 19.2871116,9.63281309 18.8359375,9.515625 C18.3847634,9.39843691 17.9951188,9.32812512 17.6669922,9.3046875 L17.6669922,8.05664062 L28.0205078,8.05664062 L28.0205078,9.3046875 C27.6923812,9.31640631 27.291018,9.36914016 26.8164062,9.46289062 C26.3417945,9.55664109 25.9873059,9.64453084 25.7529297,9.7265625 C25.3544902,9.8671882 25.0878913,10.1015609 24.953125,10.4296875 C24.8183587,10.7578141 24.7509766,11.1152324 24.7509766,11.5019531 L24.7509766,29.484375 C24.7509766,29.8945333 24.8183587,30.240233 24.953125,30.5214844 C25.0878913,30.8027358 25.3544902,31.0488271 25.7529297,31.2597656 C25.9521494,31.3652349 26.3066381,31.4707026 26.8164062,31.5761719 C27.3261744,31.6816412 27.7275376,31.7402343 28.0205078,31.7519531 L28.0205078,33 Z M42.1357422,38.765625 C38.9365074,38.3671855 36.4257904,36.7558735 34.6035156,33.9316406 C32.7812409,31.1074078 31.8701172,27.3047114 31.8701172,22.5234375 C31.8701172,17.6601319 32.7812409,13.8076314 34.6035156,10.9658203 C36.4257904,8.12400923 38.9365074,6.49218961 42.1357422,6.0703125 L42.1357422,7.52929688 C39.8857309,7.93945518 38.1748105,9.3749877 37.0029297,11.8359375 C35.8310488,14.2968873 35.2451172,17.8710703 35.2451172,22.5585938 C35.2451172,27.0234598 35.8193302,30.4951048 36.9677734,32.9736328 C38.1162167,35.4521608 39.8388557,36.9023416 42.1357422,37.3242188 L42.1357422,38.765625 Z M74.2685547,33 L65.8134766,33 L65.8134766,31.8398438 C66.0830092,31.8164061 66.3554674,31.7929689 66.6308594,31.7695312 C66.9062514,31.7460936 67.149413,31.6992191 67.3603516,31.6289062 C67.6884782,31.523437 67.9316398,31.3388685 68.0898438,31.0751953 C68.2480477,30.8115221 68.3271484,30.4687521 68.3271484,30.046875 L68.3271484,21.0996094 C68.3271484,19.8808533 68.0488309,18.940433 67.4921875,18.2783203 C66.9355441,17.6162076 66.2412151,17.2851562 65.4091797,17.2851562 C64.8349581,17.2851562 64.295901,17.373046 63.7919922,17.5488281 C63.2880834,17.7246103 62.8251974,17.9707015 62.4033203,18.2871094 C62.0634749,18.5449232 61.779298,18.8232407 61.5507812,19.1220703 C61.3222645,19.4208999 61.1494146,19.6699209 61.0322266,19.8691406 L61.0322266,29.8710938 C61.0322266,30.2812521 61.1025384,30.6181627 61.2431641,30.8818359 C61.3837898,31.1455091 61.6240217,31.3476555 61.9638672,31.4882812 C62.2333998,31.5937505 62.4765614,31.6728513 62.6933594,31.7255859 C62.9101573,31.7783206 63.1943342,31.8164061 63.5458984,31.8398438 L63.5458984,33 L55.2666016,33 L55.2666016,31.8398438 C55.5361342,31.8164061 55.7968737,31.7929689 56.0488281,31.7695312 C56.3007825,31.7460936 56.5322255,31.6992191 56.7431641,31.6289062 C57.0712907,31.523437 57.3144523,31.3388685 57.4726562,31.0751953 C57.6308602,30.8115221 57.7099609,30.4687521 57.7099609,30.046875 L57.7099609,21.0996094 C57.7099609,19.8808533 57.4316434,18.940433 56.875,18.2783203 C56.3183566,17.6162076 55.6240276,17.2851562 54.7919922,17.2851562 C54.2177706,17.2851562 53.6787135,17.3759757 53.1748047,17.5576172 C52.6708959,17.7392587 52.2080099,17.9882797 51.7861328,18.3046875 C51.4462874,18.5625013 51.1591809,18.8525375 50.9248047,19.1748047 C50.6904285,19.4970719 50.514649,19.7402336 50.3974609,19.9042969 L50.3974609,29.8359375 C50.3974609,30.234377 50.4794914,30.568358 50.6435547,30.8378906 C50.807618,31.1074232 51.0537093,31.3124993 51.3818359,31.453125 C51.6279309,31.5703131 51.8798815,31.6582028 52.1376953,31.7167969 C52.3955091,31.7753909 52.6826156,31.8164061 52.9990234,31.8398438 L52.9990234,33 L44.5791016,33 L44.5791016,31.8398438 C44.8486342,31.8164061 45.1269517,31.7929689 45.4140625,31.7695312 C45.7011733,31.7460936 45.9501943,31.6992191 46.1611328,31.6289062 C46.4892595,31.523437 46.7324211,31.3388685 46.890625,31.0751953 C47.0488289,30.8115221 47.1279297,30.4687521 47.1279297,30.046875 L47.1279297,19.2714844 C47.1279297,18.8964825 47.0429696,18.5595718 46.8730469,18.2607422 C46.7031242,17.9619126 46.4658218,17.7070323 46.1611328,17.4960938 C45.9384754,17.355468 45.6630876,17.2412114 45.3349609,17.1533203 C45.0068343,17.0654292 44.6669939,17.0097657 44.3154297,16.9863281 L44.3154297,15.84375 L50.1162109,15.4570312 L50.3623047,15.703125 L50.3623047,18.1816406 L50.4853516,18.1816406 C50.7783218,17.8886704 51.1357401,17.5429707 51.5576172,17.1445312 C51.9794943,16.7460918 52.3720685,16.4238294 52.7353516,16.1777344 C53.1455099,15.896483 53.6582,15.6621103 54.2734375,15.4746094 C54.888675,15.2871084 55.5537074,15.1933594 56.2685547,15.1933594 C57.3935603,15.1933594 58.3603475,15.4951142 59.1689453,16.0986328 C59.9775431,16.7021515 60.5576154,17.4316363 60.9091797,18.2871094 C61.3310568,17.8769511 61.7031234,17.5166031 62.0253906,17.2060547 C62.3476579,16.8955063 62.7724583,16.5644549 63.2998047,16.2128906 C63.7451194,15.9082016 64.2695282,15.6621103 64.8730469,15.4746094 C65.4765655,15.2871084 66.1474572,15.1933594 66.8857422,15.1933594 C68.3505933,15.1933594 69.5107379,15.6738233 70.3662109,16.6347656 C71.221684,17.5957079 71.6494141,19.0722557 71.6494141,21.0644531 L71.6494141,29.8710938 C71.6494141,30.2812521 71.7197259,30.6181627 71.8603516,30.8818359 C72.0009773,31.1455091 72.2412092,31.3476555 72.5810547,31.4882812 C72.8505873,31.5937505 73.1171862,31.6728513 73.3808594,31.7255859 C73.6445326,31.7783206 73.940428,31.8164061 74.2685547,31.8398438 L74.2685547,33 Z M86.4677734,22.5234375 C86.4677734,27.3047114 85.5566497,31.1074078 83.734375,33.9316406 C81.9121003,36.7558735 79.4013832,38.3671855 76.2021484,38.765625 L76.2021484,37.3242188 C78.4990349,36.9023416 80.2216739,35.4521608 81.3701172,32.9736328 C82.5185604,30.4951048 83.0927734,27.0234598 83.0927734,22.5585938 C83.0927734,17.8710703 82.5068418,14.2968873 81.3349609,11.8359375 C80.1630801,9.3749877 78.4521597,7.93945518 76.2021484,7.52929688 L76.2021484,6.0703125 C79.4013832,6.49218961 81.9121003,8.12400923 83.734375,10.9658203 C85.5566497,13.8076314 86.4677734,17.6601319 86.4677734,22.5234375 Z" id="H(m)" fill="#000000"></path>
                <path d="M5.56,45.72 L7.46,45.72 L7.46,51.86 L14.98,51.86 L14.98,45.72 L16.88,45.72 L16.88,60 L14.98,60 L14.98,53.46 L7.46,53.46 L7.46,60 L5.56,60 L5.56,45.72 Z M28.88,59.96 C28.5866652,60.1333342 28.1800026,60.22 27.66,60.22 C27.2199978,60.22 26.8700013,60.0966679 26.61,59.85 C26.3499987,59.6033321 26.22,59.2000028 26.22,58.64 C25.753331,59.2000028 25.2100031,59.6033321 24.59,59.85 C23.9699969,60.0966679 23.3000036,60.22 22.58,60.22 C22.113331,60.22 21.6700021,60.1666672 21.25,60.06 C20.8299979,59.9533328 20.4666682,59.7866678 20.16,59.56 C19.8533318,59.3333322 19.6100009,59.0366685 19.43,58.67 C19.2499991,58.3033315 19.16,57.8600026 19.16,57.34 C19.16,56.7533304 19.259999,56.2733352 19.46,55.9 C19.660001,55.5266648 19.9233317,55.2233345 20.25,54.99 C20.5766683,54.7566655 20.9499979,54.5800006 21.37,54.46 C21.7900021,54.3399994 22.2199978,54.2400004 22.66,54.16 C23.126669,54.0666662 23.5699979,53.9966669 23.99,53.95 C24.4100021,53.9033331 24.7799984,53.8366671 25.1,53.75 C25.4200016,53.6633329 25.6733324,53.5366675 25.86,53.37 C26.0466676,53.2033325 26.14,52.9600016 26.14,52.64 C26.14,52.2666648 26.0700007,51.9666678 25.93,51.74 C25.7899993,51.5133322 25.6100011,51.3400006 25.39,51.22 C25.1699989,51.0999994 24.9233347,51.0200002 24.65,50.98 C24.3766653,50.9399998 24.106668,50.92 23.84,50.92 C23.1199964,50.92 22.5200024,51.0566653 22.04,51.33 C21.5599976,51.6033347 21.3000002,52.1199962 21.26,52.88 L19.56,52.88 C19.5866668,52.2399968 19.7199988,51.7000022 19.96,51.26 C20.2000012,50.8199978 20.519998,50.4633347 20.92,50.19 C21.320002,49.9166653 21.7766641,49.7200006 22.29,49.6 C22.8033359,49.4799994 23.3533304,49.42 23.94,49.42 C24.406669,49.42 24.8699977,49.453333 25.33,49.52 C25.7900023,49.586667 26.2066648,49.7233323 26.58,49.93 C26.9533352,50.1366677 27.2533322,50.4266648 27.48,50.8 C27.7066678,51.1733352 27.82,51.659997 27.82,52.26 L27.82,57.58 C27.82,57.980002 27.8433331,58.2733324 27.89,58.46 C27.9366669,58.6466676 28.093332,58.74 28.36,58.74 C28.5066674,58.74 28.679999,58.706667 28.88,58.64 L28.88,59.96 Z M26.12,54.66 C25.9066656,54.8200008 25.6266684,54.9366663 25.28,55.01 C24.9333316,55.0833337 24.5700019,55.1433331 24.19,55.19 C23.8099981,55.2366669 23.4266686,55.2899997 23.04,55.35 C22.6533314,55.4100003 22.3066682,55.506666 22,55.64 C21.6933318,55.773334 21.4433343,55.9633321 21.25,56.21 C21.0566657,56.4566679 20.96,56.7933312 20.96,57.22 C20.96,57.5000014 21.0166661,57.7366657 21.13,57.93 C21.2433339,58.1233343 21.3899991,58.2799994 21.57,58.4 C21.7500009,58.5200006 21.9599988,58.6066664 22.2,58.66 C22.4400012,58.7133336 22.693332,58.74 22.96,58.74 C23.5200028,58.74 23.999998,58.6633341 24.4,58.51 C24.800002,58.3566659 25.1266654,58.1633345 25.38,57.93 C25.6333346,57.6966655 25.8199994,57.4433347 25.94,57.17 C26.0600006,56.8966653 26.12,56.6400012 26.12,56.4 L26.12,54.66 Z M31.5,56.74 C31.5133334,57.1133352 31.5999992,57.4299987 31.76,57.69 C31.9200008,57.9500013 32.1299987,58.1566659 32.39,58.31 C32.6500013,58.4633341 32.9433317,58.573333 33.27,58.64 C33.5966683,58.706667 33.9333316,58.74 34.28,58.74 C34.546668,58.74 34.8266652,58.7200002 35.12,58.68 C35.4133348,58.6399998 35.6833321,58.5666672 35.93,58.46 C36.1766679,58.3533328 36.3799992,58.1966677 36.54,57.99 C36.7000008,57.7833323 36.78,57.5200016 36.78,57.2 C36.78,56.7599978 36.613335,56.4266678 36.28,56.2 C35.946665,55.9733322 35.5300025,55.7900007 35.03,55.65 C34.5299975,55.5099993 33.9866696,55.3833339 33.4,55.27 C32.8133304,55.1566661 32.2700025,54.9966677 31.77,54.79 C31.2699975,54.5833323 30.853335,54.2933352 30.52,53.92 C30.186665,53.5466648 30.02,53.02667 30.02,52.36 C30.02,51.8399974 30.1366655,51.3933352 30.37,51.02 C30.6033345,50.6466648 30.9033315,50.3433345 31.27,50.11 C31.6366685,49.8766655 32.0499977,49.7033339 32.51,49.59 C32.9700023,49.4766661 33.4266644,49.42 33.88,49.42 C34.4666696,49.42 35.0066642,49.4699995 35.5,49.57 C35.9933358,49.6700005 36.4299981,49.8433321 36.81,50.09 C37.1900019,50.3366679 37.4933322,50.6699979 37.72,51.09 C37.9466678,51.5100021 38.0799998,52.0333302 38.12,52.66 L36.42,52.66 C36.3933332,52.326665 36.3066674,52.0500011 36.16,51.83 C36.0133326,51.6099989 35.8266678,51.433334 35.6,51.3 C35.3733322,51.166666 35.1233347,51.0700003 34.85,51.01 C34.5766653,50.9499997 34.3000014,50.92 34.02,50.92 C33.7666654,50.92 33.5100013,50.9399998 33.25,50.98 C32.9899987,51.0200002 32.7533344,51.0899995 32.54,51.19 C32.3266656,51.2900005 32.153334,51.4233325 32.02,51.59 C31.886666,51.7566675 31.82,51.973332 31.82,52.24 C31.82,52.5333348 31.9233323,52.7766657 32.13,52.97 C32.3366677,53.1633343 32.5999984,53.3233327 32.92,53.45 C33.2400016,53.5766673 33.599998,53.6833329 34,53.77 C34.400002,53.8566671 34.799998,53.9466662 35.2,54.04 C35.6266688,54.1333338 36.0433313,54.246666 36.45,54.38 C36.8566687,54.513334 37.2166651,54.6899989 37.53,54.91 C37.8433349,55.1300011 38.0966657,55.406665 38.29,55.74 C38.4833343,56.073335 38.58,56.4866642 38.58,56.98 C38.58,57.6066698 38.4500013,58.1266646 38.19,58.54 C37.9299987,58.9533354 37.5900021,59.2866654 37.17,59.54 C36.7499979,59.7933346 36.2766693,59.9699995 35.75,60.07 C35.2233307,60.1700005 34.7000026,60.22 34.18,60.22 C33.6066638,60.22 33.0600026,60.1600006 32.54,60.04 C32.0199974,59.9199994 31.560002,59.7233347 31.16,59.45 C30.759998,59.1766653 30.4400012,58.8166689 30.2,58.37 C29.9599988,57.9233311 29.8266668,57.3800032 29.8,56.74 L31.5,56.74 Z M40.46,45.72 L42.16,45.72 L42.16,51.18 L42.2,51.18 C42.333334,50.8599984 42.5199988,50.5900011 42.76,50.37 C43.0000012,50.1499989 43.2699985,49.9700007 43.57,49.83 C43.8700015,49.6899993 44.1833317,49.586667 44.51,49.52 C44.8366683,49.453333 45.1533318,49.42 45.46,49.42 C46.1400034,49.42 46.7066644,49.5133324 47.16,49.7 C47.6133356,49.8866676 47.9799986,50.146665 48.26,50.48 C48.5400014,50.813335 48.7366661,51.2099977 48.85,51.67 C48.9633339,52.1300023 49.02,52.6399972 49.02,53.2 L49.02,60 L47.32,60 L47.32,53 C47.32,52.3599968 47.1333352,51.8533352 46.76,51.48 C46.3866648,51.1066648 45.8733366,50.92 45.22,50.92 C44.6999974,50.92 44.2500019,50.9999992 43.87,51.16 C43.4899981,51.3200008 43.1733346,51.5466652 42.92,51.84 C42.6666654,52.1333348 42.4766673,52.4766647 42.35,52.87 C42.2233327,53.2633353 42.16,53.693331 42.16,54.16 L42.16,60 L40.46,60 L40.46,45.72 Z M59.5,49.66 L61.56,49.66 L61.56,51.16 L59.5,51.16 L59.5,57.58 C59.5,57.780001 59.5166665,57.9399994 59.55,58.06 C59.5833335,58.1800006 59.6466662,58.273333 59.74,58.34 C59.8333338,58.406667 59.9633325,58.4499999 60.13,58.47 C60.2966675,58.4900001 60.513332,58.5 60.78,58.5 L61.56,58.5 L61.56,60 L60.26,60 C59.8199978,60 59.4433349,59.9700003 59.13,59.91 C58.8166651,59.8499997 58.5633343,59.7400008 58.37,59.58 C58.1766657,59.4199992 58.0333338,59.1933348 57.94,58.9 C57.8466662,58.6066652 57.8,58.2200024 57.8,57.74 L57.8,51.16 L56.04,51.16 L56.04,49.66 L57.8,49.66 L57.8,46.56 L59.5,46.56 L59.5,49.66 Z M64.68,54.84 C64.68,55.4666698 64.7633325,56.0233309 64.93,56.51 C65.0966675,56.9966691 65.3266652,57.4033317 65.62,57.73 C65.9133348,58.0566683 66.2566647,58.3066658 66.65,58.48 C67.0433353,58.6533342 67.4599978,58.74 67.9,58.74 C68.3400022,58.74 68.7566647,58.6533342 69.15,58.48 C69.5433353,58.3066658 69.8866652,58.0566683 70.18,57.73 C70.4733348,57.4033317 70.7033325,56.9966691 70.87,56.51 C71.0366675,56.0233309 71.12,55.4666698 71.12,54.84 C71.12,54.2133302 71.0366675,53.6566691 70.87,53.17 C70.7033325,52.6833309 70.4733348,52.273335 70.18,51.94 C69.8866652,51.606665 69.5433353,51.3533342 69.15,51.18 C68.7566647,51.0066658 68.3400022,50.92 67.9,50.92 C67.4599978,50.92 67.0433353,51.0066658 66.65,51.18 C66.2566647,51.3533342 65.9133348,51.606665 65.62,51.94 C65.3266652,52.273335 65.0966675,52.6833309 64.93,53.17 C64.7633325,53.6566691 64.68,54.2133302 64.68,54.84 Z M62.88,54.84 C62.88,54.0799962 62.9866656,53.3700033 63.2,52.71 C63.4133344,52.0499967 63.7333312,51.4766691 64.16,50.99 C64.5866688,50.5033309 65.1133302,50.1200014 65.74,49.84 C66.3666698,49.5599986 67.0866626,49.42 67.9,49.42 C68.7266708,49.42 69.4499969,49.5599986 70.07,49.84 C70.6900031,50.1200014 71.2133312,50.5033309 71.64,50.99 C72.0666688,51.4766691 72.3866656,52.0499967 72.6,52.71 C72.8133344,53.3700033 72.92,54.0799962 72.92,54.84 C72.92,55.6000038 72.8133344,56.3066634 72.6,56.96 C72.3866656,57.6133366 72.0666688,58.1833309 71.64,58.67 C71.2133312,59.1566691 70.6900031,59.5366653 70.07,59.81 C69.4499969,60.0833347 68.7266708,60.22 67.9,60.22 C67.0866626,60.22 66.3666698,60.0833347 65.74,59.81 C65.1133302,59.5366653 64.5866688,59.1566691 64.16,58.67 C63.7333312,58.1833309 63.4133344,57.6133366 63.2,56.96 C62.9866656,56.3066634 62.88,55.6000038 62.88,54.84 Z M87.5,52.98 C87.366666,52.3266634 87.0866688,51.8200018 86.66,51.46 C86.2333312,51.0999982 85.6600036,50.92 84.94,50.92 C84.3266636,50.92 83.8133354,51.0333322 83.4,51.26 C82.9866646,51.4866678 82.6566679,51.7866648 82.41,52.16 C82.1633321,52.5333352 81.9866672,52.9633309 81.88,53.45 C81.7733328,53.9366691 81.72,54.4399974 81.72,54.96 C81.72,55.4400024 81.7766661,55.9066644 81.89,56.36 C82.0033339,56.8133356 82.1799988,57.2166649 82.42,57.57 C82.6600012,57.9233351 82.9733314,58.2066656 83.36,58.42 C83.7466686,58.6333344 84.206664,58.74 84.74,58.74 C85.5800042,58.74 86.2366643,58.5200022 86.71,58.08 C87.1833357,57.6399978 87.4733328,57.020004 87.58,56.22 L89.32,56.22 C89.1333324,57.5000064 88.6566705,58.4866632 87.89,59.18 C87.1233295,59.8733368 86.0800066,60.22 84.76,60.22 C83.9733294,60.22 83.2766697,60.0933346 82.67,59.84 C82.0633303,59.5866654 81.5566687,59.226669 81.15,58.76 C80.7433313,58.293331 80.4366677,57.7366699 80.23,57.09 C80.0233323,56.4433301 79.92,55.7333372 79.92,54.96 C79.92,54.1866628 80.019999,53.4633367 80.22,52.79 C80.420001,52.1166633 80.7233313,51.5300025 81.13,51.03 C81.5366687,50.5299975 82.0466636,50.1366681 82.66,49.85 C83.2733364,49.5633319 83.9866626,49.42 84.8,49.42 C85.3866696,49.42 85.9366641,49.4899993 86.45,49.63 C86.9633359,49.7700007 87.4166647,49.9866652 87.81,50.28 C88.2033353,50.5733348 88.5266654,50.9433311 88.78,51.39 C89.0333346,51.8366689 89.193333,52.3666636 89.26,52.98 L87.5,52.98 Z M99.78,60 L98.18,60 L98.18,58.36 L98.14,58.36 C97.7799982,59.0000032 97.3200028,59.4699985 96.76,59.77 C96.1999972,60.0700015 95.5400038,60.22 94.78,60.22 C94.0999966,60.22 93.5333356,60.1300009 93.08,59.95 C92.6266644,59.7699991 92.2600014,59.513335 91.98,59.18 C91.6999986,58.846665 91.5033339,58.4500023 91.39,57.99 C91.2766661,57.5299977 91.22,57.0200028 91.22,56.46 L91.22,49.66 L92.92,49.66 L92.92,56.66 C92.92,57.3000032 93.1066648,57.8066648 93.48,58.18 C93.8533352,58.5533352 94.3666634,58.74 95.02,58.74 C95.5400026,58.74 95.9899981,58.6600008 96.37,58.5 C96.7500019,58.3399992 97.0666654,58.1133348 97.32,57.82 C97.5733346,57.5266652 97.7633327,57.1833353 97.89,56.79 C98.0166673,56.3966647 98.08,55.966669 98.08,55.5 L98.08,49.66 L99.78,49.66 L99.78,60 Z M102.28,49.66 L103.88,49.66 L103.88,51.84 L103.92,51.84 C104.333335,50.9999958 104.839997,50.380002 105.44,49.98 C106.040003,49.579998 106.799995,49.3933332 107.72,49.42 L107.72,51.22 C107.039997,51.22 106.460002,51.3133324 105.98,51.5 C105.499998,51.6866676 105.113335,51.9599982 104.82,52.32 C104.526665,52.6800018 104.313334,53.1166641 104.18,53.63 C104.046666,54.1433359 103.98,54.73333 103.98,55.4 L103.98,60 L102.28,60 L102.28,49.66 Z M113.66,60 L111.84,60 L108,49.66 L109.9,49.66 L112.8,58.28 L112.84,58.28 L115.66,49.66 L117.44,49.66 L113.66,60 Z M126.18,53.84 C126.153333,53.439998 126.063334,53.0600018 125.91,52.7 C125.756666,52.3399982 125.550001,52.0300013 125.29,51.77 C125.029999,51.5099987 124.723335,51.3033341 124.37,51.15 C124.016665,50.9966659 123.626669,50.92 123.2,50.92 C122.759998,50.92 122.363335,50.9966659 122.01,51.15 C121.656665,51.3033341 121.353335,51.513332 121.1,51.78 C120.846665,52.046668 120.646667,52.3566649 120.5,52.71 C120.353333,53.0633351 120.266667,53.439998 120.24,53.84 L126.18,53.84 Z M127.82,56.72 C127.593332,57.8800058 127.093337,58.7533304 126.32,59.34 C125.546663,59.9266696 124.573339,60.22 123.4,60.22 C122.573329,60.22 121.85667,60.086668 121.25,59.82 C120.64333,59.553332 120.133335,59.1800024 119.72,58.7 C119.306665,58.2199976 118.996668,57.64667 118.79,56.98 C118.583332,56.31333 118.466667,55.5866706 118.44,54.8 C118.44,54.0133294 118.559999,53.2933366 118.8,52.64 C119.040001,51.9866634 119.376665,51.4200024 119.81,50.94 C120.243336,50.4599976 120.756664,50.086668 121.35,49.82 C121.943336,49.553332 122.59333,49.42 123.3,49.42 C124.220005,49.42 124.98333,49.6099981 125.59,49.99 C126.19667,50.3700019 126.683332,50.8533304 127.05,51.44 C127.416668,52.0266696 127.669999,52.6666632 127.81,53.36 C127.950001,54.0533368 128.006667,54.7133302 127.98,55.34 L120.24,55.34 C120.226667,55.7933356 120.279999,56.2233313 120.4,56.63 C120.520001,57.0366687 120.713332,57.3966651 120.98,57.71 C121.246668,58.0233349 121.586665,58.2733324 122,58.46 C122.413335,58.6466676 122.899997,58.74 123.46,58.74 C124.180004,58.74 124.769998,58.573335 125.23,58.24 C125.690002,57.906665 125.993333,57.4000034 126.14,56.72 L127.82,56.72 Z" id="Hash-to-curve" fill="#9B9B9B"></path>
            </g>
            <g id="Group-3" transform="translate(488.000000, 277.000000)">
                <path d="M17.3623047,21.5566406 C17.8896511,22.1425811 18.2792956,22.7841762 18.53125,23.4814453 C18.7832044,24.1787144 18.9091797,24.9902297 18.9091797,25.9160156 C18.9091797,28.1191516 18.0947347,29.9355397 16.4658203,31.3652344 C14.8369059,32.794929 12.8154418,33.5097656 10.4013672,33.5097656 C9.28808037,33.5097656 8.17481025,33.3369158 7.06152344,32.9912109 C5.94823662,32.6455061 4.98730873,32.226565 4.17871094,31.734375 L3.42285156,33.0175781 L2.01660156,33.0175781 L1.77050781,24.4746094 L3.19433594,24.4746094 C3.48730615,25.5293021 3.83007616,26.4814411 4.22265625,27.3310547 C4.61523634,28.1806683 5.13378584,28.9746057 5.77832031,29.7128906 C6.38769836,30.4043003 7.0996053,30.9550761 7.9140625,31.3652344 C8.7285197,31.7753927 9.6747993,31.9804688 10.7529297,31.9804688 C11.5615275,31.9804688 12.2675751,31.8750011 12.8710938,31.6640625 C13.4746124,31.4531239 13.9638653,31.1542988 14.3388672,30.7675781 C14.7138691,30.3808574 14.9921866,29.9267604 15.1738281,29.4052734 C15.3554697,28.8837865 15.4462891,28.2832065 15.4462891,27.6035156 C15.4462891,26.6074169 15.1650419,25.6787152 14.6025391,24.8173828 C14.0400362,23.9560504 13.202154,23.3027366 12.0888672,22.8574219 C11.3271446,22.5527329 10.4541065,22.2158222 9.46972656,21.8466797 C8.48534664,21.4775372 7.63574576,21.1289079 6.92089844,20.8007812 C5.51464141,20.1679656 4.4218789,19.3388723 3.64257812,18.3134766 C2.86327735,17.2880808 2.47363281,15.949227 2.47363281,14.296875 C2.47363281,13.3476515 2.66699025,12.4628947 3.05371094,11.6425781 C3.44043162,10.8222615 3.99120736,10.089847 4.70605469,9.4453125 C5.38574559,8.83593445 6.18847193,8.35840017 7.11425781,8.01269531 C8.04004369,7.66699046 9.0068309,7.49414062 10.0146484,7.49414062 C11.1630917,7.49414062 12.1914017,7.66992012 13.0996094,8.02148438 C14.007817,8.37304863 14.8369103,8.78320078 15.5869141,9.25195312 L16.3076172,8.05664062 L17.7138672,8.05664062 L17.8544922,16.3359375 L16.4306641,16.3359375 C16.1728503,15.386714 15.8828141,14.47852 15.5605469,13.6113281 C15.2382796,12.7441363 14.8193385,11.9589879 14.3037109,11.2558594 C13.7998022,10.5761685 13.1845739,10.0341817 12.4580078,9.62988281 C11.7314417,9.22558392 10.8408256,9.0234375 9.78613281,9.0234375 C8.672846,9.0234375 7.72363674,9.3808558 6.93847656,10.0957031 C6.15331639,10.8105504 5.76074219,11.6835886 5.76074219,12.7148438 C5.76074219,13.7929741 6.01269279,14.6865199 6.51660156,15.3955078 C7.02051033,16.1044957 7.75292488,16.6874977 8.71386719,17.1445312 C9.56934021,17.5546896 10.4101521,17.9091782 11.2363281,18.2080078 C12.0625041,18.5068374 12.8623008,18.8261702 13.6357422,19.1660156 C14.3388707,19.4707046 15.0156217,19.8164043 15.6660156,20.203125 C16.3164095,20.5898457 16.8818335,21.041013 17.3623047,21.5566406 Z M49.4423828,20.9941406 L31.7060547,20.9941406 L31.7060547,18.796875 L49.4423828,18.796875 L49.4423828,20.9941406 Z M49.4423828,27.5332031 L31.7060547,27.5332031 L31.7060547,25.3359375 L49.4423828,25.3359375 L49.4423828,27.5332031 Z M77.9365234,17.7246094 C78.6279331,18.544926 79.1640606,19.4970649 79.5449219,20.5810547 C79.9257832,21.6650445 80.1162109,22.9042899 80.1162109,24.2988281 C80.1162109,25.6699287 79.8876976,26.9208928 79.4306641,28.0517578 C78.9736305,29.1826228 78.3701209,30.1464804 77.6201172,30.9433594 C76.834957,31.7519572 75.9619189,32.3730447 75.0009766,32.8066406 C74.0400343,33.2402365 73.0205132,33.4570312 71.9423828,33.4570312 C70.8994088,33.4570312 70.0439487,33.3398449 69.3759766,33.1054688 C68.7080045,32.8710926 68.163088,32.5957047 67.7412109,32.2792969 L67.6005859,32.2792969 L67.6005859,37.4824219 C67.6005859,37.904299 67.6826164,38.255858 67.8466797,38.5371094 C68.010743,38.8183608 68.2626936,39.0234369 68.6025391,39.1523438 C68.8837905,39.257813 69.2851536,39.3603511 69.8066406,39.4599609 C70.3281276,39.5595708 70.7587874,39.6152343 71.0986328,39.6269531 L71.0986328,40.8046875 L61.4130859,40.8046875 L61.4130859,39.6269531 C61.776369,39.6035155 62.127928,39.5742189 62.4677734,39.5390625 C62.8076189,39.5039061 63.1123033,39.4453129 63.3818359,39.3632812 C63.7334002,39.2460932 63.9794915,39.0410171 64.1201172,38.7480469 C64.2607429,38.4550767 64.3310547,38.109377 64.3310547,37.7109375 L64.3310547,19.2714844 C64.3310547,18.9199201 64.2431649,18.5800798 64.0673828,18.2519531 C63.8916007,17.9238265 63.6630873,17.6601572 63.3818359,17.4609375 C63.1708974,17.3203118 62.8779316,17.2119144 62.5029297,17.1357422 C62.1279278,17.0595699 61.7646502,17.0097657 61.4130859,16.9863281 L61.4130859,15.84375 L67.3193359,15.4570312 L67.5654297,15.6679688 L67.5654297,17.6191406 L67.7060547,17.6542969 C68.3154327,16.9511684 69.0712846,16.3652367 69.9736328,15.8964844 C70.8759811,15.427732 71.7724565,15.1933594 72.6630859,15.1933594 C73.7412163,15.1933594 74.7285111,15.4218727 75.625,15.8789062 C76.5214889,16.3359398 77.291989,16.951168 77.9365234,17.7246094 Z M75.0712891,30.1875 C75.5400414,29.4609339 75.8857411,28.6171923 76.1083984,27.65625 C76.3310558,26.6953077 76.4423828,25.6230528 76.4423828,24.4394531 C76.4423828,23.5722613 76.3486338,22.6875045 76.1611328,21.7851562 C75.9736319,20.882808 75.6806661,20.0976596 75.2822266,19.4296875 C74.8837871,18.7499966 74.3623079,18.1992209 73.7177734,17.7773438 C73.073239,17.3554666 72.2998092,17.1445312 71.3974609,17.1445312 C70.5302691,17.1445312 69.7919952,17.334959 69.1826172,17.7158203 C68.5732391,18.0966816 68.0459007,18.5507786 67.6005859,19.078125 L67.6005859,29.3261719 C67.7060552,29.6425797 67.878905,29.9707014 68.1191406,30.3105469 C68.3593762,30.6503923 68.6259751,30.9433581 68.9189453,31.1894531 C69.2822284,31.4824233 69.6748026,31.7197257 70.0966797,31.9013672 C70.5185568,32.0830087 71.0341766,32.1738281 71.6435547,32.1738281 C72.299808,32.1738281 72.9326141,32.0009783 73.5419922,31.6552734 C74.1513702,31.3095686 74.6611308,30.8203157 75.0712891,30.1875 Z M101.03418,33 L95.7958984,33 C94.8818314,31.6757746 93.9033255,30.2578201 92.8603516,28.7460938 C91.8173776,27.2343674 90.7334041,25.763679 89.6083984,24.3339844 L88.1669922,25.6875 L88.1669922,29.8007812 C88.1669922,30.2226584 88.2431633,30.5712877 88.3955078,30.8466797 C88.5478523,31.1220717 88.7939436,31.3242181 89.1337891,31.453125 C89.4150405,31.5703131 89.684569,31.6582028 89.9423828,31.7167969 C90.2001966,31.7753909 90.4990217,31.8164061 90.8388672,31.8398438 L90.8388672,33 L82.3310547,33 L82.3310547,31.8398438 C82.6005873,31.8164061 82.8818345,31.7900392 83.1748047,31.7607422 C83.4677749,31.7314452 83.7138662,31.6875003 83.9130859,31.6289062 C84.2412126,31.523437 84.4873039,31.3388685 84.6513672,31.0751953 C84.8154305,30.8115221 84.8974609,30.4687521 84.8974609,30.046875 L84.8974609,9.90234375 C84.8974609,9.46874783 84.8066415,9.06152534 84.625,8.68066406 C84.4433585,8.29980278 84.2060562,8.00976662 83.9130859,7.81054688 C83.666991,7.62304594 83.2832057,7.50000029 82.7617188,7.44140625 C82.2402318,7.38281221 81.8212906,7.34179699 81.5048828,7.31835938 L81.5048828,6.19335938 L87.9208984,5.7890625 L88.1669922,6.05273438 L88.1669922,24.3867188 C89.0810593,23.4726517 90.0683541,22.4912162 91.1289062,21.4423828 C92.1894584,20.3935494 93.0830042,19.4589885 93.8095703,18.6386719 C93.9033208,18.5332026 94.0058588,18.3955087 94.1171875,18.2255859 C94.2285162,18.0556632 94.2841797,17.9179693 94.2841797,17.8125 C94.2841797,17.4960922 94.0292994,17.2617195 93.5195312,17.109375 C93.0097631,16.9570305 92.5205102,16.8515628 92.0517578,16.7929688 L92.0517578,15.6679688 L99.6806641,15.6679688 L99.6806641,16.7578125 C98.6962841,17.0507827 97.8261757,17.41699 97.0703125,17.8564453 C96.3144493,18.2959006 95.7373067,18.6914045 95.3388672,19.0429688 C95.0576158,19.2773449 94.6591823,19.6582005 94.1435547,20.1855469 C93.6279271,20.7128933 92.9072312,21.4042926 91.9814453,22.2597656 C92.9423876,23.4433653 94.0234315,24.8613199 95.2246094,26.5136719 C96.4257873,28.1660239 97.3017551,29.3613244 97.8525391,30.0996094 C98.3681666,30.7910191 98.8310526,31.2421864 99.2412109,31.453125 C99.6513692,31.6640636 100.24902,31.7929685 101.03418,31.8398438 L101.03418,33 Z M120.15918,29.5019531 L118.594727,31.0664062 L112.249023,24.6855469 L105.885742,31.0839844 L104.338867,29.5195312 L110.737305,23.15625 L104.338867,16.8105469 L105.90332,15.2636719 L112.249023,21.6269531 L118.612305,15.2460938 L120.15918,16.7929688 L113.760742,23.15625 L120.15918,29.5019531 Z M151.37793,33 L141.024414,33 L141.024414,31.7519531 C141.305665,31.7285155 141.712888,31.6933596 142.246094,31.6464844 C142.7793,31.5996091 143.145507,31.5292973 143.344727,31.4355469 C143.696291,31.2949212 143.954101,31.0810561 144.118164,30.7939453 C144.282227,30.5068345 144.364258,30.1347679 144.364258,29.6777344 L144.364258,20.8007812 L132.639648,20.8007812 L132.639648,29.484375 C132.639648,29.8945333 132.707031,30.240233 132.841797,30.5214844 C132.976563,30.8027358 133.243162,31.0488271 133.641602,31.2597656 C133.840821,31.3652349 134.19531,31.4707026 134.705078,31.5761719 C135.214846,31.6816412 135.616209,31.7402343 135.90918,31.7519531 L135.90918,33 L125.555664,33 L125.555664,31.7519531 C125.836915,31.7285155 126.244138,31.6933596 126.777344,31.6464844 C127.31055,31.5996091 127.676757,31.5292973 127.875977,31.4355469 C128.227541,31.2949212 128.485351,31.0810561 128.649414,30.7939453 C128.813477,30.5068345 128.895508,30.1347679 128.895508,29.6777344 L128.895508,11.6777344 C128.895508,11.3027325 128.819337,10.9599625 128.666992,10.6494141 C128.514648,10.3388656 128.250978,10.095704 127.875977,9.91992188 C127.559569,9.76757736 127.175784,9.63281309 126.724609,9.515625 C126.273435,9.39843691 125.883791,9.32812512 125.555664,9.3046875 L125.555664,8.05664062 L135.90918,8.05664062 L135.90918,9.3046875 C135.581053,9.31640631 135.17969,9.36914016 134.705078,9.46289062 C134.230466,9.55664109 133.875978,9.64453084 133.641602,9.7265625 C133.243162,9.8671882 132.976563,10.1015609 132.841797,10.4296875 C132.707031,10.7578141 132.639648,11.1152324 132.639648,11.5019531 L132.639648,19.2363281 L144.364258,19.2363281 L144.364258,11.6777344 C144.364258,11.3027325 144.288087,10.9599625 144.135742,10.6494141 C143.983398,10.3388656 143.719728,10.095704 143.344727,9.91992188 C143.028319,9.76757736 142.644534,9.63281309 142.193359,9.515625 C141.742185,9.39843691 141.352541,9.32812512 141.024414,9.3046875 L141.024414,8.05664062 L151.37793,8.05664062 L151.37793,9.3046875 C151.049803,9.31640631 150.64844,9.36914016 150.173828,9.46289062 C149.699216,9.55664109 149.344728,9.64453084 149.110352,9.7265625 C148.711912,9.8671882 148.445313,10.1015609 148.310547,10.4296875 C148.175781,10.7578141 148.108398,11.1152324 148.108398,11.5019531 L148.108398,29.484375 C148.108398,29.8945333 148.175781,30.240233 148.310547,30.5214844 C148.445313,30.8027358 148.711912,31.0488271 149.110352,31.2597656 C149.309571,31.3652349 149.66406,31.4707026 150.173828,31.5761719 C150.683596,31.6816412 151.084959,31.7402343 151.37793,31.7519531 L151.37793,33 Z M165.493164,38.765625 C162.293929,38.3671855 159.783212,36.7558735 157.960938,33.9316406 C156.138663,31.1074078 155.227539,27.3047114 155.227539,22.5234375 C155.227539,17.6601319 156.138663,13.8076314 157.960938,10.9658203 C159.783212,8.12400923 162.293929,6.49218961 165.493164,6.0703125 L165.493164,7.52929688 C163.243153,7.93945518 161.532232,9.3749877 160.360352,11.8359375 C159.188471,14.2968873 158.602539,17.8710703 158.602539,22.5585938 C158.602539,27.0234598 159.176752,30.4951048 160.325195,32.9736328 C161.473639,35.4521608 163.196278,36.9023416 165.493164,37.3242188 L165.493164,38.765625 Z M197.625977,33 L189.170898,33 L189.170898,31.8398438 C189.440431,31.8164061 189.712889,31.7929689 189.988281,31.7695312 C190.263673,31.7460936 190.506835,31.6992191 190.717773,31.6289062 C191.0459,31.523437 191.289062,31.3388685 191.447266,31.0751953 C191.60547,30.8115221 191.68457,30.4687521 191.68457,30.046875 L191.68457,21.0996094 C191.68457,19.8808533 191.406253,18.940433 190.849609,18.2783203 C190.292966,17.6162076 189.598637,17.2851562 188.766602,17.2851562 C188.19238,17.2851562 187.653323,17.373046 187.149414,17.5488281 C186.645505,17.7246103 186.182619,17.9707015 185.760742,18.2871094 C185.420897,18.5449232 185.13672,18.8232407 184.908203,19.1220703 C184.679686,19.4208999 184.506837,19.6699209 184.389648,19.8691406 L184.389648,29.8710938 C184.389648,30.2812521 184.45996,30.6181627 184.600586,30.8818359 C184.741212,31.1455091 184.981444,31.3476555 185.321289,31.4882812 C185.590822,31.5937505 185.833983,31.6728513 186.050781,31.7255859 C186.267579,31.7783206 186.551756,31.8164061 186.90332,31.8398438 L186.90332,33 L178.624023,33 L178.624023,31.8398438 C178.893556,31.8164061 179.154296,31.7929689 179.40625,31.7695312 C179.658204,31.7460936 179.889647,31.6992191 180.100586,31.6289062 C180.428713,31.523437 180.671874,31.3388685 180.830078,31.0751953 C180.988282,30.8115221 181.067383,30.4687521 181.067383,30.046875 L181.067383,21.0996094 C181.067383,19.8808533 180.789065,18.940433 180.232422,18.2783203 C179.675778,17.6162076 178.981449,17.2851562 178.149414,17.2851562 C177.575192,17.2851562 177.036135,17.3759757 176.532227,17.5576172 C176.028318,17.7392587 175.565432,17.9882797 175.143555,18.3046875 C174.803709,18.5625013 174.516603,18.8525375 174.282227,19.1748047 C174.04785,19.4970719 173.872071,19.7402336 173.754883,19.9042969 L173.754883,29.8359375 C173.754883,30.234377 173.836913,30.568358 174.000977,30.8378906 C174.16504,31.1074232 174.411131,31.3124993 174.739258,31.453125 C174.985353,31.5703131 175.237303,31.6582028 175.495117,31.7167969 C175.752931,31.7753909 176.040037,31.8164061 176.356445,31.8398438 L176.356445,33 L167.936523,33 L167.936523,31.8398438 C168.206056,31.8164061 168.484374,31.7929689 168.771484,31.7695312 C169.058595,31.7460936 169.307616,31.6992191 169.518555,31.6289062 C169.846681,31.523437 170.089843,31.3388685 170.248047,31.0751953 C170.406251,30.8115221 170.485352,30.4687521 170.485352,30.046875 L170.485352,19.2714844 C170.485352,18.8964825 170.400391,18.5595718 170.230469,18.2607422 C170.060546,17.9619126 169.823244,17.7070323 169.518555,17.4960938 C169.295897,17.355468 169.020509,17.2412114 168.692383,17.1533203 C168.364256,17.0654292 168.024416,17.0097657 167.672852,16.9863281 L167.672852,15.84375 L173.473633,15.4570312 L173.719727,15.703125 L173.719727,18.1816406 L173.842773,18.1816406 C174.135744,17.8886704 174.493162,17.5429707 174.915039,17.1445312 C175.336916,16.7460918 175.72949,16.4238294 176.092773,16.1777344 C176.502932,15.896483 177.015622,15.6621103 177.630859,15.4746094 C178.246097,15.2871084 178.911129,15.1933594 179.625977,15.1933594 C180.750982,15.1933594 181.717769,15.4951142 182.526367,16.0986328 C183.334965,16.7021515 183.915037,17.4316363 184.266602,18.2871094 C184.688479,17.8769511 185.060545,17.5166031 185.382812,17.2060547 C185.70508,16.8955063 186.12988,16.5644549 186.657227,16.2128906 C187.102541,15.9082016 187.62695,15.6621103 188.230469,15.4746094 C188.833987,15.2871084 189.504879,15.1933594 190.243164,15.1933594 C191.708015,15.1933594 192.86816,15.6738233 193.723633,16.6347656 C194.579106,17.5957079 195.006836,19.0722557 195.006836,21.0644531 L195.006836,29.8710938 C195.006836,30.2812521 195.077148,30.6181627 195.217773,30.8818359 C195.358399,31.1455091 195.598631,31.3476555 195.938477,31.4882812 C196.208009,31.5937505 196.474608,31.6728513 196.738281,31.7255859 C197.001954,31.7783206 197.29785,31.8164061 197.625977,31.8398438 L197.625977,33 Z M209.825195,22.5234375 C209.825195,27.3047114 208.914072,31.1074078 207.091797,33.9316406 C205.269522,36.7558735 202.758805,38.3671855 199.55957,38.765625 L199.55957,37.3242188 C201.856457,36.9023416 203.579096,35.4521608 204.727539,32.9736328 C205.875982,30.4951048 206.450195,27.0234598 206.450195,22.5585938 C206.450195,17.8710703 205.864264,14.2968873 204.692383,11.8359375 C203.520502,9.3749877 201.809582,7.93945518 199.55957,7.52929688 L199.55957,6.0703125 C202.758805,6.49218961 205.269522,8.12400923 207.091797,10.9658203 C208.914072,13.8076314 209.825195,17.6601319 209.825195,22.5234375 Z" id="S-=-pk×H(m)" fill="#000000"></path>
                <path d="M9.82,51.9 C9.7133328,50.8733282 9.3433365,50.1300023 8.71,49.67 C8.0766635,49.2099977 7.2666716,48.98 6.28,48.98 C5.879998,48.98 5.4866686,49.0199996 5.1,49.1 C4.7133314,49.1800004 4.3700015,49.3133324 4.07,49.5 C3.7699985,49.6866676 3.5300009,49.9366651 3.35,50.25 C3.1699991,50.5633349 3.08,50.953331 3.08,51.42 C3.08,51.8600022 3.2099987,52.2166653 3.47,52.49 C3.7300013,52.7633347 4.0766645,52.9866658 4.51,53.16 C4.9433355,53.3333342 5.4333306,53.4766661 5.98,53.59 C6.5266694,53.7033339 7.0833305,53.826666 7.65,53.96 C8.2166695,54.093334 8.7733306,54.2499991 9.32,54.43 C9.8666694,54.6100009 10.3566645,54.8533318 10.79,55.16 C11.2233355,55.4666682 11.5699987,55.853331 11.83,56.32 C12.0900013,56.786669 12.22,57.3733298 12.22,58.08 C12.22,58.8400038 12.0500017,59.4899973 11.71,60.03 C11.3699983,60.5700027 10.933336,61.0099983 10.4,61.35 C9.866664,61.6900017 9.2700033,61.9366659 8.61,62.09 C7.9499967,62.2433341 7.2933366,62.32 6.64,62.32 C5.839996,62.32 5.0833369,62.220001 4.37,62.02 C3.6566631,61.819999 3.0300027,61.5166687 2.49,61.11 C1.9499973,60.7033313 1.5233349,60.1833365 1.21,59.55 C0.8966651,58.9166635 0.74,58.166671 0.74,57.3 L2.54,57.3 C2.54,57.900003 2.6566655,58.4166645 2.89,58.85 C3.1233345,59.2833355 3.4299981,59.6399986 3.81,59.92 C4.1900019,60.2000014 4.6333308,60.406666 5.14,60.54 C5.6466692,60.673334 6.166664,60.74 6.7,60.74 C7.1266688,60.74 7.5566645,60.7000004 7.99,60.62 C8.4233355,60.5399996 8.8133316,60.4033343 9.16,60.21 C9.5066684,60.0166657 9.7866656,59.753335 10,59.42 C10.2133344,59.086665 10.32,58.6600026 10.32,58.14 C10.32,57.6466642 10.1900013,57.2466682 9.93,56.94 C9.6699987,56.6333318 9.3233355,56.3833343 8.89,56.19 C8.4566645,55.9966657 7.9666694,55.8400006 7.42,55.72 C6.8733306,55.5999994 6.3166695,55.4766673 5.75,55.35 C5.1833305,55.2233327 4.6266694,55.0766675 4.08,54.91 C3.5333306,54.7433325 3.0433355,54.5233347 2.61,54.25 C2.1766645,53.9766653 1.8300013,53.6233355 1.57,53.19 C1.3099987,52.7566645 1.18,52.2133366 1.18,51.56 C1.18,50.8399964 1.3266652,50.2166693 1.62,49.69 C1.9133348,49.1633307 2.3033309,48.7300017 2.79,48.39 C3.2766691,48.0499983 3.8299969,47.7966675 4.45,47.63 C5.0700031,47.4633325 5.7066634,47.38 6.36,47.38 C7.093337,47.38 7.7733302,47.4666658 8.4,47.64 C9.0266698,47.8133342 9.5766643,48.0866648 10.05,48.46 C10.5233357,48.8333352 10.8966653,49.3033305 11.17,49.87 C11.4433347,50.4366695 11.5933332,51.1133294 11.62,51.9 L9.82,51.9 Z M16.04,49.8 L14.34,49.8 L14.34,47.72 L16.04,47.72 L16.04,49.8 Z M14.34,51.66 L16.04,51.66 L16.04,62 L14.34,62 L14.34,51.66 Z M27.6,61.12 C27.6,62.8133418 27.2133372,64.0799958 26.44,64.92 C25.6666628,65.7600042 24.4533416,66.18 22.8,66.18 C22.3199976,66.18 21.8300025,66.1266672 21.33,66.02 C20.8299975,65.9133328 20.3766687,65.7400012 19.97,65.5 C19.5633313,65.2599988 19.226668,64.9466686 18.96,64.56 C18.693332,64.1733314 18.5466668,63.7000028 18.52,63.14 L20.22,63.14 C20.2333334,63.4466682 20.3299991,63.7066656 20.51,63.92 C20.6900009,64.1333344 20.9099987,64.306666 21.17,64.44 C21.4300013,64.573334 21.7133318,64.6699997 22.02,64.73 C22.3266682,64.7900003 22.6199986,64.82 22.9,64.82 C23.4600028,64.82 23.9333314,64.7233343 24.32,64.53 C24.7066686,64.3366657 25.0266654,64.0700017 25.28,63.73 C25.5333346,63.3899983 25.7166661,62.9800024 25.83,62.5 C25.9433339,62.0199976 26,61.4933362 26,60.92 L26,60.24 L25.96,60.24 C25.6666652,60.8800032 25.2233363,61.3499985 24.63,61.65 C24.0366637,61.9500015 23.40667,62.1 22.74,62.1 C21.9666628,62.1 21.2933362,61.9600014 20.72,61.68 C20.1466638,61.3999986 19.6666686,61.0233357 19.28,60.55 C18.8933314,60.0766643 18.6033343,59.5233365 18.41,58.89 C18.2166657,58.2566635 18.12,57.5866702 18.12,56.88 C18.12,56.2666636 18.1999992,55.6366699 18.36,54.99 C18.5200008,54.3433301 18.7866648,53.7566693 19.16,53.23 C19.5333352,52.7033307 20.0266636,52.2700017 20.64,51.93 C21.2533364,51.5899983 22.0066622,51.42 22.9,51.42 C23.5533366,51.42 24.1533306,51.5633319 24.7,51.85 C25.2466694,52.1366681 25.6733318,52.5666638 25.98,53.14 L26,53.14 L26,51.66 L27.6,51.66 L27.6,61.12 Z M22.84,60.62 C23.4000028,60.62 23.8766647,60.5033345 24.27,60.27 C24.6633353,60.0366655 24.9799988,59.7300019 25.22,59.35 C25.4600012,58.9699981 25.6366661,58.5400024 25.75,58.06 C25.8633339,57.5799976 25.92,57.1000024 25.92,56.62 C25.92,56.1666644 25.8666672,55.7200022 25.76,55.28 C25.6533328,54.8399978 25.4833345,54.4433351 25.25,54.09 C25.0166655,53.7366649 24.7133352,53.4533344 24.34,53.24 C23.9666648,53.0266656 23.513336,52.92 22.98,52.92 C22.4333306,52.92 21.9666686,53.0233323 21.58,53.23 C21.1933314,53.4366677 20.8766679,53.7133316 20.63,54.06 C20.3833321,54.4066684 20.2033339,54.8066644 20.09,55.26 C19.9766661,55.7133356 19.92,56.1866642 19.92,56.68 C19.92,57.146669 19.9666662,57.613331 20.06,58.08 C20.1533338,58.546669 20.3133322,58.9699981 20.54,59.35 C20.7666678,59.7300019 21.0666648,60.0366655 21.44,60.27 C21.8133352,60.5033345 22.2799972,60.62 22.84,60.62 Z M30.16,51.66 L31.76,51.66 L31.76,53.3 L31.8,53.3 C32.5066702,52.0466604 33.626659,51.42 35.16,51.42 C35.8400034,51.42 36.4066644,51.5133324 36.86,51.7 C37.3133356,51.8866676 37.6799986,52.146665 37.96,52.48 C38.2400014,52.813335 38.4366661,53.2099977 38.55,53.67 C38.6633339,54.1300023 38.72,54.6399972 38.72,55.2 L38.72,62 L37.02,62 L37.02,55 C37.02,54.3599968 36.8333352,53.8533352 36.46,53.48 C36.0866648,53.1066648 35.5733366,52.92 34.92,52.92 C34.3999974,52.92 33.9500019,52.9999992 33.57,53.16 C33.1899981,53.3200008 32.8733346,53.5466652 32.62,53.84 C32.3666654,54.1333348 32.1766673,54.4766647 32.05,54.87 C31.9233327,55.2633353 31.86,55.693331 31.86,56.16 L31.86,62 L30.16,62 L30.16,51.66 Z M50.44,61.96 C50.1466652,62.1333342 49.7400026,62.22 49.22,62.22 C48.7799978,62.22 48.4300013,62.0966679 48.17,61.85 C47.9099987,61.6033321 47.78,61.2000028 47.78,60.64 C47.313331,61.2000028 46.7700031,61.6033321 46.15,61.85 C45.5299969,62.0966679 44.8600036,62.22 44.14,62.22 C43.673331,62.22 43.2300021,62.1666672 42.81,62.06 C42.3899979,61.9533328 42.0266682,61.7866678 41.72,61.56 C41.4133318,61.3333322 41.1700009,61.0366685 40.99,60.67 C40.8099991,60.3033315 40.72,59.8600026 40.72,59.34 C40.72,58.7533304 40.819999,58.2733352 41.02,57.9 C41.220001,57.5266648 41.4833317,57.2233345 41.81,56.99 C42.1366683,56.7566655 42.5099979,56.5800006 42.93,56.46 C43.3500021,56.3399994 43.7799978,56.2400004 44.22,56.16 C44.686669,56.0666662 45.1299979,55.9966669 45.55,55.95 C45.9700021,55.9033331 46.3399984,55.8366671 46.66,55.75 C46.9800016,55.6633329 47.2333324,55.5366675 47.42,55.37 C47.6066676,55.2033325 47.7,54.9600016 47.7,54.64 C47.7,54.2666648 47.6300007,53.9666678 47.49,53.74 C47.3499993,53.5133322 47.1700011,53.3400006 46.95,53.22 C46.7299989,53.0999994 46.4833347,53.0200002 46.21,52.98 C45.9366653,52.9399998 45.666668,52.92 45.4,52.92 C44.6799964,52.92 44.0800024,53.0566653 43.6,53.33 C43.1199976,53.6033347 42.8600002,54.1199962 42.82,54.88 L41.12,54.88 C41.1466668,54.2399968 41.2799988,53.7000022 41.52,53.26 C41.7600012,52.8199978 42.079998,52.4633347 42.48,52.19 C42.880002,51.9166653 43.3366641,51.7200006 43.85,51.6 C44.3633359,51.4799994 44.9133304,51.42 45.5,51.42 C45.966669,51.42 46.4299977,51.453333 46.89,51.52 C47.3500023,51.586667 47.7666648,51.7233323 48.14,51.93 C48.5133352,52.1366677 48.8133322,52.4266648 49.04,52.8 C49.2666678,53.1733352 49.38,53.659997 49.38,54.26 L49.38,59.58 C49.38,59.980002 49.4033331,60.2733324 49.45,60.46 C49.4966669,60.6466676 49.653332,60.74 49.92,60.74 C50.0666674,60.74 50.239999,60.706667 50.44,60.64 L50.44,61.96 Z M47.68,56.66 C47.4666656,56.8200008 47.1866684,56.9366663 46.84,57.01 C46.4933316,57.0833337 46.1300019,57.1433331 45.75,57.19 C45.3699981,57.2366669 44.9866686,57.2899997 44.6,57.35 C44.2133314,57.4100003 43.8666682,57.506666 43.56,57.64 C43.2533318,57.773334 43.0033343,57.9633321 42.81,58.21 C42.6166657,58.4566679 42.52,58.7933312 42.52,59.22 C42.52,59.5000014 42.5766661,59.7366657 42.69,59.93 C42.8033339,60.1233343 42.9499991,60.2799994 43.13,60.4 C43.3100009,60.5200006 43.5199988,60.6066664 43.76,60.66 C44.0000012,60.7133336 44.253332,60.74 44.52,60.74 C45.0800028,60.74 45.559998,60.6633341 45.96,60.51 C46.360002,60.3566659 46.6866654,60.1633345 46.94,59.93 C47.1933346,59.6966655 47.3799994,59.4433347 47.5,59.17 C47.6200006,58.8966653 47.68,58.6400012 47.68,58.4 L47.68,56.66 Z M54.38,51.66 L56.44,51.66 L56.44,53.16 L54.38,53.16 L54.38,59.58 C54.38,59.780001 54.3966665,59.9399994 54.43,60.06 C54.4633335,60.1800006 54.5266662,60.273333 54.62,60.34 C54.7133338,60.406667 54.8433325,60.4499999 55.01,60.47 C55.1766675,60.4900001 55.393332,60.5 55.66,60.5 L56.44,60.5 L56.44,62 L55.14,62 C54.6999978,62 54.3233349,61.9700003 54.01,61.91 C53.6966651,61.8499997 53.4433343,61.7400008 53.25,61.58 C53.0566657,61.4199992 52.9133338,61.1933348 52.82,60.9 C52.7266662,60.6066652 52.68,60.2200024 52.68,59.74 L52.68,53.16 L50.92,53.16 L50.92,51.66 L52.68,51.66 L52.68,48.56 L54.38,48.56 L54.38,51.66 Z M66.88,62 L65.28,62 L65.28,60.36 L65.24,60.36 C64.8799982,61.0000032 64.4200028,61.4699985 63.86,61.77 C63.2999972,62.0700015 62.6400038,62.22 61.88,62.22 C61.1999966,62.22 60.6333356,62.1300009 60.18,61.95 C59.7266644,61.7699991 59.3600014,61.513335 59.08,61.18 C58.7999986,60.846665 58.6033339,60.4500023 58.49,59.99 C58.3766661,59.5299977 58.32,59.0200028 58.32,58.46 L58.32,51.66 L60.02,51.66 L60.02,58.66 C60.02,59.3000032 60.2066648,59.8066648 60.58,60.18 C60.9533352,60.5533352 61.4666634,60.74 62.12,60.74 C62.6400026,60.74 63.0899981,60.6600008 63.47,60.5 C63.8500019,60.3399992 64.1666654,60.1133348 64.42,59.82 C64.6733346,59.5266652 64.8633327,59.1833353 64.99,58.79 C65.1166673,58.3966647 65.18,57.966669 65.18,57.5 L65.18,51.66 L66.88,51.66 L66.88,62 Z M69.38,51.66 L70.98,51.66 L70.98,53.84 L71.02,53.84 C71.4333354,52.9999958 71.939997,52.380002 72.54,51.98 C73.140003,51.579998 73.8999954,51.3933332 74.82,51.42 L74.82,53.22 C74.1399966,53.22 73.5600024,53.3133324 73.08,53.5 C72.5999976,53.6866676 72.2133348,53.9599982 71.92,54.32 C71.6266652,54.6800018 71.413334,55.1166641 71.28,55.63 C71.146666,56.1433359 71.08,56.73333 71.08,57.4 L71.08,62 L69.38,62 L69.38,51.66 Z M82.92,55.84 C82.8933332,55.439998 82.8033341,55.0600018 82.65,54.7 C82.4966659,54.3399982 82.2900013,54.0300013 82.03,53.77 C81.7699987,53.5099987 81.4633351,53.3033341 81.11,53.15 C80.7566649,52.9966659 80.3666688,52.92 79.94,52.92 C79.4999978,52.92 79.1033351,52.9966659 78.75,53.15 C78.3966649,53.3033341 78.0933346,53.513332 77.84,53.78 C77.5866654,54.046668 77.3866674,54.3566649 77.24,54.71 C77.0933326,55.0633351 77.0066668,55.439998 76.98,55.84 L82.92,55.84 Z M84.56,58.72 C84.3333322,59.8800058 83.8333372,60.7533304 83.06,61.34 C82.2866628,61.9266696 81.3133392,62.22 80.14,62.22 C79.3133292,62.22 78.5966697,62.086668 77.99,61.82 C77.3833303,61.553332 76.8733354,61.1800024 76.46,60.7 C76.0466646,60.2199976 75.7366677,59.64667 75.53,58.98 C75.3233323,58.31333 75.2066668,57.5866706 75.18,56.8 C75.18,56.0133294 75.2999988,55.2933366 75.54,54.64 C75.7800012,53.9866634 76.1166645,53.4200024 76.55,52.94 C76.9833355,52.4599976 77.4966637,52.086668 78.09,51.82 C78.6833363,51.553332 79.3333298,51.42 80.04,51.42 C80.9600046,51.42 81.7233303,51.6099981 82.33,51.99 C82.9366697,52.3700019 83.4233315,52.8533304 83.79,53.44 C84.1566685,54.0266696 84.4099993,54.6666632 84.55,55.36 C84.6900007,56.0533368 84.7466668,56.7133302 84.72,57.34 L76.98,57.34 C76.9666666,57.7933356 77.0199994,58.2233313 77.14,58.63 C77.2600006,59.0366687 77.453332,59.3966651 77.72,59.71 C77.986668,60.0233349 78.3266646,60.2733324 78.74,60.46 C79.1533354,60.6466676 79.6399972,60.74 80.2,60.74 C80.9200036,60.74 81.5099977,60.573335 81.97,60.24 C82.4300023,59.906665 82.7333326,59.4000034 82.88,58.72 L84.56,58.72 Z" id="Signature" fill="#9B9B9B"></path>
            </g>
            <circle id="Oval" stroke="#C10001" stroke-width="3" fill="#D0021B" cx="457" cy="336" r="6"></circle>
            <circle id="Oval" stroke="#267AC6" stroke-width="3" fill="#4A90E2" cx="297" cy="287" r="6"></circle>
            <path id="Path-3" d="M409.570987,353.582013 C358.005555,361.004066 321.149242,344.684919 299.562286,304.703434 L303.961953,302.327949 C324.449329,340.272887 359.110056,355.698958 408.49999,348.684409 L405.975146,337.138735 L437.403342,345.108583 L412.170546,365.469231 L409.571012,353.58201 Z" fill="#D0021B" fill-rule="nonzero"></path>
        </g>
    </g>
</svg>