<?xml version="1.0" encoding="UTF-8"?>
<svg width="990px" height="995px" viewBox="0 0 990 995" version="1.1" xmlns="http://www.w3.org/2000/svg" xmlns:xlink="http://www.w3.org/1999/xlink">
    <!-- Generator: Sketch 52.6 (67491) - http://www.bohemiancoding.com/sketch -->
    <title>Group 2</title>
    <desc>Created with Sketch.</desc>
    <g id="ECC" stroke="none" stroke-width="1" fill="none" fill-rule="evenodd">
        <g id="Group-2" transform="translate(0.000000, 3.000000)">
            <g id="Group">
                <polyline id="Shape" stroke="#000000" stroke-width="4" stroke-linecap="square" points="45.727273 494.399999 46.5895291 488.783012 47.4517853 486.481177 48.3140414 484.731801 50.0385537 481.996617 51.7630659 479.816455 53.4875782 477.968278 56.0743466 475.606702 58.661115 473.589456 61.2478834 471.822575 64.6969079 469.761675 68.1459324 467.963483 72.4572131 466.005488 76.7684938 464.306413 81.0797744 462.819551 86.2533112 461.268909 91.4268489 459.933508 97.4626418 458.605704 103.498435 457.489523 110.396484 456.434919 118.156789 455.488284 126.77935 454.686685 136.264168 454.055946 146.611242 453.608183 158.682828 453.324958 174.203438 453.205164 212.142709 453.025441 224.214295 452.696271 234.561369 452.206206 244.046186 451.549241 253.531003 450.664037 262.153566 449.641699 270.776127 448.398608 279.398688 446.926115 288.02125 445.21974 296.643811 443.278768 305.266372 441.105683 313.888934 438.705501 322.511496 436.085108 331.996313 432.958061 341.481131 429.586218 350.965948 425.98177 360.450766 422.1568 370.79784 417.746271 381.144914 413.101384 392.354243 407.820191 403.563573 402.294606 414.772903 396.538327 426.844489 390.095297 438.916075 383.412537 451.849917 376.000072 464.783759 368.339297 478.579858 359.907062 492.375956 351.217702 506.172054 342.282057 520.830409 332.528801 535.488764 322.518562 550.147118 312.260431 565.667728 301.137717 581.188339 289.754871 596.70895 278.119697 613.091817 265.572181 629.474683 252.758939 645.85755 239.686852 663.102673 225.65404 680.347796 211.348143 697.592918 196.775379 715.700298 181.193048 733.807677 165.329007 751.915056 149.188997 770.022435 132.778373 788.99207 115.3015 807.961705 97.538537 826.931341 79.494566 845.900976 61.174375 865.732868 41.731019 885.564759 21.995595 905.39665 1.972737 907.121162 0.218182"></polyline>
                <polyline id="Shape" stroke="#000000" stroke-width="4" stroke-linecap="square" points="45.727273 494.400001 46.5895291 500.016988 47.4517853 502.318823 48.3140414 504.068199 50.0385537 506.803383 51.7630659 508.983545 53.4875782 510.831722 56.0743466 513.193298 58.661115 515.210544 61.2478834 516.977425 64.6969079 519.038325 68.1459324 520.836517 72.4572131 522.794512 76.7684938 524.493587 81.0797744 525.980449 86.2533112 527.531091 91.4268489 528.866492 97.4626418 530.194296 103.498435 531.310477 110.396484 532.365081 118.156789 533.311716 126.77935 534.113315 136.264168 534.744054 146.611242 535.191817 158.682828 535.475042 174.203438 535.594836 212.142709 535.774559 224.214295 536.103729 234.561369 536.593794 244.046186 537.250759 253.531003 538.135963 262.153566 539.158301 270.776127 540.401392 279.398688 541.873885 288.02125 543.58026 296.643811 545.521232 305.266372 547.694317 313.888934 550.094499 322.511496 552.714892 331.996313 555.841939 341.481131 559.213782 350.965948 562.81823 360.450766 566.6432 370.79784 571.053729 381.144914 575.698616 392.354243 580.979809 403.563573 586.505394 414.772903 592.261673 426.844489 598.704703 438.916075 605.387463 451.849917 612.799928 464.783759 620.460703 478.579858 628.892938 492.375956 637.582298 506.172054 646.517943 520.830409 656.271199 535.488764 666.281438 550.147118 676.539569 565.667728 687.662283 581.188339 699.045129 596.70895 710.680303 613.091817 723.227819 629.474683 736.041061 645.85755 749.113148 663.102673 763.14596 680.347796 777.451857 697.592918 792.024621 715.700298 807.606952 733.807677 823.470993 751.915056 839.611003 770.022435 856.021627 788.99207 873.4985 807.961705 891.261463 826.931341 909.305434 845.900976 927.625625 865.732868 947.068981 885.564759 966.804405 905.39665 986.827263 907.121162 988.581818 907.121162 988.581818"></polyline>
                <path d="M426.516597,301.6991 C426.516597,301.11316 426.677728,300.635626 426.999995,300.266483 C427.322262,299.897341 427.723626,299.712772 428.204097,299.712772 C428.579099,299.712772 428.901361,299.783084 429.170894,299.92371 C429.440426,300.064335 429.680658,300.245974 429.891597,300.468632 C430.067379,300.644414 430.254877,300.884646 430.454097,301.189335 C430.653316,301.494024 430.811518,301.745974 430.928706,301.945194 C431.514647,301.628786 432.214835,300.802623 433.029292,299.466678 C433.843749,298.130734 434.432611,296.958871 434.795894,295.951053 C433.682607,293.173696 432.674804,290.689346 431.772456,288.497928 C430.870108,286.306511 429.926758,284.038956 428.942378,281.695194 C428.719721,281.156129 428.344724,280.737188 427.817378,280.438358 C427.290032,280.139529 426.762693,279.949101 426.235347,279.867069 L426.235347,278.706913 L434.145503,278.706913 L434.145503,279.937382 C433.793939,279.9491 433.372068,280.022342 432.879878,280.157108 C432.387688,280.291874 432.141597,280.447146 432.141597,280.622928 C432.141597,280.693241 432.167964,280.810428 432.220698,280.974491 C432.273433,281.138554 432.334956,281.308474 432.405269,281.484257 C432.850583,282.644419 433.530264,284.317254 434.444331,286.502811 C435.358398,288.688369 436.067375,290.437375 436.571284,291.749882 C437.098631,290.495969 437.646477,289.198131 438.214839,287.856327 C438.783201,286.514523 439.418937,284.929578 440.122065,283.101444 C440.204097,282.878787 440.321283,282.571173 440.473628,282.178593 C440.625972,281.786012 440.702144,281.449102 440.702144,281.16785 C440.702144,280.863161 440.435545,280.578984 439.902339,280.315311 C439.369133,280.051638 438.862302,279.890507 438.381831,279.831913 L438.381831,278.706913 L444.815425,278.706913 L444.815425,279.796757 C444.463861,279.855351 444.000975,280.057497 443.426753,280.403202 C442.852531,280.748907 442.424801,281.23816 442.14355,281.870975 C440.749012,285.105367 439.509766,288.052603 438.425776,290.712772 C437.341787,293.372942 436.518553,295.329953 435.95605,296.583866 C435.217765,298.224499 434.558592,299.50476 433.978511,300.424686 C433.39843,301.344613 432.833006,302.068238 432.282222,302.595585 C431.743157,303.087775 431.253904,303.418826 430.814448,303.588749 C430.374993,303.758672 429.920896,303.843632 429.452144,303.843632 C428.538077,303.843632 427.82031,303.626837 427.298823,303.193241 C426.777336,302.759645 426.516597,302.261603 426.516597,301.6991 Z M464.08105,282.046757 L461.532222,282.046757 L455.889644,272.835819 L450.194331,282.046757 L447.645503,282.046757 L454.88769,270.445194 L456.874019,270.445194 L464.08105,282.046757 Z M485.842769,296.038944 L469.372065,296.038944 L469.372065,293.648319 C469.688473,293.285036 470.127922,292.877814 470.690425,292.426639 C471.252928,291.975465 471.92089,291.486212 472.694331,290.958866 C473.163083,290.642458 473.725578,290.296758 474.381831,289.921757 C475.038084,289.546755 475.782218,289.136603 476.614253,288.691288 C477.540039,288.199098 478.251946,287.765508 478.749995,287.390507 C479.248045,287.015505 479.702142,286.552619 480.1123,286.001835 C480.381832,285.638552 480.598627,285.184455 480.76269,284.63953 C480.926754,284.094605 481.008784,283.318246 481.008784,282.310428 C481.008784,280.845577 480.61621,279.770393 479.83105,279.084843 C479.04589,278.399292 478.038087,278.056522 476.807612,278.056522 C476.04589,278.056522 475.325194,278.205935 474.645503,278.504764 C473.965812,278.803594 473.456052,279.216676 473.116206,279.744022 C473.198238,280.119024 473.300776,280.564332 473.423823,281.07996 C473.546871,281.595587 473.608394,282.099489 473.608394,282.591678 C473.608394,283.036993 473.423825,283.432497 473.054683,283.778202 C472.68554,284.123907 472.137694,284.296757 471.411128,284.296757 C470.825188,284.296757 470.37402,284.09461 470.057612,283.690311 C469.741205,283.286012 469.583003,282.744026 469.583003,282.064335 C469.583003,281.431519 469.758782,280.795783 470.110347,280.157108 C470.461911,279.518433 470.965812,278.929572 471.622065,278.390507 C472.2666,277.86316 473.063467,277.43543 474.01269,277.107303 C474.961914,276.779177 475.987294,276.615116 477.088862,276.615116 C479.491218,276.615116 481.398426,277.151243 482.810542,278.223514 C484.222658,279.295785 484.928706,280.728388 484.928706,282.521366 C484.928706,283.376839 484.802731,284.156128 484.550776,284.859257 C484.298822,285.562385 483.8916,286.183473 483.329097,286.722538 C482.708,287.320197 481.981445,287.832887 481.149409,288.260624 C480.317374,288.68836 479.045902,289.283081 477.334956,290.044803 C476.31542,290.501837 475.36621,290.979371 474.4873,291.477421 C473.608389,291.97547 472.887693,292.458864 472.32519,292.927616 L485.842769,292.927616 L485.842769,296.038944 Z M516.6748,284.033085 L498.938472,284.033085 L498.938472,281.835819 L516.6748,281.835819 L516.6748,284.033085 Z M516.6748,290.572147 L498.938472,290.572147 L498.938472,288.374882 L516.6748,288.374882 L516.6748,290.572147 Z M546.030269,296.038944 L538.084956,296.038944 L538.084956,294.878788 C538.612302,294.820194 539.06054,294.761601 539.429683,294.703007 C539.798825,294.644413 539.983394,294.49207 539.983394,294.245975 C539.983394,294.140506 539.9248,293.976445 539.807612,293.753788 C539.690424,293.531131 539.573238,293.326054 539.45605,293.138553 C539.16308,292.68152 538.761716,292.069221 538.251948,291.301639 C537.74218,290.534057 537.118163,289.617074 536.379878,288.550663 C535.7705,289.312385 535.208006,290.053589 534.692378,290.774296 C534.17675,291.495002 533.637693,292.259643 533.07519,293.068241 C532.993159,293.185429 532.908199,293.331912 532.820308,293.507694 C532.732417,293.683476 532.688472,293.8241 532.688472,293.929569 C532.688472,294.187383 532.855462,294.401248 533.189448,294.571171 C533.523434,294.741093 534.024406,294.85535 534.692378,294.913944 L534.692378,296.038944 L528.276362,296.038944 L528.276362,294.9491 C529.073241,294.714724 529.714836,294.430547 530.201167,294.096561 C530.687498,293.762575 531.135735,293.349493 531.545894,292.857303 C531.909177,292.388551 532.416008,291.744026 533.066401,290.92371 C533.716795,290.103393 534.557607,288.990123 535.588862,287.583866 C534.991203,286.728393 534.261718,285.682505 533.400386,284.446171 C532.539053,283.209836 531.827146,282.181526 531.264644,281.36121 C530.959955,280.915895 530.611325,280.555547 530.218745,280.280155 C529.826165,280.004763 529.27246,279.867069 528.557612,279.867069 L528.557612,278.706913 L536.098628,278.706913 L536.098628,279.867069 C535.723626,279.867069 535.354489,279.890506 534.991206,279.937382 C534.627923,279.984257 534.446284,280.089725 534.446284,280.253788 C534.446284,280.359257 534.48144,280.476443 534.551753,280.60535 C534.622066,280.734257 534.709956,280.874881 534.815425,281.027225 C535.073239,281.425665 535.474602,282.040893 536.019526,282.872928 C536.564451,283.704964 537.153312,284.583861 537.786128,285.509647 C538.196286,284.947144 538.673821,284.290901 539.218745,283.540897 C539.76367,282.790893 540.264641,282.076057 540.721675,281.396366 C540.76855,281.314334 540.815425,281.211796 540.8623,281.088749 C540.909175,280.965701 540.932612,280.845585 540.932612,280.728397 C540.932612,280.482302 540.730466,280.286015 540.326167,280.13953 C539.921868,279.993045 539.538083,279.890507 539.1748,279.831913 L539.1748,278.706913 L545.573237,278.706913 L545.573237,279.796757 C544.670889,280.031133 543.967771,280.30945 543.463862,280.631718 C542.959954,280.953985 542.532223,281.326051 542.180659,281.747928 C541.793939,282.2284 541.333982,282.820191 540.800776,283.523319 C540.267571,284.226448 539.520508,285.210813 538.559565,286.476444 C539.625977,287.976452 540.493156,289.206908 541.161128,290.16785 C541.8291,291.128793 542.502921,292.119017 543.182612,293.138553 C543.522458,293.654181 543.900384,294.061404 544.316401,294.360233 C544.732419,294.659063 545.303702,294.831913 546.030269,294.878788 L546.030269,296.038944 Z M566.034175,282.046757 L563.485347,282.046757 L557.842769,272.835819 L552.147456,282.046757 L549.598628,282.046757 L556.840815,270.445194 L558.827144,270.445194 L566.034175,282.046757 Z M577.952144,302.45496 C576.850576,302.45496 575.842773,302.317266 574.928706,302.041874 C574.014639,301.766482 573.229491,301.394415 572.573237,300.925663 C571.916984,300.456911 571.410153,299.917853 571.05273,299.308475 C570.695306,298.699097 570.516597,298.07215 570.516597,297.427616 C570.516597,296.853394 570.65722,296.334845 570.938472,295.871952 C571.219723,295.409059 571.67089,295.177616 572.291987,295.177616 C572.995116,295.177616 573.531243,295.350466 573.900386,295.696171 C574.269528,296.041876 574.454097,296.437379 574.454097,296.882694 C574.454097,297.257696 574.392574,297.732301 574.269526,298.306522 C574.146479,298.880744 574.0498,299.290896 573.979487,299.536991 C574.061519,299.64246 574.210932,299.783084 574.42773,299.958866 C574.644527,300.134648 574.911126,300.29285 575.227534,300.433475 C575.602536,300.609257 575.99511,300.749881 576.405269,300.85535 C576.815427,300.96082 577.395499,301.013553 578.145503,301.013553 C578.848631,301.013553 579.525383,300.896367 580.175776,300.661991 C580.82617,300.427615 581.397454,300.052619 581.889644,299.536991 C582.405271,298.997926 582.806634,298.368049 583.093745,297.647343 C583.380856,296.926636 583.524409,295.980356 583.524409,294.808475 C583.524409,294.17566 583.457027,293.548713 583.322261,292.927616 C583.187494,292.306519 582.938474,291.767462 582.57519,291.310428 C582.211907,290.853395 581.716795,290.498906 581.089839,290.246952 C580.462883,289.994998 579.668945,289.869022 578.708003,289.869022 L576.405269,289.869022 L576.405269,287.847538 L577.934565,287.847538 C579.551761,287.847538 580.717765,287.40223 581.432612,286.5116 C582.14746,285.620971 582.504878,284.279187 582.504878,282.48621 C582.504878,281.021359 582.159178,279.916878 581.467769,279.172733 C580.776359,278.428589 579.797853,278.056522 578.532222,278.056522 C577.922844,278.056522 577.421872,278.129764 577.029292,278.276249 C576.636712,278.422734 576.317379,278.566287 576.071284,278.706913 C575.778314,278.870976 575.538082,279.052615 575.350581,279.251835 C575.16308,279.451054 575.022457,279.597537 574.928706,279.691288 C575.010738,280.06629 575.110346,280.526246 575.227534,281.071171 C575.344722,281.616095 575.403315,282.134645 575.403315,282.626835 C575.403315,283.060431 575.218747,283.450075 574.849605,283.79578 C574.480462,284.141485 573.938475,284.314335 573.223628,284.314335 C572.602531,284.314335 572.148434,284.091681 571.861323,283.646366 C571.574212,283.201051 571.430659,282.685431 571.430659,282.099491 C571.430659,281.490113 571.600579,280.869025 571.940425,280.23621 C572.28027,279.603394 572.784172,279.011603 573.452144,278.460819 C574.120116,277.910035 574.934561,277.464727 575.895503,277.124882 C576.856445,276.785036 577.963856,276.615116 579.217769,276.615116 C580.659182,276.615116 581.851553,276.828981 582.794917,277.256718 C583.738281,277.684454 584.479485,278.203004 585.01855,278.812382 C585.545896,279.410041 585.909174,280.036988 586.108394,280.693241 C586.307613,281.349494 586.407222,281.911989 586.407222,282.380741 C586.407222,282.966681 586.325191,283.555543 586.161128,284.147343 C585.997065,284.739142 585.727536,285.286988 585.352534,285.790897 C584.942376,286.341681 584.400389,286.842653 583.726558,287.293827 C583.052726,287.745001 582.206055,288.111208 581.186519,288.39246 L581.186519,288.67371 C581.842772,288.732304 582.54296,288.878787 583.287105,289.113163 C584.031249,289.347539 584.702141,289.693239 585.2998,290.150272 C585.920897,290.630743 586.430657,291.248901 586.829097,292.004764 C587.227536,292.760628 587.426753,293.718626 587.426753,294.878788 C587.426753,297.128799 586.524418,298.953976 584.719722,300.354374 C582.915025,301.754771 580.659188,302.45496 577.952144,302.45496 Z M609.874019,287.302616 L601.946284,287.302616 L601.946284,295.23035 L599.713862,295.23035 L599.713862,287.302616 L591.786128,287.302616 L591.786128,285.10535 L599.713862,285.10535 L599.713862,277.177616 L601.946284,277.177616 L601.946284,285.10535 L609.874019,285.10535 L609.874019,287.302616 Z M630.493159,278.320194 L617.959956,302.45496 L615.76269,302.45496 L627.557612,280.130741 L620.649409,280.130741 C619.629873,280.130741 618.833006,280.14246 618.258784,280.165897 C617.684563,280.189335 617.157224,280.300662 616.676753,280.499882 C616.31347,280.652226 615.988278,281.041871 615.701167,281.668827 C615.414056,282.295783 615.194332,283.09558 615.041987,284.068241 L613.969722,284.068241 L613.969722,277.177616 L630.493159,277.177616 L630.493159,278.320194 Z" id="y^2-=-x^3+7" fill="#9B9B9B" transform="translate(528.364253, 287.144413) rotate(-36.000000) translate(-528.364253, -287.144413) "></path>
                <path d="M0.621044253,494.595105 L989.199561,494.595105" id="Path-4" stroke="#979797"></path>
            </g>
            <polyline id="Path-2" stroke="#4A90E2" stroke-width="2" points="779.927849 122.975921 779.927849 866.632231 88.680999 460.300962"></polyline>
            <circle id="Oval" stroke="#2673BA" stroke-width="3" fill="#4A90E2" cx="89" cy="460" r="6"></circle>
            <circle id="Oval" stroke="#2673BA" stroke-width="3" fill="#4A90E2" cx="218" cy="536" r="6"></circle>
            <circle id="Oval" stroke="#2673BA" stroke-width="3" fill="#4A90E2" cx="780" cy="123" r="6"></circle>
            <path d="M208.40625,571.380859 C209.132816,571.873049 209.736326,572.517574 210.216797,573.314453 C210.697268,574.111332 210.9375,575.078119 210.9375,576.214844 C210.9375,577.375006 210.685549,578.382808 210.181641,579.238281 C209.677732,580.093754 209.021488,580.796872 208.212891,581.347656 C207.42773,581.886721 206.540044,582.296874 205.549805,582.578125 C204.559565,582.859376 203.537115,583 202.482422,583 L190.669922,583 L190.669922,581.751953 C190.951173,581.728516 191.361325,581.678711 191.900391,581.602539 C192.439456,581.526367 192.826171,581.435547 193.060547,581.330078 C193.42383,581.166015 193.68164,580.94629 193.833984,580.670898 C193.986329,580.395506 194.0625,580.041018 194.0625,579.607422 L194.0625,561.677734 C194.0625,561.279295 193.995118,560.927736 193.860352,560.623047 C193.725585,560.318358 193.458986,560.072267 193.060547,559.884766 C192.708983,559.708983 192.316408,559.574219 191.882812,559.480469 C191.449217,559.386718 191.085939,559.328125 190.792969,559.304688 L190.792969,558.056641 L202.306641,558.056641 C203.19727,558.056641 204.049801,558.14453 204.864258,558.320312 C205.678715,558.496095 206.455074,558.806638 207.193359,559.251953 C207.884769,559.662111 208.453123,560.218746 208.898438,560.921875 C209.343752,561.625004 209.566406,562.480464 209.566406,563.488281 C209.566406,564.367192 209.408205,565.149411 209.091797,565.834961 C208.775389,566.520511 208.330081,567.109373 207.755859,567.601562 C207.216794,568.070315 206.598636,568.465819 205.901367,568.788086 C205.204098,569.110353 204.451176,569.359374 203.642578,569.535156 L203.642578,569.693359 C204.357425,569.775391 205.157222,569.9541 206.041992,570.229492 C206.926762,570.504884 207.71484,570.888669 208.40625,571.380859 Z M204.169922,567.619141 C204.603518,567.115232 204.905273,566.564456 205.075195,565.966797 C205.245118,565.369138 205.330078,564.66016 205.330078,563.839844 C205.330078,562.468743 204.955082,561.393559 204.205078,560.614258 C203.455074,559.834957 202.271492,559.445312 200.654297,559.445312 C200.279295,559.445312 199.80762,559.454101 199.239258,559.47168 C198.670896,559.489258 198.193361,559.503906 197.806641,559.515625 L197.806641,569.095703 L200.039062,569.095703 C201.000005,569.095703 201.823239,568.972657 202.508789,568.726562 C203.194339,568.480468 203.748045,568.111331 204.169922,567.619141 Z M206.595703,575.582031 C206.595703,574.105461 206.100591,572.892583 205.110352,571.943359 C204.120112,570.994136 202.705087,570.519531 200.865234,570.519531 C200.115231,570.519531 199.482424,570.52832 198.966797,570.545898 C198.451169,570.563477 198.064454,570.578125 197.806641,570.589844 L197.806641,579.378906 C197.806641,580.117191 198.105466,580.673826 198.703125,581.048828 C199.300784,581.42383 200.132807,581.611328 201.199219,581.611328 C202.945321,581.611328 204.281245,581.101568 205.207031,580.082031 C206.132817,579.062495 206.595703,577.56251 206.595703,575.582031 Z" id="B" fill="#000000"></path>
            <path d="M744.978516,97 L734.589844,97 L734.589844,95.7519531 C735.503911,95.6933591 736.262692,95.5761728 736.866211,95.4003906 C737.46973,95.2246085 737.771484,95.0078138 737.771484,94.75 C737.771484,94.6445307 737.759766,94.5156258 737.736328,94.3632812 C737.712891,94.2109367 737.677735,94.0761725 737.630859,93.9589844 L735.556641,88.3691406 L726.820312,88.3691406 C726.492186,89.1894572 726.225587,89.9042938 726.020508,90.5136719 C725.815429,91.1230499 725.63086,91.6855443 725.466797,92.2011719 C725.314452,92.7050806 725.208985,93.1152328 725.150391,93.4316406 C725.091797,93.7480485 725.0625,94.0058584 725.0625,94.2050781 C725.0625,94.6738305 725.431637,95.0371081 726.169922,95.2949219 C726.908207,95.5527357 727.74023,95.7050779 728.666016,95.7519531 L728.666016,97 L719.279297,97 L719.279297,95.7519531 C719.583986,95.7285155 719.964841,95.6611334 720.421875,95.5498047 C720.878909,95.438476 721.253905,95.2890634 721.546875,95.1015625 C722.015627,94.7851547 722.378905,94.4541033 722.636719,94.1083984 C722.894533,93.7626936 723.146483,93.2851593 723.392578,92.6757812 C724.646491,89.5468594 726.029289,86.0312695 727.541016,82.1289062 C729.052742,78.226543 730.400385,74.7519684 731.583984,71.7050781 L732.990234,71.7050781 L741.304688,93.2207031 C741.48047,93.6777367 741.679686,94.0468736 741.902344,94.328125 C742.125001,94.6093764 742.435545,94.8847643 742.833984,95.1542969 C743.103517,95.3183602 743.455076,95.4560541 743.888672,95.5673828 C744.322268,95.6787115 744.685545,95.7402343 744.978516,95.7519531 L744.978516,97 Z M734.923828,86.8046875 L731.144531,77.1367188 L727.435547,86.8046875 L734.923828,86.8046875 Z M764.771484,88.2636719 L756.84375,88.2636719 L756.84375,96.1914062 L754.611328,96.1914062 L754.611328,88.2636719 L746.683594,88.2636719 L746.683594,86.0664062 L754.611328,86.0664062 L754.611328,78.1386719 L756.84375,78.1386719 L756.84375,86.0664062 L764.771484,86.0664062 L764.771484,88.2636719 Z M786.708984,85.3808594 C787.435551,85.8730493 788.03906,86.5175741 788.519531,87.3144531 C789.000002,88.1113321 789.240234,89.0781193 789.240234,90.2148438 C789.240234,91.3750058 788.988284,92.3828082 788.484375,93.2382812 C787.980466,94.0937543 787.324223,94.7968722 786.515625,95.3476562 C785.730465,95.8867214 784.842778,96.2968736 783.852539,96.578125 C782.8623,96.8593764 781.839849,97 780.785156,97 L768.972656,97 L768.972656,95.7519531 C769.253908,95.7285155 769.66406,95.6787113 770.203125,95.6025391 C770.74219,95.5263668 771.128905,95.4355474 771.363281,95.3300781 C771.726564,95.1660148 771.984374,94.9462904 772.136719,94.6708984 C772.289063,94.3955064 772.365234,94.0410178 772.365234,93.6074219 L772.365234,75.6777344 C772.365234,75.2792949 772.297852,74.9277359 772.163086,74.6230469 C772.02832,74.3183579 771.761721,74.0722666 771.363281,73.8847656 C771.011717,73.7089835 770.619143,73.5742192 770.185547,73.4804688 C769.751951,73.3867183 769.388673,73.3281251 769.095703,73.3046875 L769.095703,72.0566406 L780.609375,72.0566406 C781.500004,72.0566406 782.352535,72.1445304 783.166992,72.3203125 C783.981449,72.4960946 784.757809,72.8066384 785.496094,73.2519531 C786.187503,73.6621114 786.755857,74.2187465 787.201172,74.921875 C787.646487,75.6250035 787.869141,76.4804637 787.869141,77.4882812 C787.869141,78.3671919 787.710939,79.1494106 787.394531,79.8349609 C787.078123,80.5205112 786.632815,81.1093725 786.058594,81.6015625 C785.519529,82.0703148 784.901371,82.4658187 784.204102,82.7880859 C783.506832,83.1103532 782.75391,83.3593741 781.945312,83.5351562 L781.945312,83.6933594 C782.66016,83.775391 783.459957,83.9541002 784.344727,84.2294922 C785.229497,84.5048842 786.017575,84.8886694 786.708984,85.3808594 Z M782.472656,81.6191406 C782.906252,81.1152319 783.208007,80.5644561 783.37793,79.9667969 C783.547852,79.3691376 783.632812,78.6601604 783.632812,77.8398438 C783.632812,76.4687431 783.257816,75.3935586 782.507812,74.6142578 C781.757809,73.834957 780.574227,73.4453125 778.957031,73.4453125 C778.582029,73.4453125 778.110354,73.4541015 777.541992,73.4716797 C776.97363,73.4892579 776.496096,73.5039062 776.109375,73.515625 L776.109375,83.0957031 L778.341797,83.0957031 C779.302739,83.0957031 780.125973,82.9726575 780.811523,82.7265625 C781.497074,82.4804675 782.050779,82.1113306 782.472656,81.6191406 Z M784.898438,89.5820312 C784.898438,88.1054614 784.403325,86.8925829 783.413086,85.9433594 C782.422847,84.9941359 781.007822,84.5195312 779.167969,84.5195312 C778.417965,84.5195312 777.785159,84.5283202 777.269531,84.5458984 C776.753904,84.5634767 776.367189,84.5781249 776.109375,84.5898438 L776.109375,93.3789062 C776.109375,94.1171912 776.4082,94.6738263 777.005859,95.0488281 C777.603519,95.42383 778.435542,95.6113281 779.501953,95.6113281 C781.248056,95.6113281 782.58398,95.1015676 783.509766,94.0820312 C784.435552,93.0624949 784.898438,91.5625099 784.898438,89.5820312 Z" id="A+B" fill="#000000"></path>
            <path d="M79.9785156,440 L69.5898438,440 L69.5898438,438.751953 C70.5039108,438.693359 71.2626923,438.576173 71.8662109,438.400391 C72.4697296,438.224608 72.7714844,438.007814 72.7714844,437.75 C72.7714844,437.644531 72.7597657,437.515626 72.7363281,437.363281 C72.7128905,437.210937 72.6777346,437.076172 72.6308594,436.958984 L70.5566406,431.369141 L61.8203125,431.369141 C61.4921859,432.189457 61.225587,432.904294 61.0205078,433.513672 C60.8154287,434.12305 60.6308602,434.685544 60.4667969,435.201172 C60.3144524,435.705081 60.2089847,436.115233 60.1503906,436.431641 C60.0917966,436.748048 60.0625,437.005858 60.0625,437.205078 C60.0625,437.67383 60.4316369,438.037108 61.1699219,438.294922 C61.9082068,438.552736 62.7402297,438.705078 63.6660156,438.751953 L63.6660156,440 L54.2792969,440 L54.2792969,438.751953 C54.5839859,438.728516 54.9648415,438.661133 55.421875,438.549805 C55.8789085,438.438476 56.2539048,438.289063 56.546875,438.101562 C57.0156273,437.785155 57.378905,437.454103 57.6367188,437.108398 C57.8945325,436.762694 58.1464831,436.285159 58.3925781,435.675781 C59.6464906,432.546859 61.0292893,429.03127 62.5410156,425.128906 C64.0527419,421.226543 65.4003847,417.751968 66.5839844,414.705078 L67.9902344,414.705078 L76.3046875,436.220703 C76.4804696,436.677737 76.6796864,437.046874 76.9023438,437.328125 C77.1250011,437.609376 77.4355449,437.884764 77.8339844,438.154297 C78.103517,438.31836 78.455076,438.456054 78.8886719,438.567383 C79.3222678,438.678711 79.6855454,438.740234 79.9785156,438.751953 L79.9785156,440 Z M69.9238281,429.804688 L66.1445312,420.136719 L62.4355469,429.804688 L69.9238281,429.804688 Z" id="A" fill="#000000"></path>
        </g>
    </g>
</svg>