<?xml version="1.0" encoding="UTF-8"?>
<svg width="963px" height="995px" viewBox="0 0 963 995" version="1.1" xmlns="http://www.w3.org/2000/svg" xmlns:xlink="http://www.w3.org/1999/xlink">
    <!-- Generator: Sketch 52.6 (67491) - http://www.bohemiancoding.com/sketch -->
    <title>Group</title>
    <desc>Created with Sketch.</desc>
    <g id="Key-aggregation" stroke="none" stroke-width="1" fill="none" fill-rule="evenodd">
        <g id="Group" transform="translate(0.000000, 3.000000)">
            <polyline id="Shape" stroke="#000000" stroke-width="4" stroke-linecap="square" points="98.727273 494.399999 99.5895291 488.783012 100.451785 486.481177 101.314041 484.731801 103.038554 481.996617 104.763066 479.816455 106.487578 477.968278 109.074347 475.606702 111.661115 473.589456 114.247883 471.822575 117.696908 469.761675 121.145932 467.963483 125.457213 466.005488 129.768494 464.306413 134.079774 462.819551 139.253311 461.268909 144.426849 459.933508 150.462642 458.605704 156.498435 457.489523 163.396484 456.434919 171.156789 455.488284 179.77935 454.686685 189.264168 454.055946 199.611242 453.608183 211.682828 453.324958 227.203438 453.205164 265.142709 453.025441 277.214295 452.696271 287.561369 452.206206 297.046186 451.549241 306.531003 450.664037 315.153566 449.641699 323.776127 448.398608 332.398688 446.926115 341.02125 445.21974 349.643811 443.278768 358.266372 441.105683 366.888934 438.705501 375.511496 436.085108 384.996313 432.958061 394.481131 429.586218 403.965948 425.98177 413.450766 422.1568 423.79784 417.746271 434.144914 413.101384 445.354243 407.820191 456.563573 402.294606 467.772903 396.538327 479.844489 390.095297 491.916075 383.412537 504.849917 376.000072 517.783759 368.339297 531.579858 359.907062 545.375956 351.217702 559.172054 342.282057 573.830409 332.528801 588.488764 322.518562 603.147118 312.260431 618.667728 301.137717 634.188339 289.754871 649.70895 278.119697 666.091817 265.572181 682.474683 252.758939 698.85755 239.686852 716.102673 225.65404 733.347796 211.348143 750.592918 196.775379 768.700298 181.193048 786.807677 165.329007 804.915056 149.188997 823.022435 132.778373 841.99207 115.3015 860.961705 97.538537 879.931341 79.494566 898.900976 61.174375 918.732868 41.731019 938.564759 21.995595 958.39665 1.972737 960.121162 0.218182 960.121162 0.218182"></polyline>
            <polyline id="Shape" stroke="#000000" stroke-width="4" stroke-linecap="square" points="98.727273 494.400001 99.5895291 500.016988 100.451785 502.318823 101.314041 504.068199 103.038554 506.803383 104.763066 508.983545 106.487578 510.831722 109.074347 513.193298 111.661115 515.210544 114.247883 516.977425 117.696908 519.038325 121.145932 520.836517 125.457213 522.794512 129.768494 524.493587 134.079774 525.980449 139.253311 527.531091 144.426849 528.866492 150.462642 530.194296 156.498435 531.310477 163.396484 532.365081 171.156789 533.311716 179.77935 534.113315 189.264168 534.744054 199.611242 535.191817 211.682828 535.475042 227.203438 535.594836 265.142709 535.774559 277.214295 536.103729 287.561369 536.593794 297.046186 537.250759 306.531003 538.135963 315.153566 539.158301 323.776127 540.401392 332.398688 541.873885 341.02125 543.58026 349.643811 545.521232 358.266372 547.694317 366.888934 550.094499 375.511496 552.714892 384.996313 555.841939 394.481131 559.213782 403.965948 562.81823 413.450766 566.6432 423.79784 571.053729 434.144914 575.698616 445.354243 580.979809 456.563573 586.505394 467.772903 592.261673 479.844489 598.704703 491.916075 605.387463 504.849917 612.799928 517.783759 620.460703 531.579858 628.892938 545.375956 637.582298 559.172054 646.517943 573.830409 656.271199 588.488764 666.281438 603.147118 676.539569 618.667728 687.662283 634.188339 699.045129 649.70895 710.680303 666.091817 723.227819 682.474683 736.041061 698.85755 749.113148 716.102673 763.14596 733.347796 777.451857 750.592918 792.024621 768.700298 807.606952 786.807677 823.470993 804.915056 839.611003 823.022435 856.021627 841.99207 873.4985 860.961705 891.261463 879.931341 909.305434 898.900976 927.625625 918.732868 947.068981 938.564759 966.804405 958.39665 986.827263 960.121162 988.581818 960.121162 988.581818"></polyline>
            <path d="M775.708984,88.5097656 C776.189456,88.9316427 776.558592,89.417966 776.816406,89.96875 C777.07422,90.519534 777.203125,91.1933554 777.203125,91.9902344 C777.203125,93.5957112 776.602545,94.908198 775.401367,95.9277344 C774.200189,96.9472707 772.644541,97.4570312 770.734375,97.4570312 C769.726557,97.4570312 768.797856,97.2753924 767.948242,96.9121094 C767.098629,96.5488263 766.492189,96.2148453 766.128906,95.9101562 L765.777344,97.0527344 L764.458984,97.0527344 L764.283203,91.0234375 L765.496094,91.0234375 C765.589844,91.480471 765.789061,92.0136688 766.09375,92.6230469 C766.398439,93.2324249 766.767576,93.7832007 767.201172,94.2753906 C767.658205,94.7910182 768.206051,95.2246076 768.844727,95.5761719 C769.483402,95.9277361 770.201168,96.1035156 770.998047,96.1035156 C772.123052,96.1035156 772.990231,95.8486354 773.599609,95.3388672 C774.208987,94.829099 774.513672,94.0996141 774.513672,93.1503906 C774.513672,92.6582007 774.416993,92.2334002 774.223633,91.8759766 C774.030272,91.5185529 773.746096,91.2050795 773.371094,90.9355469 C772.984373,90.6660143 772.509768,90.4228526 771.947266,90.2060547 C771.384763,89.9892567 770.757816,89.7753917 770.066406,89.5644531 C769.515622,89.4003898 768.903324,89.1748061 768.229492,88.8876953 C767.555661,88.6005845 766.978518,88.2636738 766.498047,87.8769531 C765.982419,87.4667948 765.560549,86.9628936 765.232422,86.3652344 C764.904295,85.7675751 764.740234,85.0644572 764.740234,84.2558594 C764.740234,82.8378835 765.267573,81.6367237 766.322266,80.6523438 C767.376958,79.6679638 768.789054,79.1757812 770.558594,79.1757812 C771.238285,79.1757812 771.932614,79.263671 772.641602,79.4394531 C773.350589,79.6152353 773.927732,79.8261706 774.373047,80.0722656 L774.777344,79.1582031 L776.042969,79.1582031 L776.306641,84.7304688 L775.09375,84.7304688 C774.847655,83.488275 774.317387,82.477543 773.50293,81.6982422 C772.688472,80.9189414 771.695318,80.5292969 770.523438,80.5292969 C769.562495,80.5292969 768.806643,80.7695288 768.255859,81.25 C767.705075,81.7304712 767.429688,82.3105435 767.429688,82.9902344 C767.429688,83.5175808 767.520507,83.9570295 767.702148,84.3085938 C767.88379,84.660158 768.156248,84.9589831 768.519531,85.2050781 C768.871096,85.4394543 769.313474,85.6591787 769.84668,85.8642578 C770.379885,86.069337 771.039059,86.30078 771.824219,86.5585938 C772.59766,86.8046887 773.327145,87.0917952 774.012695,87.4199219 C774.698246,87.7480485 775.26367,88.1113261 775.708984,88.5097656 Z M792.777344,97 L780.929688,97 L780.929688,95.7519531 C781.281252,95.7285155 781.829098,95.6787113 782.573242,95.6025391 C783.317387,95.5263668 783.830077,95.447266 784.111328,95.3652344 C784.474611,95.2480463 784.752929,95.0576185 784.946289,94.7939453 C785.139649,94.5302721 785.236328,94.1347683 785.236328,93.6074219 L785.236328,81.2675781 L780.859375,81.2675781 L780.859375,79.7910156 L781.826172,79.7910156 C783.091803,79.7910156 784.225581,79.556643 785.227539,79.0878906 C786.229497,78.6191383 786.947263,78.1152371 787.380859,77.5761719 L788.839844,77.5761719 C788.804687,78.3378944 788.769531,79.2285105 788.734375,80.2480469 C788.699219,81.2675832 788.681641,82.1816366 788.681641,82.9902344 L788.681641,93.4140625 C788.681641,93.8242208 788.77246,94.1904281 788.954102,94.5126953 C789.135743,94.8349625 789.396483,95.0722649 789.736328,95.2246094 C790.041017,95.3535163 790.539059,95.4707026 791.230469,95.5761719 C791.921878,95.6816412 792.437498,95.7402343 792.777344,95.7519531 L792.777344,97 Z M813.501953,93.5019531 L811.9375,95.0664062 L805.591797,88.6855469 L799.228516,95.0839844 L797.681641,93.5195312 L804.080078,87.15625 L797.681641,80.8105469 L799.246094,79.2636719 L805.591797,85.6269531 L811.955078,79.2460938 L813.501953,80.7929688 L807.103516,87.15625 L813.501953,93.5019531 Z M843.033203,87.0332031 C842.751952,87.0683596 842.374026,87.1240231 841.899414,87.2001953 C841.424802,87.2763676 841.041017,87.3847649 840.748047,87.5253906 C840.396483,87.7011728 840.147462,87.9501937 840.000977,88.2724609 C839.854491,88.5947282 839.78125,88.9726541 839.78125,89.40625 L839.78125,91.3398438 C839.78125,92.7461008 839.790039,93.69531 839.807617,94.1875 C839.825195,94.67969 839.845703,95.0839828 839.869141,95.4003906 C838.310539,96.1035191 836.75782,96.6425762 835.210938,97.0175781 C833.664055,97.39258 832.146492,97.5800781 830.658203,97.5800781 C829.064445,97.5800781 827.529304,97.281253 826.052734,96.6835938 C824.576164,96.0859345 823.287115,95.2363336 822.185547,94.1347656 C821.07226,93.0214788 820.187503,91.6679767 819.53125,90.0742188 C818.874997,88.4804608 818.546875,86.6992286 818.546875,84.7304688 C818.546875,82.8320218 818.860348,81.0712972 819.487305,79.4482422 C820.114261,77.8251872 821.001947,76.4160216 822.150391,75.2207031 C823.263677,74.0488223 824.590813,73.1376986 826.131836,72.4873047 C827.672859,71.8369108 829.322257,71.5117188 831.080078,71.5117188 C832.486335,71.5117188 833.710932,71.6816389 834.753906,72.0214844 C835.79688,72.3613298 836.716793,72.771482 837.513672,73.2519531 L838.234375,72.0566406 L839.640625,72.0566406 L839.798828,80.7753906 L838.357422,80.7753906 C838.111327,79.8144483 837.806642,78.8681687 837.443359,77.9365234 C837.080076,77.0048782 836.611331,76.1699256 836.037109,75.4316406 C835.462888,74.6933557 834.762699,74.1044944 833.936523,73.6650391 C833.110347,73.2255837 832.123053,73.0058594 830.974609,73.0058594 C829.720697,73.0058594 828.601567,73.2607396 827.617188,73.7705078 C826.632808,74.280276 825.777347,75.0390575 825.050781,76.046875 C824.335934,77.0195361 823.785158,78.2324146 823.398438,79.6855469 C823.011717,81.1386791 822.818359,82.7617098 822.818359,84.5546875 C822.818359,86.1367267 823.008787,87.6279227 823.389648,89.0283203 C823.77051,90.4287179 824.324215,91.6386668 825.050781,92.6582031 C825.777347,93.7011771 826.685541,94.5214814 827.775391,95.1191406 C828.86524,95.7167999 830.101556,96.015625 831.484375,96.015625 C832.51563,96.015625 833.45605,95.8574235 834.305664,95.5410156 C835.155278,95.2246078 835.755858,94.8906268 836.107422,94.5390625 C836.201172,93.9296845 836.250977,93.3144562 836.256836,92.6933594 C836.262695,92.0722625 836.265625,91.544924 836.265625,91.1113281 L836.265625,89.7402344 C836.265625,89.2480444 836.198243,88.8115253 836.063477,88.4306641 C835.92871,88.0498028 835.650393,87.7714853 835.228516,87.5957031 C834.841795,87.419921 834.317386,87.2880864 833.655273,87.2001953 C832.993161,87.1123042 832.474611,87.0566407 832.099609,87.0332031 L832.099609,85.75 L843.033203,85.75 L843.033203,87.0332031 Z" id="s1×G" fill="#B60004"></path>
            <path d="M131.708984,578.509766 C132.189456,578.931643 132.558592,579.417966 132.816406,579.96875 C133.07422,580.519534 133.203125,581.193355 133.203125,581.990234 C133.203125,583.595711 132.602545,584.908198 131.401367,585.927734 C130.200189,586.947271 128.644541,587.457031 126.734375,587.457031 C125.726557,587.457031 124.797856,587.275392 123.948242,586.912109 C123.098629,586.548826 122.492189,586.214845 122.128906,585.910156 L121.777344,587.052734 L120.458984,587.052734 L120.283203,581.023438 L121.496094,581.023438 C121.589844,581.480471 121.789061,582.013669 122.09375,582.623047 C122.398439,583.232425 122.767576,583.783201 123.201172,584.275391 C123.658205,584.791018 124.206051,585.224608 124.844727,585.576172 C125.483402,585.927736 126.201168,586.103516 126.998047,586.103516 C128.123053,586.103516 128.990231,585.848635 129.599609,585.338867 C130.208987,584.829099 130.513672,584.099614 130.513672,583.150391 C130.513672,582.658201 130.416993,582.2334 130.223633,581.875977 C130.030272,581.518553 129.746096,581.205079 129.371094,580.935547 C128.984373,580.666014 128.509768,580.422853 127.947266,580.206055 C127.384763,579.989257 126.757816,579.775392 126.066406,579.564453 C125.515622,579.40039 124.903324,579.174806 124.229492,578.887695 C123.555661,578.600585 122.978518,578.263674 122.498047,577.876953 C121.982419,577.466795 121.560549,576.962894 121.232422,576.365234 C120.904295,575.767575 120.740234,575.064457 120.740234,574.255859 C120.740234,572.837884 121.267573,571.636724 122.322266,570.652344 C123.376958,569.667964 124.789054,569.175781 126.558594,569.175781 C127.238285,569.175781 127.932614,569.263671 128.641602,569.439453 C129.350589,569.615235 129.927732,569.826171 130.373047,570.072266 L130.777344,569.158203 L132.042969,569.158203 L132.306641,574.730469 L131.09375,574.730469 C130.847655,573.488275 130.317387,572.477543 129.50293,571.698242 C128.688472,570.918941 127.695318,570.529297 126.523438,570.529297 C125.562495,570.529297 124.806643,570.769529 124.255859,571.25 C123.705075,571.730471 123.429688,572.310543 123.429688,572.990234 C123.429688,573.517581 123.520507,573.957029 123.702148,574.308594 C123.88379,574.660158 124.156248,574.958983 124.519531,575.205078 C124.871096,575.439454 125.313474,575.659179 125.84668,575.864258 C126.379885,576.069337 127.039059,576.30078 127.824219,576.558594 C128.59766,576.804689 129.327145,577.091795 130.012695,577.419922 C130.698246,577.748049 131.26367,578.111326 131.708984,578.509766 Z M152.960938,587 L136.490234,587 L136.490234,584.609375 C136.806642,584.246092 137.246091,583.838869 137.808594,583.387695 C138.371097,582.936521 139.039059,582.447268 139.8125,581.919922 C140.281252,581.603514 140.843747,581.257814 141.5,580.882812 C142.156253,580.507811 142.900386,580.097658 143.732422,579.652344 C144.658208,579.160154 145.370115,578.726564 145.868164,578.351562 C146.366213,577.976561 146.82031,577.513675 147.230469,576.962891 C147.500001,576.599608 147.716796,576.145511 147.880859,575.600586 C148.044923,575.055661 148.126953,574.279302 148.126953,573.271484 C148.126953,571.806633 147.734379,570.731449 146.949219,570.045898 C146.164059,569.360348 145.156256,569.017578 143.925781,569.017578 C143.164059,569.017578 142.443363,569.166991 141.763672,569.46582 C141.083981,569.76465 140.57422,570.177732 140.234375,570.705078 C140.316407,571.08008 140.418945,571.525388 140.541992,572.041016 C140.66504,572.556643 140.726562,573.060544 140.726562,573.552734 C140.726562,573.998049 140.541994,574.393553 140.172852,574.739258 C139.803709,575.084963 139.255863,575.257812 138.529297,575.257812 C137.943356,575.257812 137.492189,575.055666 137.175781,574.651367 C136.859373,574.247068 136.701172,573.705082 136.701172,573.025391 C136.701172,572.392575 136.876951,571.756839 137.228516,571.118164 C137.58008,570.479489 138.083981,569.890628 138.740234,569.351562 C139.384769,568.824216 140.181636,568.396486 141.130859,568.068359 C142.080083,567.740233 143.105463,567.576172 144.207031,567.576172 C146.609387,567.576172 148.516595,568.112299 149.928711,569.18457 C151.340827,570.256841 152.046875,571.689444 152.046875,573.482422 C152.046875,574.337895 151.9209,575.117184 151.668945,575.820312 C151.416991,576.523441 151.009768,577.144529 150.447266,577.683594 C149.826169,578.281253 149.099614,578.793943 148.267578,579.22168 C147.435543,579.649416 146.164071,580.244137 144.453125,581.005859 C143.433589,581.462893 142.484379,581.940427 141.605469,582.438477 C140.726558,582.936526 140.005862,583.41992 139.443359,583.888672 L152.960938,583.888672 L152.960938,587 Z M174.142578,583.501953 L172.578125,585.066406 L166.232422,578.685547 L159.869141,585.083984 L158.322266,583.519531 L164.720703,577.15625 L158.322266,570.810547 L159.886719,569.263672 L166.232422,575.626953 L172.595703,569.246094 L174.142578,570.792969 L167.744141,577.15625 L174.142578,583.501953 Z M203.673828,577.033203 C203.392577,577.06836 203.014651,577.124023 202.540039,577.200195 C202.065427,577.276368 201.681642,577.384765 201.388672,577.525391 C201.037108,577.701173 200.788087,577.950194 200.641602,578.272461 C200.495116,578.594728 200.421875,578.972654 200.421875,579.40625 L200.421875,581.339844 C200.421875,582.746101 200.430664,583.69531 200.448242,584.1875 C200.46582,584.67969 200.486328,585.083983 200.509766,585.400391 C198.951164,586.103519 197.398445,586.642576 195.851562,587.017578 C194.30468,587.39258 192.787117,587.580078 191.298828,587.580078 C189.70507,587.580078 188.169929,587.281253 186.693359,586.683594 C185.216789,586.085935 183.92774,585.236334 182.826172,584.134766 C181.712885,583.021479 180.828128,581.667977 180.171875,580.074219 C179.515622,578.480461 179.1875,576.699229 179.1875,574.730469 C179.1875,572.832022 179.500973,571.071297 180.12793,569.448242 C180.754886,567.825187 181.642572,566.416022 182.791016,565.220703 C183.904302,564.048822 185.231438,563.137699 186.772461,562.487305 C188.313484,561.836911 189.962882,561.511719 191.720703,561.511719 C193.12696,561.511719 194.351557,561.681639 195.394531,562.021484 C196.437505,562.36133 197.357418,562.771482 198.154297,563.251953 L198.875,562.056641 L200.28125,562.056641 L200.439453,570.775391 L198.998047,570.775391 C198.751952,569.814448 198.447267,568.868169 198.083984,567.936523 C197.720701,567.004878 197.251956,566.169926 196.677734,565.431641 C196.103513,564.693356 195.403324,564.104494 194.577148,563.665039 C193.750972,563.225584 192.763678,563.005859 191.615234,563.005859 C190.361322,563.005859 189.242192,563.26074 188.257812,563.770508 C187.273433,564.280276 186.417972,565.039057 185.691406,566.046875 C184.976559,567.019536 184.425783,568.232415 184.039062,569.685547 C183.652342,571.138679 183.458984,572.76171 183.458984,574.554688 C183.458984,576.136727 183.649412,577.627923 184.030273,579.02832 C184.411135,580.428718 184.96484,581.638667 185.691406,582.658203 C186.417972,583.701177 187.326166,584.521481 188.416016,585.119141 C189.505865,585.7168 190.742181,586.015625 192.125,586.015625 C193.156255,586.015625 194.096675,585.857423 194.946289,585.541016 C195.795903,585.224608 196.396483,584.890627 196.748047,584.539062 C196.841797,583.929684 196.891602,583.314456 196.897461,582.693359 C196.90332,582.072263 196.90625,581.544924 196.90625,581.111328 L196.90625,579.740234 C196.90625,579.248044 196.838868,578.811525 196.704102,578.430664 C196.569335,578.049803 196.291018,577.771485 195.869141,577.595703 C195.48242,577.419921 194.958011,577.288086 194.295898,577.200195 C193.633786,577.112304 193.115236,577.056641 192.740234,577.033203 L192.740234,575.75 L203.673828,575.75 L203.673828,577.033203 Z" id="s2×G" fill="#B60004"></path>
            <path d="M213.322266,673.765625 C210.123031,673.367186 207.612314,671.755873 205.790039,668.931641 C203.967764,666.107408 203.056641,662.304711 203.056641,657.523438 C203.056641,652.660132 203.967764,648.807631 205.790039,645.96582 C207.612314,643.124009 210.123031,641.49219 213.322266,641.070312 L213.322266,642.529297 C211.072254,642.939455 209.361334,644.374988 208.189453,646.835938 C207.017572,649.296887 206.431641,652.87107 206.431641,657.558594 C206.431641,662.02346 207.005854,665.495105 208.154297,667.973633 C209.30274,670.452161 211.025379,671.902342 213.322266,672.324219 L213.322266,673.765625 Z M227.208984,659.509766 C227.689456,659.931643 228.058592,660.417966 228.316406,660.96875 C228.57422,661.519534 228.703125,662.193355 228.703125,662.990234 C228.703125,664.595711 228.102545,665.908198 226.901367,666.927734 C225.700189,667.947271 224.144541,668.457031 222.234375,668.457031 C221.226557,668.457031 220.297856,668.275392 219.448242,667.912109 C218.598629,667.548826 217.992189,667.214845 217.628906,666.910156 L217.277344,668.052734 L215.958984,668.052734 L215.783203,662.023438 L216.996094,662.023438 C217.089844,662.480471 217.289061,663.013669 217.59375,663.623047 C217.898439,664.232425 218.267576,664.783201 218.701172,665.275391 C219.158205,665.791018 219.706051,666.224608 220.344727,666.576172 C220.983402,666.927736 221.701168,667.103516 222.498047,667.103516 C223.623053,667.103516 224.490231,666.848635 225.099609,666.338867 C225.708987,665.829099 226.013672,665.099614 226.013672,664.150391 C226.013672,663.658201 225.916993,663.2334 225.723633,662.875977 C225.530272,662.518553 225.246096,662.205079 224.871094,661.935547 C224.484373,661.666014 224.009768,661.422853 223.447266,661.206055 C222.884763,660.989257 222.257816,660.775392 221.566406,660.564453 C221.015622,660.40039 220.403324,660.174806 219.729492,659.887695 C219.055661,659.600585 218.478518,659.263674 217.998047,658.876953 C217.482419,658.466795 217.060549,657.962894 216.732422,657.365234 C216.404295,656.767575 216.240234,656.064457 216.240234,655.255859 C216.240234,653.837884 216.767573,652.636724 217.822266,651.652344 C218.876958,650.667964 220.289054,650.175781 222.058594,650.175781 C222.738285,650.175781 223.432614,650.263671 224.141602,650.439453 C224.850589,650.615235 225.427732,650.826171 225.873047,651.072266 L226.277344,650.158203 L227.542969,650.158203 L227.806641,655.730469 L226.59375,655.730469 C226.347655,654.488275 225.817387,653.477543 225.00293,652.698242 C224.188472,651.918941 223.195318,651.529297 222.023438,651.529297 C221.062495,651.529297 220.306643,651.769529 219.755859,652.25 C219.205075,652.730471 218.929688,653.310543 218.929688,653.990234 C218.929688,654.517581 219.020507,654.957029 219.202148,655.308594 C219.38379,655.660158 219.656248,655.958983 220.019531,656.205078 C220.371096,656.439454 220.813474,656.659179 221.34668,656.864258 C221.879885,657.069337 222.539059,657.30078 223.324219,657.558594 C224.09766,657.804689 224.827145,658.091795 225.512695,658.419922 C226.198246,658.748049 226.76367,659.111326 227.208984,659.509766 Z M244.277344,668 L232.429688,668 L232.429688,666.751953 C232.781252,666.728516 233.329098,666.678711 234.073242,666.602539 C234.817387,666.526367 235.330077,666.447266 235.611328,666.365234 C235.974611,666.248046 236.252929,666.057619 236.446289,665.793945 C236.639649,665.530272 236.736328,665.134768 236.736328,664.607422 L236.736328,652.267578 L232.359375,652.267578 L232.359375,650.791016 L233.326172,650.791016 C234.591803,650.791016 235.725581,650.556643 236.727539,650.087891 C237.729497,649.619138 238.447263,649.115237 238.880859,648.576172 L240.339844,648.576172 C240.304687,649.337894 240.269531,650.228511 240.234375,651.248047 C240.199219,652.267583 240.181641,653.181637 240.181641,653.990234 L240.181641,664.414062 C240.181641,664.824221 240.27246,665.190428 240.454102,665.512695 C240.635743,665.834963 240.896483,666.072265 241.236328,666.224609 C241.541017,666.353516 242.039059,666.470703 242.730469,666.576172 C243.421878,666.681641 243.937498,666.740234 244.277344,666.751953 L244.277344,668 Z M266.144531,659.263672 L258.216797,659.263672 L258.216797,667.191406 L255.984375,667.191406 L255.984375,659.263672 L248.056641,659.263672 L248.056641,657.066406 L255.984375,657.066406 L255.984375,649.138672 L258.216797,649.138672 L258.216797,657.066406 L266.144531,657.066406 L266.144531,659.263672 Z M281.384766,659.509766 C281.865237,659.931643 282.234374,660.417966 282.492188,660.96875 C282.750001,661.519534 282.878906,662.193355 282.878906,662.990234 C282.878906,664.595711 282.278326,665.908198 281.077148,666.927734 C279.875971,667.947271 278.320322,668.457031 276.410156,668.457031 C275.402339,668.457031 274.473637,668.275392 273.624023,667.912109 C272.77441,667.548826 272.167971,667.214845 271.804688,666.910156 L271.453125,668.052734 L270.134766,668.052734 L269.958984,662.023438 L271.171875,662.023438 C271.265625,662.480471 271.464842,663.013669 271.769531,663.623047 C272.07422,664.232425 272.443357,664.783201 272.876953,665.275391 C273.333987,665.791018 273.881833,666.224608 274.520508,666.576172 C275.159183,666.927736 275.876949,667.103516 276.673828,667.103516 C277.798834,667.103516 278.666013,666.848635 279.275391,666.338867 C279.884769,665.829099 280.189453,665.099614 280.189453,664.150391 C280.189453,663.658201 280.092774,663.2334 279.899414,662.875977 C279.706054,662.518553 279.421877,662.205079 279.046875,661.935547 C278.660154,661.666014 278.18555,661.422853 277.623047,661.206055 C277.060544,660.989257 276.433597,660.775392 275.742188,660.564453 C275.191403,660.40039 274.579105,660.174806 273.905273,659.887695 C273.231442,659.600585 272.654299,659.263674 272.173828,658.876953 C271.658201,658.466795 271.23633,657.962894 270.908203,657.365234 C270.580076,656.767575 270.416016,656.064457 270.416016,655.255859 C270.416016,653.837884 270.943354,652.636724 271.998047,651.652344 C273.05274,650.667964 274.464835,650.175781 276.234375,650.175781 C276.914066,650.175781 277.608395,650.263671 278.317383,650.439453 C279.026371,650.615235 279.603513,650.826171 280.048828,651.072266 L280.453125,650.158203 L281.71875,650.158203 L281.982422,655.730469 L280.769531,655.730469 C280.523436,654.488275 279.993168,653.477543 279.178711,652.698242 C278.364254,651.918941 277.3711,651.529297 276.199219,651.529297 C275.238276,651.529297 274.482425,651.769529 273.931641,652.25 C273.380857,652.730471 273.105469,653.310543 273.105469,653.990234 C273.105469,654.517581 273.196288,654.957029 273.37793,655.308594 C273.559571,655.660158 273.832029,655.958983 274.195312,656.205078 C274.546877,656.439454 274.989255,656.659179 275.522461,656.864258 C276.055667,657.069337 276.71484,657.30078 277.5,657.558594 C278.273441,657.804689 279.002926,658.091795 279.688477,658.419922 C280.374027,658.748049 280.939451,659.111326 281.384766,659.509766 Z M302.636719,668 L286.166016,668 L286.166016,665.609375 C286.482423,665.246092 286.921872,664.838869 287.484375,664.387695 C288.046878,663.936521 288.71484,663.447268 289.488281,662.919922 C289.957034,662.603514 290.519528,662.257814 291.175781,661.882812 C291.832035,661.507811 292.576168,661.097658 293.408203,660.652344 C294.333989,660.160154 295.045896,659.726564 295.543945,659.351562 C296.041995,658.976561 296.496092,658.513675 296.90625,657.962891 C297.175783,657.599608 297.392577,657.145511 297.556641,656.600586 C297.720704,656.055661 297.802734,655.279302 297.802734,654.271484 C297.802734,652.806633 297.41016,651.731449 296.625,651.045898 C295.83984,650.360348 294.832037,650.017578 293.601562,650.017578 C292.83984,650.017578 292.119144,650.166991 291.439453,650.46582 C290.759762,650.76465 290.250002,651.177732 289.910156,651.705078 C289.992188,652.08008 290.094726,652.525388 290.217773,653.041016 C290.340821,653.556643 290.402344,654.060544 290.402344,654.552734 C290.402344,654.998049 290.217775,655.393553 289.848633,655.739258 C289.47949,656.084963 288.931644,656.257812 288.205078,656.257812 C287.619138,656.257812 287.16797,656.055666 286.851562,655.651367 C286.535155,655.247068 286.376953,654.705082 286.376953,654.025391 C286.376953,653.392575 286.552733,652.756839 286.904297,652.118164 C287.255861,651.479489 287.759762,650.890628 288.416016,650.351562 C289.06055,649.824216 289.857417,649.396486 290.806641,649.068359 C291.755864,648.740233 292.781244,648.576172 293.882812,648.576172 C296.285168,648.576172 298.192376,649.112299 299.604492,650.18457 C301.016609,651.256841 301.722656,652.689444 301.722656,654.482422 C301.722656,655.337895 301.596681,656.117184 301.344727,656.820312 C301.092772,657.523441 300.68555,658.144529 300.123047,658.683594 C299.50195,659.281253 298.775395,659.793943 297.943359,660.22168 C297.111324,660.649416 295.839852,661.244137 294.128906,662.005859 C293.10937,662.462893 292.160161,662.940427 291.28125,663.438477 C290.402339,663.936526 289.681643,664.41992 289.119141,664.888672 L302.636719,664.888672 L302.636719,668 Z M315.785156,657.523438 C315.785156,662.304711 314.874033,666.107408 313.051758,668.931641 C311.229483,671.755873 308.718766,673.367186 305.519531,673.765625 L305.519531,672.324219 C307.816418,671.902342 309.539057,670.452161 310.6875,667.973633 C311.835943,665.495105 312.410156,662.02346 312.410156,657.558594 C312.410156,652.87107 311.824225,649.296887 310.652344,646.835938 C309.480463,644.374988 307.769543,642.939455 305.519531,642.529297 L305.519531,641.070312 C308.718766,641.49219 311.229483,643.124009 313.051758,645.96582 C314.874033,648.807631 315.785156,652.660132 315.785156,657.523438 Z M337.318359,664.501953 L335.753906,666.066406 L329.408203,659.685547 L323.044922,666.083984 L321.498047,664.519531 L327.896484,658.15625 L321.498047,651.810547 L323.0625,650.263672 L329.408203,656.626953 L335.771484,650.246094 L337.318359,651.792969 L330.919922,658.15625 L337.318359,664.501953 Z M366.849609,658.033203 C366.568358,658.06836 366.190432,658.124023 365.71582,658.200195 C365.241209,658.276368 364.857423,658.384765 364.564453,658.525391 C364.212889,658.701173 363.963868,658.950194 363.817383,659.272461 C363.670898,659.594728 363.597656,659.972654 363.597656,660.40625 L363.597656,662.339844 C363.597656,663.746101 363.606445,664.69531 363.624023,665.1875 C363.641602,665.67969 363.662109,666.083983 363.685547,666.400391 C362.126945,667.103519 360.574226,667.642576 359.027344,668.017578 C357.480461,668.39258 355.962898,668.580078 354.474609,668.580078 C352.880851,668.580078 351.345711,668.281253 349.869141,667.683594 C348.392571,667.085935 347.103521,666.236334 346.001953,665.134766 C344.888666,664.021479 344.00391,662.667977 343.347656,661.074219 C342.691403,659.480461 342.363281,657.699229 342.363281,655.730469 C342.363281,653.832022 342.676755,652.071297 343.303711,650.448242 C343.930667,648.825187 344.818354,647.416022 345.966797,646.220703 C347.080084,645.048822 348.407219,644.137699 349.948242,643.487305 C351.489266,642.836911 353.138663,642.511719 354.896484,642.511719 C356.302741,642.511719 357.527339,642.681639 358.570312,643.021484 C359.613286,643.36133 360.533199,643.771482 361.330078,644.251953 L362.050781,643.056641 L363.457031,643.056641 L363.615234,651.775391 L362.173828,651.775391 C361.927733,650.814448 361.623049,649.868169 361.259766,648.936523 C360.896483,648.004878 360.427737,647.169926 359.853516,646.431641 C359.279294,645.693356 358.579106,645.104494 357.75293,644.665039 C356.926754,644.225584 355.939459,644.005859 354.791016,644.005859 C353.537103,644.005859 352.417974,644.26074 351.433594,644.770508 C350.449214,645.280276 349.593754,646.039057 348.867188,647.046875 C348.15234,648.019536 347.601564,649.232415 347.214844,650.685547 C346.828123,652.138679 346.634766,653.76171 346.634766,655.554688 C346.634766,657.136727 346.825193,658.627923 347.206055,660.02832 C347.586916,661.428718 348.140621,662.638667 348.867188,663.658203 C349.593754,664.701177 350.501948,665.521481 351.591797,666.119141 C352.681646,666.7168 353.917962,667.015625 355.300781,667.015625 C356.332036,667.015625 357.272457,666.857423 358.12207,666.541016 C358.971684,666.224608 359.572264,665.890627 359.923828,665.539062 C360.017579,664.929684 360.067383,664.314456 360.073242,663.693359 C360.079102,663.072263 360.082031,662.544924 360.082031,662.111328 L360.082031,660.740234 C360.082031,660.248044 360.014649,659.811525 359.879883,659.430664 C359.745117,659.049803 359.466799,658.771485 359.044922,658.595703 C358.658201,658.419921 358.133792,658.288086 357.47168,658.200195 C356.809567,658.112304 356.291018,658.056641 355.916016,658.033203 L355.916016,656.75 L366.849609,656.75 L366.849609,658.033203 Z" id="(s1+s2)×G" fill="#B60004"></path>
            <path id="Path-3" d="M323.364764,590.9537 C322.228387,608.138535 312.403626,622.297555 294.138973,633.28258 L291.561971,628.997833 C308.007181,619.107087 316.833092,606.80433 318.267205,591.953899 L307.248563,594.115882 L315.893593,562.866667 L335.705948,588.53222 L323.364764,590.9537 Z" fill="#D0021B" fill-rule="nonzero"></path>
            <path d="M539.091797,405 L530.583984,405 L530.583984,403.839844 C530.853517,403.816406 531.152342,403.792969 531.480469,403.769531 C531.808595,403.746094 532.078124,403.699219 532.289062,403.628906 C532.617189,403.523437 532.860351,403.338869 533.018555,403.075195 C533.176759,402.811522 533.255859,402.468752 533.255859,402.046875 L533.255859,393.134766 C533.255859,391.904291 532.965823,390.955081 532.385742,390.287109 C531.805661,389.619137 531.099614,389.285156 530.267578,389.285156 C529.6582,389.285156 529.092776,389.381835 528.571289,389.575195 C528.049802,389.768556 527.583986,390.005858 527.173828,390.287109 C526.775389,390.58008 526.470704,390.873045 526.259766,391.166016 C526.048827,391.458986 525.884766,391.705077 525.767578,391.904297 L525.767578,401.871094 C525.767578,402.269533 525.846679,402.597655 526.004883,402.855469 C526.163087,403.113283 526.406248,403.312499 526.734375,403.453125 C526.992189,403.570313 527.258788,403.658203 527.53418,403.716797 C527.809572,403.775391 528.111326,403.816406 528.439453,403.839844 L528.439453,405 L519.931641,405 L519.931641,403.839844 C520.201173,403.816406 520.48242,403.790039 520.775391,403.760742 C521.068361,403.731445 521.314452,403.6875 521.513672,403.628906 C521.841799,403.523437 522.08789,403.338869 522.251953,403.075195 C522.416016,402.811522 522.498047,402.468752 522.498047,402.046875 L522.498047,381.867188 C522.498047,381.468748 522.407227,381.070314 522.225586,380.671875 C522.043944,380.273436 521.806642,379.97461 521.513672,379.775391 C521.302733,379.623046 520.930667,379.514649 520.397461,379.450195 C519.864255,379.385742 519.433595,379.341797 519.105469,379.318359 L519.105469,378.193359 L525.521484,377.789062 L525.767578,378.052734 L525.767578,390.146484 L525.837891,390.146484 C526.224611,389.759764 526.57617,389.416994 526.892578,389.118164 C527.208986,388.819334 527.624997,388.505861 528.140625,388.177734 C528.58594,387.896483 529.110349,387.66211 529.713867,387.474609 C530.317386,387.287108 530.994137,387.193359 531.744141,387.193359 C533.291023,387.193359 534.480465,387.682612 535.3125,388.661133 C536.144535,389.639653 536.560547,391.048819 536.560547,392.888672 L536.560547,401.90625 C536.560547,402.316408 536.633788,402.64746 536.780273,402.899414 C536.926759,403.151368 537.16992,403.347656 537.509766,403.488281 C537.779298,403.593751 538.02246,403.672851 538.239258,403.725586 C538.456056,403.778321 538.740233,403.816406 539.091797,403.839844 L539.091797,405 Z M559.429688,401.501953 L557.865234,403.066406 L551.519531,396.685547 L545.15625,403.083984 L543.609375,401.519531 L550.007812,395.15625 L543.609375,388.810547 L545.173828,387.263672 L551.519531,393.626953 L557.882812,387.246094 L559.429688,388.792969 L553.03125,395.15625 L559.429688,401.501953 Z M575.425781,410.765625 C572.226547,410.367186 569.715829,408.755873 567.893555,405.931641 C566.07128,403.107408 565.160156,399.304711 565.160156,394.523438 C565.160156,389.660132 566.07128,385.807631 567.893555,382.96582 C569.715829,380.124009 572.226547,378.49219 575.425781,378.070312 L575.425781,379.529297 C573.17577,379.939455 571.46485,381.374988 570.292969,383.835938 C569.121088,386.296887 568.535156,389.87107 568.535156,394.558594 C568.535156,399.02346 569.109369,402.495105 570.257812,404.973633 C571.406256,407.452161 573.128895,408.902342 575.425781,409.324219 L575.425781,410.765625 Z M597.416016,386.208984 C597.416016,387.509772 597.161135,388.661128 596.651367,389.663086 C596.141599,390.665044 595.435551,391.494137 594.533203,392.150391 C593.642574,392.806644 592.664068,393.287108 591.597656,393.591797 C590.531245,393.896486 589.400397,394.048828 588.205078,394.048828 L585.410156,394.048828 L585.410156,401.607422 C585.410156,402.01758 585.477538,402.377928 585.612305,402.688477 C585.747071,402.999025 586.025389,403.236327 586.447266,403.400391 C586.658204,403.482422 587.030271,403.558593 587.563477,403.628906 C588.096682,403.699219 588.585935,403.740234 589.03125,403.751953 L589.03125,405 L578.326172,405 L578.326172,403.751953 C578.607423,403.728516 579.014646,403.6875 579.547852,403.628906 C580.081057,403.570312 580.453124,403.494141 580.664062,403.400391 C581.015627,403.248046 581.270507,403.025392 581.428711,402.732422 C581.586915,402.439452 581.666016,402.064455 581.666016,401.607422 L581.666016,383.607422 C581.666016,383.197264 581.607422,382.828127 581.490234,382.5 C581.373046,382.171873 581.097658,381.925782 580.664062,381.761719 C580.218748,381.609374 579.776369,381.500977 579.336914,381.436523 C578.897459,381.37207 578.519533,381.328125 578.203125,381.304688 L578.203125,380.056641 L589.59375,380.056641 C591.914074,380.056641 593.797844,380.616205 595.245117,381.735352 C596.69239,382.854498 597.416016,384.345694 597.416016,386.208984 Z M592.072266,390.462891 C592.470705,389.900388 592.734374,389.317386 592.863281,388.713867 C592.992188,388.110349 593.056641,387.568362 593.056641,387.087891 C593.056641,386.419919 592.97754,385.740238 592.819336,385.048828 C592.661132,384.357418 592.388674,383.753909 592.001953,383.238281 C591.591795,382.687497 591.052738,382.259767 590.384766,381.955078 C589.716794,381.650389 588.884771,381.498047 587.888672,381.498047 L585.410156,381.498047 L585.410156,392.519531 L587.203125,392.519531 C588.468756,392.519531 589.497066,392.323244 590.288086,391.930664 C591.079106,391.538084 591.673826,391.048831 592.072266,390.462891 Z M612.779297,405 L600.931641,405 L600.931641,403.751953 C601.283205,403.728516 601.831051,403.678711 602.575195,403.602539 C603.31934,403.526367 603.83203,403.447266 604.113281,403.365234 C604.476564,403.248046 604.754882,403.057619 604.948242,402.793945 C605.141603,402.530272 605.238281,402.134768 605.238281,401.607422 L605.238281,389.267578 L600.861328,389.267578 L600.861328,387.791016 L601.828125,387.791016 C603.093756,387.791016 604.227534,387.556643 605.229492,387.087891 C606.23145,386.619138 606.949217,386.115237 607.382812,385.576172 L608.841797,385.576172 C608.80664,386.337894 608.771485,387.228511 608.736328,388.248047 C608.701172,389.267583 608.683594,390.181637 608.683594,390.990234 L608.683594,401.414062 C608.683594,401.824221 608.774413,402.190428 608.956055,402.512695 C609.137696,402.834963 609.398436,403.072265 609.738281,403.224609 C610.04297,403.353516 610.541012,403.470703 611.232422,403.576172 C611.923832,403.681641 612.439451,403.740234 612.779297,403.751953 L612.779297,405 Z M634.646484,396.263672 L626.71875,396.263672 L626.71875,404.191406 L624.486328,404.191406 L624.486328,396.263672 L616.558594,396.263672 L616.558594,394.066406 L624.486328,394.066406 L624.486328,386.138672 L626.71875,386.138672 L626.71875,394.066406 L634.646484,394.066406 L634.646484,396.263672 Z M657.990234,386.208984 C657.990234,387.509772 657.735354,388.661128 657.225586,389.663086 C656.715818,390.665044 656.00977,391.494137 655.107422,392.150391 C654.216792,392.806644 653.238287,393.287108 652.171875,393.591797 C651.105463,393.896486 649.974615,394.048828 648.779297,394.048828 L645.984375,394.048828 L645.984375,401.607422 C645.984375,402.01758 646.051757,402.377928 646.186523,402.688477 C646.32129,402.999025 646.599607,403.236327 647.021484,403.400391 C647.232423,403.482422 647.60449,403.558593 648.137695,403.628906 C648.670901,403.699219 649.160154,403.740234 649.605469,403.751953 L649.605469,405 L638.900391,405 L638.900391,403.751953 C639.181642,403.728516 639.588865,403.6875 640.12207,403.628906 C640.655276,403.570312 641.027343,403.494141 641.238281,403.400391 C641.589846,403.248046 641.844726,403.025392 642.00293,402.732422 C642.161134,402.439452 642.240234,402.064455 642.240234,401.607422 L642.240234,383.607422 C642.240234,383.197264 642.181641,382.828127 642.064453,382.5 C641.947265,382.171873 641.671877,381.925782 641.238281,381.761719 C640.792967,381.609374 640.350588,381.500977 639.911133,381.436523 C639.471677,381.37207 639.093752,381.328125 638.777344,381.304688 L638.777344,380.056641 L650.167969,380.056641 C652.488293,380.056641 654.372063,380.616205 655.819336,381.735352 C657.266609,382.854498 657.990234,384.345694 657.990234,386.208984 Z M652.646484,390.462891 C653.044924,389.900388 653.308593,389.317386 653.4375,388.713867 C653.566407,388.110349 653.630859,387.568362 653.630859,387.087891 C653.630859,386.419919 653.551759,385.740238 653.393555,385.048828 C653.235351,384.357418 652.962893,383.753909 652.576172,383.238281 C652.166014,382.687497 651.626956,382.259767 650.958984,381.955078 C650.291012,381.650389 649.458989,381.498047 648.462891,381.498047 L645.984375,381.498047 L645.984375,392.519531 L647.777344,392.519531 C649.042975,392.519531 650.071285,392.323244 650.862305,391.930664 C651.653324,391.538084 652.248045,391.048831 652.646484,390.462891 Z M677.537109,405 L661.066406,405 L661.066406,402.609375 C661.382814,402.246092 661.822263,401.838869 662.384766,401.387695 C662.947268,400.936521 663.615231,400.447268 664.388672,399.919922 C664.857424,399.603514 665.419919,399.257814 666.076172,398.882812 C666.732425,398.507811 667.476558,398.097658 668.308594,397.652344 C669.23438,397.160154 669.946287,396.726564 670.444336,396.351562 C670.942385,395.976561 671.396482,395.513675 671.806641,394.962891 C672.076173,394.599608 672.292968,394.145511 672.457031,393.600586 C672.621095,393.055661 672.703125,392.279302 672.703125,391.271484 C672.703125,389.806633 672.310551,388.731449 671.525391,388.045898 C670.74023,387.360348 669.732428,387.017578 668.501953,387.017578 C667.740231,387.017578 667.019535,387.166991 666.339844,387.46582 C665.660153,387.76465 665.150392,388.177732 664.810547,388.705078 C664.892579,389.08008 664.995117,389.525388 665.118164,390.041016 C665.241212,390.556643 665.302734,391.060544 665.302734,391.552734 C665.302734,391.998049 665.118166,392.393553 664.749023,392.739258 C664.379881,393.084963 663.832035,393.257812 663.105469,393.257812 C662.519528,393.257812 662.068361,393.055666 661.751953,392.651367 C661.435545,392.247068 661.277344,391.705082 661.277344,391.025391 C661.277344,390.392575 661.453123,389.756839 661.804688,389.118164 C662.156252,388.479489 662.660153,387.890628 663.316406,387.351562 C663.960941,386.824216 664.757808,386.396486 665.707031,386.068359 C666.656255,385.740233 667.681635,385.576172 668.783203,385.576172 C671.185559,385.576172 673.092766,386.112299 674.504883,387.18457 C675.916999,388.256841 676.623047,389.689444 676.623047,391.482422 C676.623047,392.337895 676.497072,393.117184 676.245117,393.820312 C675.993163,394.523441 675.58594,395.144529 675.023438,395.683594 C674.402341,396.281253 673.675785,396.793943 672.84375,397.22168 C672.011715,397.649416 670.740243,398.244137 669.029297,399.005859 C668.009761,399.462893 667.060551,399.940427 666.181641,400.438477 C665.30273,400.936526 664.582034,401.41992 664.019531,401.888672 L677.537109,401.888672 L677.537109,405 Z M690.685547,394.523438 C690.685547,399.304711 689.774423,403.107408 687.952148,405.931641 C686.129874,408.755873 683.619157,410.367186 680.419922,410.765625 L680.419922,409.324219 C682.716808,408.902342 684.439447,407.452161 685.587891,404.973633 C686.736334,402.495105 687.310547,399.02346 687.310547,394.558594 C687.310547,389.87107 686.724615,386.296887 685.552734,383.835938 C684.380854,381.374988 682.669933,379.939455 680.419922,379.529297 L680.419922,378.070312 C683.619157,378.49219 686.129874,380.124009 687.952148,382.96582 C689.774423,385.807631 690.685547,389.660132 690.685547,394.523438 Z M713.185547,392.994141 L695.449219,392.994141 L695.449219,390.796875 L713.185547,390.796875 L713.185547,392.994141 Z M713.185547,399.533203 L695.449219,399.533203 L695.449219,397.335938 L713.185547,397.335938 L713.185547,399.533203 Z M735.984375,405 L727.476562,405 L727.476562,403.839844 C727.746095,403.816406 728.04492,403.792969 728.373047,403.769531 C728.701174,403.746094 728.970702,403.699219 729.181641,403.628906 C729.509767,403.523437 729.752929,403.338869 729.911133,403.075195 C730.069337,402.811522 730.148438,402.468752 730.148438,402.046875 L730.148438,393.134766 C730.148438,391.904291 729.858401,390.955081 729.27832,390.287109 C728.698239,389.619137 727.992192,389.285156 727.160156,389.285156 C726.550778,389.285156 725.985354,389.381835 725.463867,389.575195 C724.94238,389.768556 724.476565,390.005858 724.066406,390.287109 C723.667967,390.58008 723.363282,390.873045 723.152344,391.166016 C722.941405,391.458986 722.777344,391.705077 722.660156,391.904297 L722.660156,401.871094 C722.660156,402.269533 722.739257,402.597655 722.897461,402.855469 C723.055665,403.113283 723.298826,403.312499 723.626953,403.453125 C723.884767,403.570313 724.151366,403.658203 724.426758,403.716797 C724.70215,403.775391 725.003905,403.816406 725.332031,403.839844 L725.332031,405 L716.824219,405 L716.824219,403.839844 C717.093751,403.816406 717.374999,403.790039 717.667969,403.760742 C717.960939,403.731445 718.20703,403.6875 718.40625,403.628906 C718.734377,403.523437 718.980468,403.338869 719.144531,403.075195 C719.308595,402.811522 719.390625,402.468752 719.390625,402.046875 L719.390625,381.867188 C719.390625,381.468748 719.299806,381.070314 719.118164,380.671875 C718.936523,380.273436 718.69922,379.97461 718.40625,379.775391 C718.195311,379.623046 717.823245,379.514649 717.290039,379.450195 C716.756833,379.385742 716.326174,379.341797 715.998047,379.318359 L715.998047,378.193359 L722.414062,377.789062 L722.660156,378.052734 L722.660156,390.146484 L722.730469,390.146484 C723.117189,389.759764 723.468748,389.416994 723.785156,389.118164 C724.101564,388.819334 724.517576,388.505861 725.033203,388.177734 C725.478518,387.896483 726.002927,387.66211 726.606445,387.474609 C727.209964,387.287108 727.886715,387.193359 728.636719,387.193359 C730.183601,387.193359 731.373043,387.682612 732.205078,388.661133 C733.037114,389.639653 733.453125,391.048819 733.453125,392.888672 L733.453125,401.90625 C733.453125,402.316408 733.526366,402.64746 733.672852,402.899414 C733.819337,403.151368 734.062498,403.347656 734.402344,403.488281 C734.671876,403.593751 734.915038,403.672851 735.131836,403.725586 C735.348634,403.778321 735.632811,403.816406 735.984375,403.839844 L735.984375,405 Z M756.322266,401.501953 L754.757812,403.066406 L748.412109,396.685547 L742.048828,403.083984 L740.501953,401.519531 L746.900391,395.15625 L740.501953,388.810547 L742.066406,387.263672 L748.412109,393.626953 L754.775391,387.246094 L756.322266,388.792969 L749.923828,395.15625 L756.322266,401.501953 Z M780.808594,386.208984 C780.808594,387.509772 780.553713,388.661128 780.043945,389.663086 C779.534177,390.665044 778.82813,391.494137 777.925781,392.150391 C777.035152,392.806644 776.056646,393.287108 774.990234,393.591797 C773.923823,393.896486 772.792975,394.048828 771.597656,394.048828 L768.802734,394.048828 L768.802734,401.607422 C768.802734,402.01758 768.870117,402.377928 769.004883,402.688477 C769.139649,402.999025 769.417967,403.236327 769.839844,403.400391 C770.050782,403.482422 770.422849,403.558593 770.956055,403.628906 C771.48926,403.699219 771.978513,403.740234 772.423828,403.751953 L772.423828,405 L761.71875,405 L761.71875,403.751953 C762.000001,403.728516 762.407224,403.6875 762.94043,403.628906 C763.473635,403.570312 763.845702,403.494141 764.056641,403.400391 C764.408205,403.248046 764.663085,403.025392 764.821289,402.732422 C764.979493,402.439452 765.058594,402.064455 765.058594,401.607422 L765.058594,383.607422 C765.058594,383.197264 765.000001,382.828127 764.882812,382.5 C764.765624,382.171873 764.490237,381.925782 764.056641,381.761719 C763.611326,381.609374 763.168948,381.500977 762.729492,381.436523 C762.290037,381.37207 761.912111,381.328125 761.595703,381.304688 L761.595703,380.056641 L772.986328,380.056641 C775.306652,380.056641 777.190422,380.616205 778.637695,381.735352 C780.084968,382.854498 780.808594,384.345694 780.808594,386.208984 Z M775.464844,390.462891 C775.863283,389.900388 776.126952,389.317386 776.255859,388.713867 C776.384766,388.110349 776.449219,387.568362 776.449219,387.087891 C776.449219,386.419919 776.370118,385.740238 776.211914,385.048828 C776.05371,384.357418 775.781252,383.753909 775.394531,383.238281 C774.984373,382.687497 774.445316,382.259767 773.777344,381.955078 C773.109372,381.650389 772.277349,381.498047 771.28125,381.498047 L768.802734,381.498047 L768.802734,392.519531 L770.595703,392.519531 C771.861334,392.519531 772.889644,392.323244 773.680664,391.930664 C774.471684,391.538084 775.066404,391.048831 775.464844,390.462891 Z" id="h×(P1+P2)=h×P" fill="#417505"></path>
            <path d="M59.0917969,440 L50.5839844,440 L50.5839844,438.839844 C50.853517,438.816406 51.1523421,438.792969 51.4804688,438.769531 C51.8085954,438.746094 52.0781239,438.699219 52.2890625,438.628906 C52.6171891,438.523437 52.8603508,438.338869 53.0185547,438.075195 C53.1767586,437.811522 53.2558594,437.468752 53.2558594,437.046875 L53.2558594,428.134766 C53.2558594,426.904291 52.9658232,425.955081 52.3857422,425.287109 C51.8056612,424.619137 51.0996135,424.285156 50.2675781,424.285156 C49.6582001,424.285156 49.092776,424.381835 48.5712891,424.575195 C48.0498021,424.768556 47.5839864,425.005858 47.1738281,425.287109 C46.7753886,425.58008 46.4707042,425.873045 46.2597656,426.166016 C46.0488271,426.458986 45.8847662,426.705077 45.7675781,426.904297 L45.7675781,436.871094 C45.7675781,437.269533 45.8466789,437.597655 46.0048828,437.855469 C46.1630867,438.113283 46.4062484,438.312499 46.734375,438.453125 C46.9921888,438.570313 47.2587877,438.658203 47.5341797,438.716797 C47.8095717,438.775391 48.1113265,438.816406 48.4394531,438.839844 L48.4394531,440 L39.9316406,440 L39.9316406,438.839844 C40.2011732,438.816406 40.4824204,438.790039 40.7753906,438.760742 C41.0683608,438.731445 41.3144521,438.6875 41.5136719,438.628906 C41.8417985,438.523437 42.0878898,438.338869 42.2519531,438.075195 C42.4160164,437.811522 42.4980469,437.468752 42.4980469,437.046875 L42.4980469,416.867188 C42.4980469,416.468748 42.4072275,416.070314 42.2255859,415.671875 C42.0439444,415.273436 41.8066421,414.97461 41.5136719,414.775391 C41.3027333,414.623046 40.9306667,414.514649 40.3974609,414.450195 C39.8642551,414.385742 39.4335954,414.341797 39.1054688,414.318359 L39.1054688,413.193359 L45.5214844,412.789062 L45.7675781,413.052734 L45.7675781,425.146484 L45.8378906,425.146484 C46.2246113,424.759764 46.5761703,424.416994 46.8925781,424.118164 C47.208986,423.819334 47.6249974,423.505861 48.140625,423.177734 C48.5859397,422.896483 49.1103485,422.66211 49.7138672,422.474609 C50.3173858,422.287108 50.9941369,422.193359 51.7441406,422.193359 C53.2910234,422.193359 54.4804646,422.682612 55.3125,423.661133 C56.1445354,424.639653 56.5605469,426.048819 56.5605469,427.888672 L56.5605469,436.90625 C56.5605469,437.316408 56.6337883,437.64746 56.7802734,437.899414 C56.9267585,438.151368 57.1699202,438.347656 57.5097656,438.488281 C57.7792982,438.593751 58.0224599,438.672851 58.2392578,438.725586 C58.4560558,438.778321 58.7402326,438.816406 59.0917969,438.839844 L59.0917969,440 Z M79.4296875,436.501953 L77.8652344,438.066406 L71.5195312,431.685547 L65.15625,438.083984 L63.609375,436.519531 L70.0078125,430.15625 L63.609375,423.810547 L65.1738281,422.263672 L71.5195312,428.626953 L77.8828125,422.246094 L79.4296875,423.792969 L73.03125,430.15625 L79.4296875,436.501953 Z M103.916016,421.208984 C103.916016,422.509772 103.661135,423.661128 103.151367,424.663086 C102.641599,425.665044 101.935551,426.494137 101.033203,427.150391 C100.142574,427.806644 99.1640678,428.287108 98.0976562,428.591797 C97.0312447,428.896486 95.9003966,429.048828 94.7050781,429.048828 L91.9101562,429.048828 L91.9101562,436.607422 C91.9101562,437.01758 91.9775384,437.377928 92.1123047,437.688477 C92.247071,437.999025 92.5253885,438.236327 92.9472656,438.400391 C93.1582042,438.482422 93.5302708,438.558593 94.0634766,438.628906 C94.5966824,438.699219 95.0859353,438.740234 95.53125,438.751953 L95.53125,440 L84.8261719,440 L84.8261719,438.751953 C85.1074233,438.728516 85.5146458,438.6875 86.0478516,438.628906 C86.5810574,438.570312 86.9531239,438.494141 87.1640625,438.400391 C87.5156268,438.248046 87.770507,438.025392 87.9287109,437.732422 C88.0869149,437.439452 88.1660156,437.064455 88.1660156,436.607422 L88.1660156,418.607422 C88.1660156,418.197264 88.1074225,417.828127 87.9902344,417.5 C87.8730463,417.171873 87.5976584,416.925782 87.1640625,416.761719 C86.7187478,416.609374 86.2763694,416.500977 85.8369141,416.436523 C85.3974587,416.37207 85.0195328,416.328125 84.703125,416.304688 L84.703125,415.056641 L96.09375,415.056641 C98.4140741,415.056641 100.297844,415.616205 101.745117,416.735352 C103.19239,417.854498 103.916016,419.345694 103.916016,421.208984 Z M98.5722656,425.462891 C98.9707051,424.900388 99.2343744,424.317386 99.3632812,423.713867 C99.4921881,423.110349 99.5566406,422.568362 99.5566406,422.087891 C99.5566406,421.419919 99.4775399,420.740238 99.3193359,420.048828 C99.161132,419.357418 98.8886738,418.753909 98.5019531,418.238281 C98.0917948,417.687497 97.5527377,417.259767 96.8847656,416.955078 C96.2167935,416.650389 95.3847706,416.498047 94.3886719,416.498047 L91.9101562,416.498047 L91.9101562,427.519531 L93.703125,427.519531 C94.9687563,427.519531 95.9970664,427.323244 96.7880859,426.930664 C97.5791055,426.538084 98.1738261,426.048831 98.5722656,425.462891 Z M119.279297,440 L107.431641,440 L107.431641,438.751953 C107.783205,438.728516 108.331051,438.678711 109.075195,438.602539 C109.81934,438.526367 110.33203,438.447266 110.613281,438.365234 C110.976564,438.248046 111.254882,438.057619 111.448242,437.793945 C111.641603,437.530272 111.738281,437.134768 111.738281,436.607422 L111.738281,424.267578 L107.361328,424.267578 L107.361328,422.791016 L108.328125,422.791016 C109.593756,422.791016 110.727534,422.556643 111.729492,422.087891 C112.73145,421.619138 113.449217,421.115237 113.882812,420.576172 L115.341797,420.576172 C115.30664,421.337894 115.271485,422.228511 115.236328,423.248047 C115.201172,424.267583 115.183594,425.181637 115.183594,425.990234 L115.183594,436.414062 C115.183594,436.824221 115.274413,437.190428 115.456055,437.512695 C115.637696,437.834963 115.898436,438.072265 116.238281,438.224609 C116.54297,438.353516 117.041012,438.470703 117.732422,438.576172 C118.423832,438.681641 118.939451,438.740234 119.279297,438.751953 L119.279297,440 Z" id="h×P1" fill="#417505"></path>
            <path d="M379.091797,537 L370.583984,537 L370.583984,535.839844 C370.853517,535.816406 371.152342,535.792969 371.480469,535.769531 C371.808595,535.746094 372.078124,535.699219 372.289062,535.628906 C372.617189,535.523437 372.860351,535.338869 373.018555,535.075195 C373.176759,534.811522 373.255859,534.468752 373.255859,534.046875 L373.255859,525.134766 C373.255859,523.904291 372.965823,522.955081 372.385742,522.287109 C371.805661,521.619137 371.099614,521.285156 370.267578,521.285156 C369.6582,521.285156 369.092776,521.381835 368.571289,521.575195 C368.049802,521.768556 367.583986,522.005858 367.173828,522.287109 C366.775389,522.58008 366.470704,522.873045 366.259766,523.166016 C366.048827,523.458986 365.884766,523.705077 365.767578,523.904297 L365.767578,533.871094 C365.767578,534.269533 365.846679,534.597655 366.004883,534.855469 C366.163087,535.113283 366.406248,535.312499 366.734375,535.453125 C366.992189,535.570313 367.258788,535.658203 367.53418,535.716797 C367.809572,535.775391 368.111326,535.816406 368.439453,535.839844 L368.439453,537 L359.931641,537 L359.931641,535.839844 C360.201173,535.816406 360.48242,535.790039 360.775391,535.760742 C361.068361,535.731445 361.314452,535.6875 361.513672,535.628906 C361.841799,535.523437 362.08789,535.338869 362.251953,535.075195 C362.416016,534.811522 362.498047,534.468752 362.498047,534.046875 L362.498047,513.867188 C362.498047,513.468748 362.407227,513.070314 362.225586,512.671875 C362.043944,512.273436 361.806642,511.97461 361.513672,511.775391 C361.302733,511.623046 360.930667,511.514649 360.397461,511.450195 C359.864255,511.385742 359.433595,511.341797 359.105469,511.318359 L359.105469,510.193359 L365.521484,509.789062 L365.767578,510.052734 L365.767578,522.146484 L365.837891,522.146484 C366.224611,521.759764 366.57617,521.416994 366.892578,521.118164 C367.208986,520.819334 367.624997,520.505861 368.140625,520.177734 C368.58594,519.896483 369.110349,519.66211 369.713867,519.474609 C370.317386,519.287108 370.994137,519.193359 371.744141,519.193359 C373.291023,519.193359 374.480465,519.682612 375.3125,520.661133 C376.144535,521.639653 376.560547,523.048819 376.560547,524.888672 L376.560547,533.90625 C376.560547,534.316408 376.633788,534.64746 376.780273,534.899414 C376.926759,535.151368 377.16992,535.347656 377.509766,535.488281 C377.779298,535.593751 378.02246,535.672851 378.239258,535.725586 C378.456056,535.778321 378.740233,535.816406 379.091797,535.839844 L379.091797,537 Z M399.429688,533.501953 L397.865234,535.066406 L391.519531,528.685547 L385.15625,535.083984 L383.609375,533.519531 L390.007812,527.15625 L383.609375,520.810547 L385.173828,519.263672 L391.519531,525.626953 L397.882812,519.246094 L399.429688,520.792969 L393.03125,527.15625 L399.429688,533.501953 Z M423.916016,518.208984 C423.916016,519.509772 423.661135,520.661128 423.151367,521.663086 C422.641599,522.665044 421.935551,523.494137 421.033203,524.150391 C420.142574,524.806644 419.164068,525.287108 418.097656,525.591797 C417.031245,525.896486 415.900397,526.048828 414.705078,526.048828 L411.910156,526.048828 L411.910156,533.607422 C411.910156,534.01758 411.977538,534.377928 412.112305,534.688477 C412.247071,534.999025 412.525389,535.236327 412.947266,535.400391 C413.158204,535.482422 413.530271,535.558593 414.063477,535.628906 C414.596682,535.699219 415.085935,535.740234 415.53125,535.751953 L415.53125,537 L404.826172,537 L404.826172,535.751953 C405.107423,535.728516 405.514646,535.6875 406.047852,535.628906 C406.581057,535.570312 406.953124,535.494141 407.164062,535.400391 C407.515627,535.248046 407.770507,535.025392 407.928711,534.732422 C408.086915,534.439452 408.166016,534.064455 408.166016,533.607422 L408.166016,515.607422 C408.166016,515.197264 408.107422,514.828127 407.990234,514.5 C407.873046,514.171873 407.597658,513.925782 407.164062,513.761719 C406.718748,513.609374 406.276369,513.500977 405.836914,513.436523 C405.397459,513.37207 405.019533,513.328125 404.703125,513.304688 L404.703125,512.056641 L416.09375,512.056641 C418.414074,512.056641 420.297844,512.616205 421.745117,513.735352 C423.19239,514.854498 423.916016,516.345694 423.916016,518.208984 Z M418.572266,522.462891 C418.970705,521.900388 419.234374,521.317386 419.363281,520.713867 C419.492188,520.110349 419.556641,519.568362 419.556641,519.087891 C419.556641,518.419919 419.47754,517.740238 419.319336,517.048828 C419.161132,516.357418 418.888674,515.753909 418.501953,515.238281 C418.091795,514.687497 417.552738,514.259767 416.884766,513.955078 C416.216794,513.650389 415.384771,513.498047 414.388672,513.498047 L411.910156,513.498047 L411.910156,524.519531 L413.703125,524.519531 C414.968756,524.519531 415.997066,524.323244 416.788086,523.930664 C417.579106,523.538084 418.173826,523.048831 418.572266,522.462891 Z M443.462891,537 L426.992188,537 L426.992188,534.609375 C427.308595,534.246092 427.748044,533.838869 428.310547,533.387695 C428.87305,532.936521 429.541012,532.447268 430.314453,531.919922 C430.783205,531.603514 431.3457,531.257814 432.001953,530.882812 C432.658206,530.507811 433.40234,530.097658 434.234375,529.652344 C435.160161,529.160154 435.872068,528.726564 436.370117,528.351562 C436.868167,527.976561 437.322264,527.513675 437.732422,526.962891 C438.001954,526.599608 438.218749,526.145511 438.382812,525.600586 C438.546876,525.055661 438.628906,524.279302 438.628906,523.271484 C438.628906,521.806633 438.236332,520.731449 437.451172,520.045898 C436.666012,519.360348 435.658209,519.017578 434.427734,519.017578 C433.666012,519.017578 432.945316,519.166991 432.265625,519.46582 C431.585934,519.76465 431.076174,520.177732 430.736328,520.705078 C430.81836,521.08008 430.920898,521.525388 431.043945,522.041016 C431.166993,522.556643 431.228516,523.060544 431.228516,523.552734 C431.228516,523.998049 431.043947,524.393553 430.674805,524.739258 C430.305662,525.084963 429.757816,525.257812 429.03125,525.257812 C428.44531,525.257812 427.994142,525.055666 427.677734,524.651367 C427.361327,524.247068 427.203125,523.705082 427.203125,523.025391 C427.203125,522.392575 427.378904,521.756839 427.730469,521.118164 C428.082033,520.479489 428.585934,519.890628 429.242188,519.351562 C429.886722,518.824216 430.683589,518.396486 431.632812,518.068359 C432.582036,517.740233 433.607416,517.576172 434.708984,517.576172 C437.11134,517.576172 439.018548,518.112299 440.430664,519.18457 C441.84278,520.256841 442.548828,521.689444 442.548828,523.482422 C442.548828,524.337895 442.422853,525.117184 442.170898,525.820312 C441.918944,526.523441 441.511722,527.144529 440.949219,527.683594 C440.328122,528.281253 439.601567,528.793943 438.769531,529.22168 C437.937496,529.649416 436.666024,530.244137 434.955078,531.005859 C433.935542,531.462893 432.986333,531.940427 432.107422,532.438477 C431.228511,532.936526 430.507815,533.41992 429.945312,533.888672 L443.462891,533.888672 L443.462891,537 Z" id="h×P2" fill="#417505"></path>
            <path d="M265.015625,580 L258.300781,580 C256.812493,577.667957 255.467779,575.652352 254.266602,573.953125 C253.065424,572.253898 251.761726,570.501962 250.355469,568.697266 L247.806641,568.697266 L247.806641,576.607422 C247.806641,577.01758 247.871093,577.377928 248,577.688477 C248.128907,577.999025 248.404295,578.236327 248.826172,578.400391 C249.03711,578.482422 249.406247,578.558593 249.933594,578.628906 C250.46094,578.699219 250.906248,578.740234 251.269531,578.751953 L251.269531,580 L240.722656,580 L240.722656,578.751953 C241.003908,578.728516 241.41113,578.6875 241.944336,578.628906 C242.477542,578.570312 242.849608,578.494141 243.060547,578.400391 C243.412111,578.248046 243.666991,578.025392 243.825195,577.732422 C243.983399,577.439452 244.0625,577.064455 244.0625,576.607422 L244.0625,558.572266 C244.0625,558.162107 244.003907,557.79883 243.886719,557.482422 C243.769531,557.166014 243.494143,556.925782 243.060547,556.761719 C242.767577,556.656249 242.386721,556.559571 241.917969,556.47168 C241.449216,556.383789 241.050783,556.328125 240.722656,556.304688 L240.722656,555.056641 L252.236328,555.056641 C253.291021,555.056641 254.281245,555.165038 255.207031,555.381836 C256.132817,555.598634 256.970699,555.947263 257.720703,556.427734 C258.447269,556.896487 259.027342,557.508785 259.460938,558.264648 C259.894533,559.020512 260.111328,559.931635 260.111328,560.998047 C260.111328,561.958989 259.964845,562.80859 259.671875,563.546875 C259.378905,564.28516 258.945315,564.923825 258.371094,565.462891 C257.843747,565.966799 257.210941,566.403318 256.472656,566.772461 C255.734371,567.141603 254.919926,567.455077 254.029297,567.712891 C255.259772,569.341805 256.282222,570.712885 257.09668,571.826172 C257.911137,572.939459 258.91015,574.292961 260.09375,575.886719 C260.609378,576.589847 261.075193,577.108397 261.491211,577.442383 C261.907229,577.776369 262.32031,578.048827 262.730469,578.259766 C263.035158,578.41211 263.416013,578.529296 263.873047,578.611328 C264.33008,578.69336 264.710936,578.740234 265.015625,578.751953 L265.015625,580 Z M255.769531,561.402344 C255.769531,559.890617 255.335942,558.692387 254.46875,557.807617 C253.601558,556.922847 252.376961,556.480469 250.794922,556.480469 L247.806641,556.480469 L247.806641,567.185547 L250.109375,567.185547 C251.726571,567.185547 253.074213,566.666997 254.152344,565.629883 C255.230474,564.592768 255.769531,563.183603 255.769531,561.402344 Z M278.480469,580 L266.632812,580 L266.632812,578.751953 C266.984377,578.728516 267.532223,578.678711 268.276367,578.602539 C269.020512,578.526367 269.533202,578.447266 269.814453,578.365234 C270.177736,578.248046 270.456054,578.057619 270.649414,577.793945 C270.842774,577.530272 270.939453,577.134768 270.939453,576.607422 L270.939453,564.267578 L266.5625,564.267578 L266.5625,562.791016 L267.529297,562.791016 C268.794928,562.791016 269.928706,562.556643 270.930664,562.087891 C271.932622,561.619138 272.650388,561.115237 273.083984,560.576172 L274.542969,560.576172 C274.507812,561.337894 274.472656,562.228511 274.4375,563.248047 C274.402344,564.267583 274.384766,565.181637 274.384766,565.990234 L274.384766,576.414062 C274.384766,576.824221 274.475585,577.190428 274.657227,577.512695 C274.838868,577.834963 275.099608,578.072265 275.439453,578.224609 C275.744142,578.353516 276.242184,578.470703 276.933594,578.576172 C277.625003,578.681641 278.140623,578.740234 278.480469,578.751953 L278.480469,580 Z" id="R1" fill="#2673BA"></path>
            <path d="M27.015625,553 L20.3007812,553 C18.8124926,550.667957 17.4677794,548.652352 16.2666016,546.953125 C15.0654237,545.253898 13.7617258,543.501962 12.3554688,541.697266 L9.80664062,541.697266 L9.80664062,549.607422 C9.80664062,550.01758 9.87109311,550.377928 10,550.688477 C10.1289069,550.999025 10.4042948,551.236327 10.8261719,551.400391 C11.0371104,551.482422 11.4062474,551.558593 11.9335938,551.628906 C12.4609401,551.699219 12.9062482,551.740234 13.2695312,551.751953 L13.2695312,553 L2.72265625,553 L2.72265625,551.751953 C3.00390766,551.728516 3.41113015,551.6875 3.94433594,551.628906 C4.47754173,551.570312 4.84960832,551.494141 5.06054688,551.400391 C5.41211113,551.248046 5.6669914,551.025392 5.82519531,550.732422 C5.98339923,550.439452 6.0625,550.064455 6.0625,549.607422 L6.0625,531.572266 C6.0625,531.162107 6.00390684,530.79883 5.88671875,530.482422 C5.76953066,530.166014 5.49414279,529.925782 5.06054688,529.761719 C4.76757666,529.656249 4.38672109,529.559571 3.91796875,529.47168 C3.44921641,529.383789 3.05078289,529.328125 2.72265625,529.304688 L2.72265625,528.056641 L14.2363281,528.056641 C15.2910209,528.056641 16.2812454,528.165038 17.2070312,528.381836 C18.1328171,528.598634 18.9706994,528.947263 19.7207031,529.427734 C20.4472693,529.896487 21.0273416,530.508785 21.4609375,531.264648 C21.8945334,532.020512 22.1113281,532.931635 22.1113281,533.998047 C22.1113281,534.958989 21.9648452,535.80859 21.671875,536.546875 C21.3789048,537.28516 20.9453154,537.923825 20.3710938,538.462891 C19.8437474,538.966799 19.2109412,539.403318 18.4726562,539.772461 C17.7343713,540.141603 16.9199263,540.455077 16.0292969,540.712891 C17.2597718,542.341805 18.2822225,543.712885 19.0966797,544.826172 C19.9111369,545.939459 20.9101503,547.292961 22.09375,548.886719 C22.6093776,549.589847 23.0751932,550.108397 23.4912109,550.442383 C23.9072286,550.776369 24.3203104,551.048827 24.7304688,551.259766 C25.0351578,551.41211 25.4160133,551.529296 25.8730469,551.611328 C26.3300804,551.69336 26.710936,551.740234 27.015625,551.751953 L27.015625,553 Z M17.7695312,534.402344 C17.7695312,532.890617 17.3359418,531.692387 16.46875,530.807617 C15.6015582,529.922847 14.376961,529.480469 12.7949219,529.480469 L9.80664062,529.480469 L9.80664062,540.185547 L12.109375,540.185547 C13.7265706,540.185547 15.0742134,539.666997 16.1523438,538.629883 C17.2304741,537.592768 17.7695312,536.183603 17.7695312,534.402344 Z M40.4804688,553 L28.6328125,553 L28.6328125,551.751953 C28.9843768,551.728516 29.5322228,551.678711 30.2763672,551.602539 C31.0205115,551.526367 31.5332017,551.447266 31.8144531,551.365234 C32.1777362,551.248046 32.4560537,551.057619 32.6494141,550.793945 C32.8427744,550.530272 32.9394531,550.134768 32.9394531,549.607422 L32.9394531,537.267578 L28.5625,537.267578 L28.5625,535.791016 L29.5292969,535.791016 C30.7949282,535.791016 31.9287059,535.556643 32.9306641,535.087891 C33.9326222,534.619138 34.6503885,534.115237 35.0839844,533.576172 L36.5429688,533.576172 C36.5078123,534.337894 36.4726564,535.228511 36.4375,536.248047 C36.4023436,537.267583 36.3847656,538.181637 36.3847656,538.990234 L36.3847656,549.414062 C36.3847656,549.824221 36.475585,550.190428 36.6572266,550.512695 C36.8388681,550.834963 37.0996077,551.072265 37.4394531,551.224609 C37.7441421,551.353516 38.242184,551.470703 38.9335938,551.576172 C39.6250035,551.681641 40.1406233,551.740234 40.4804688,551.751953 L40.4804688,553 Z M62.3476562,544.263672 L54.4199219,544.263672 L54.4199219,552.191406 L52.1875,552.191406 L52.1875,544.263672 L44.2597656,544.263672 L44.2597656,542.066406 L52.1875,542.066406 L52.1875,534.138672 L54.4199219,534.138672 L54.4199219,542.066406 L62.3476562,542.066406 L62.3476562,544.263672 Z M90.8945312,553 L84.1796875,553 C82.6913988,550.667957 81.3466857,548.652352 80.1455078,546.953125 C78.9443299,545.253898 77.640632,543.501962 76.234375,541.697266 L73.6855469,541.697266 L73.6855469,549.607422 C73.6855469,550.01758 73.7499994,550.377928 73.8789062,550.688477 C74.0078131,550.999025 74.283201,551.236327 74.7050781,551.400391 C74.9160167,551.482422 75.2851536,551.558593 75.8125,551.628906 C76.3398464,551.699219 76.7851544,551.740234 77.1484375,551.751953 L77.1484375,553 L66.6015625,553 L66.6015625,551.751953 C66.8828139,551.728516 67.2900364,551.6875 67.8232422,551.628906 C68.356448,551.570312 68.7285146,551.494141 68.9394531,551.400391 C69.2910174,551.248046 69.5458976,551.025392 69.7041016,550.732422 C69.8623055,550.439452 69.9414062,550.064455 69.9414062,549.607422 L69.9414062,531.572266 C69.9414062,531.162107 69.8828131,530.79883 69.765625,530.482422 C69.6484369,530.166014 69.373049,529.925782 68.9394531,529.761719 C68.6464829,529.656249 68.2656273,529.559571 67.796875,529.47168 C67.3281227,529.383789 66.9296891,529.328125 66.6015625,529.304688 L66.6015625,528.056641 L78.1152344,528.056641 C79.1699271,528.056641 80.1601516,528.165038 81.0859375,528.381836 C82.0117234,528.598634 82.8496056,528.947263 83.5996094,529.427734 C84.3261755,529.896487 84.9062478,530.508785 85.3398438,531.264648 C85.7734397,532.020512 85.9902344,532.931635 85.9902344,533.998047 C85.9902344,534.958989 85.8437515,535.80859 85.5507812,536.546875 C85.257811,537.28516 84.8242216,537.923825 84.25,538.462891 C83.7226536,538.966799 83.0898474,539.403318 82.3515625,539.772461 C81.6132776,540.141603 80.7988326,540.455077 79.9082031,540.712891 C81.138678,542.341805 82.1611287,543.712885 82.9755859,544.826172 C83.7900431,545.939459 84.7890566,547.292961 85.9726562,548.886719 C86.4882838,549.589847 86.9540995,550.108397 87.3701172,550.442383 C87.7861349,550.776369 88.1992167,551.048827 88.609375,551.259766 C88.914064,551.41211 89.2949196,551.529296 89.7519531,551.611328 C90.2089867,551.69336 90.5898422,551.740234 90.8945312,551.751953 L90.8945312,553 Z M81.6484375,534.402344 C81.6484375,532.890617 81.2148481,531.692387 80.3476562,530.807617 C79.4804644,529.922847 78.2558673,529.480469 76.6738281,529.480469 L73.6855469,529.480469 L73.6855469,540.185547 L75.9882812,540.185547 C77.6054768,540.185547 78.9531196,539.666997 80.03125,538.629883 C81.1093804,537.592768 81.6484375,536.183603 81.6484375,534.402344 Z M108.542969,553 L92.0722656,553 L92.0722656,550.609375 C92.3886735,550.246092 92.8281222,549.838869 93.390625,549.387695 C93.9531278,548.936521 94.6210899,548.447268 95.3945312,547.919922 C95.8632836,547.603514 96.425778,547.257814 97.0820312,546.882812 C97.7382845,546.507811 98.4824177,546.097658 99.3144531,545.652344 C100.240239,545.160154 100.952146,544.726564 101.450195,544.351562 C101.948245,543.976561 102.402342,543.513675 102.8125,542.962891 C103.082033,542.599608 103.298827,542.145511 103.462891,541.600586 C103.626954,541.055661 103.708984,540.279302 103.708984,539.271484 C103.708984,537.806633 103.31641,536.731449 102.53125,536.045898 C101.74609,535.360348 100.738287,535.017578 99.5078125,535.017578 C98.7460899,535.017578 98.025394,535.166991 97.3457031,535.46582 C96.6660122,535.76465 96.1562517,536.177732 95.8164062,536.705078 C95.8984379,537.08008 96.0009759,537.525388 96.1240234,538.041016 C96.2470709,538.556643 96.3085938,539.060544 96.3085938,539.552734 C96.3085938,539.998049 96.1240253,540.393553 95.7548828,540.739258 C95.3857403,541.084963 94.8378943,541.257812 94.1113281,541.257812 C93.5253877,541.257812 93.0742203,541.055666 92.7578125,540.651367 C92.4414047,540.247068 92.2832031,539.705082 92.2832031,539.025391 C92.2832031,538.392575 92.4589826,537.756839 92.8105469,537.118164 C93.1621111,536.479489 93.6660123,535.890628 94.3222656,535.351562 C94.9668001,534.824216 95.7636671,534.396486 96.7128906,534.068359 C97.6621141,533.740233 98.6874945,533.576172 99.7890625,533.576172 C102.191418,533.576172 104.098626,534.112299 105.510742,535.18457 C106.922859,536.256841 107.628906,537.689444 107.628906,539.482422 C107.628906,540.337895 107.502931,541.117184 107.250977,541.820312 C106.999022,542.523441 106.5918,543.144529 106.029297,543.683594 C105.4082,544.281253 104.681645,544.793943 103.849609,545.22168 C103.017574,545.649416 101.746102,546.244137 100.035156,547.005859 C99.0156199,547.462893 98.0664106,547.940427 97.1875,548.438477 C96.3085894,548.936526 95.5878934,549.41992 95.0253906,549.888672 L108.542969,549.888672 L108.542969,553 Z" id="R1+R2" fill="#2673BA"></path>
            <path d="M0.098623771,494.595105 L746.500006,494.595105" id="Path-4" stroke="#979797"></path>
            <path d="M628.015625,661 L621.300781,661 C619.812493,658.667957 618.467779,656.652352 617.266602,654.953125 C616.065424,653.253898 614.761726,651.501962 613.355469,649.697266 L610.806641,649.697266 L610.806641,657.607422 C610.806641,658.01758 610.871093,658.377928 611,658.688477 C611.128907,658.999025 611.404295,659.236327 611.826172,659.400391 C612.03711,659.482422 612.406247,659.558593 612.933594,659.628906 C613.46094,659.699219 613.906248,659.740234 614.269531,659.751953 L614.269531,661 L603.722656,661 L603.722656,659.751953 C604.003908,659.728516 604.41113,659.6875 604.944336,659.628906 C605.477542,659.570312 605.849608,659.494141 606.060547,659.400391 C606.412111,659.248046 606.666991,659.025392 606.825195,658.732422 C606.983399,658.439452 607.0625,658.064455 607.0625,657.607422 L607.0625,639.572266 C607.0625,639.162107 607.003907,638.79883 606.886719,638.482422 C606.769531,638.166014 606.494143,637.925782 606.060547,637.761719 C605.767577,637.656249 605.386721,637.559571 604.917969,637.47168 C604.449216,637.383789 604.050783,637.328125 603.722656,637.304688 L603.722656,636.056641 L615.236328,636.056641 C616.291021,636.056641 617.281245,636.165038 618.207031,636.381836 C619.132817,636.598634 619.970699,636.947263 620.720703,637.427734 C621.447269,637.896487 622.027342,638.508785 622.460938,639.264648 C622.894533,640.020512 623.111328,640.931635 623.111328,641.998047 C623.111328,642.958989 622.964845,643.80859 622.671875,644.546875 C622.378905,645.28516 621.945315,645.923825 621.371094,646.462891 C620.843747,646.966799 620.210941,647.403318 619.472656,647.772461 C618.734371,648.141603 617.919926,648.455077 617.029297,648.712891 C618.259772,650.341805 619.282222,651.712885 620.09668,652.826172 C620.911137,653.939459 621.91015,655.292961 623.09375,656.886719 C623.609378,657.589847 624.075193,658.108397 624.491211,658.442383 C624.907229,658.776369 625.32031,659.048827 625.730469,659.259766 C626.035158,659.41211 626.416013,659.529296 626.873047,659.611328 C627.33008,659.69336 627.710936,659.740234 628.015625,659.751953 L628.015625,661 Z M618.769531,642.402344 C618.769531,640.890617 618.335942,639.692387 617.46875,638.807617 C616.601558,637.922847 615.376961,637.480469 613.794922,637.480469 L610.806641,637.480469 L610.806641,648.185547 L613.109375,648.185547 C614.726571,648.185547 616.074213,647.666997 617.152344,646.629883 C618.230474,645.592768 618.769531,644.183603 618.769531,642.402344 Z M645.664062,661 L629.193359,661 L629.193359,658.609375 C629.509767,658.246092 629.949216,657.838869 630.511719,657.387695 C631.074222,656.936521 631.742184,656.447268 632.515625,655.919922 C632.984377,655.603514 633.546872,655.257814 634.203125,654.882812 C634.859378,654.507811 635.603511,654.097658 636.435547,653.652344 C637.361333,653.160154 638.07324,652.726564 638.571289,652.351562 C639.069338,651.976561 639.523435,651.513675 639.933594,650.962891 C640.203126,650.599608 640.419921,650.145511 640.583984,649.600586 C640.748048,649.055661 640.830078,648.279302 640.830078,647.271484 C640.830078,645.806633 640.437504,644.731449 639.652344,644.045898 C638.867184,643.360348 637.859381,643.017578 636.628906,643.017578 C635.867184,643.017578 635.146488,643.166991 634.466797,643.46582 C633.787106,643.76465 633.277345,644.177732 632.9375,644.705078 C633.019532,645.08008 633.12207,645.525388 633.245117,646.041016 C633.368165,646.556643 633.429688,647.060544 633.429688,647.552734 C633.429688,647.998049 633.245119,648.393553 632.875977,648.739258 C632.506834,649.084963 631.958988,649.257812 631.232422,649.257812 C630.646481,649.257812 630.195314,649.055666 629.878906,648.651367 C629.562498,648.247068 629.404297,647.705082 629.404297,647.025391 C629.404297,646.392575 629.580076,645.756839 629.931641,645.118164 C630.283205,644.479489 630.787106,643.890628 631.443359,643.351562 C632.087894,642.824216 632.884761,642.396486 633.833984,642.068359 C634.783208,641.740233 635.808588,641.576172 636.910156,641.576172 C639.312512,641.576172 641.21972,642.112299 642.631836,643.18457 C644.043952,644.256841 644.75,645.689444 644.75,647.482422 C644.75,648.337895 644.624025,649.117184 644.37207,649.820312 C644.120116,650.523441 643.712893,651.144529 643.150391,651.683594 C642.529294,652.281253 641.802739,652.793943 640.970703,653.22168 C640.138668,653.649416 638.867196,654.244137 637.15625,655.005859 C636.136714,655.462893 635.187504,655.940427 634.308594,656.438477 C633.429683,656.936526 632.708987,657.41992 632.146484,657.888672 L645.664062,657.888672 L645.664062,661 Z" id="R2" fill="#2673BA"></path>
            <polyline id="Path-6" stroke="#4A90E2" stroke-width="2" points="579.164869 659.197122 114.675509 473.297803 114.675509 518.064077"></polyline>
            <path d="M173.806383,534.88645 L833.457342,123.309247" id="Path-7" stroke="#D0021B" stroke-width="2"></path>
            <polyline id="Path-9" stroke="#417505" stroke-width="2" points="141.527701 460.831251 495.329905 607.798943 495.329905 381.734265"></polyline>
            <circle id="Oval" stroke="#417505" stroke-width="3" fill="#7ED321" cx="142" cy="460" r="6"></circle>
            <circle id="Oval" stroke="#2673BA" stroke-width="3" fill="#4A90E2" cx="115" cy="519" r="6"></circle>
            <circle id="Oval" stroke="#B50004" stroke-width="3" fill="#D0021B" cx="309" cy="539" r="6"></circle>
            <circle id="Oval" stroke="#417505" stroke-width="3" fill="#7ED321" cx="495" cy="382" r="6"></circle>
            <circle id="Oval" stroke="#B50004" stroke-width="3" fill="#D0021B" cx="174" cy="534" r="6"></circle>
            <circle id="Oval" stroke="#417505" stroke-width="3" fill="#7ED321" cx="351" cy="546" r="6"></circle>
            <circle id="Oval" stroke="#2673BA" stroke-width="3" fill="#4A90E2" cx="577" cy="658" r="6"></circle>
            <circle id="Oval" stroke="#2673BA" stroke-width="3" fill="#4A90E2" cx="271" cy="536" r="6"></circle>
            <circle id="Oval" stroke="#B50004" stroke-width="3" fill="#D0021B" cx="833" cy="123" r="6"></circle>
            <path d="M307.859643,540.031597 L307.859643,450.806896" id="Path-3" stroke="#D0021B" stroke-width="2"></path>
        </g>
    </g>
</svg>