<?xml version="1.0" encoding="UTF-8" standalone="no"?>
<svg
   width="1065px"
   height="995px"
   viewBox="0 0 1065 995"
   version="1.1"
   id="svg15248"
   sodipodi:docname="schnorr_outlines.svg"
   inkscape:version="1.1.2 (08b2f3d93c, 2022-04-05)"
   xmlns:inkscape="http://www.inkscape.org/namespaces/inkscape"
   xmlns:sodipodi="http://sodipodi.sourceforge.net/DTD/sodipodi-0.dtd"
   xmlns="http://www.w3.org/2000/svg"
   xmlns:svg="http://www.w3.org/2000/svg"
   xmlns:rdf="http://www.w3.org/1999/02/22-rdf-syntax-ns#"
   xmlns:cc="http://creativecommons.org/ns#"
   xmlns:dc="http://purl.org/dc/elements/1.1/">
  <defs
     id="defs15252" />
  <sodipodi:namedview
     id="namedview15250"
     pagecolor="#ffffff"
     bordercolor="#666666"
     borderopacity="1.0"
     inkscape:pageshadow="2"
     inkscape:pageopacity="0.0"
     inkscape:pagecheckerboard="0"
     showgrid="false"
     inkscape:zoom="0.94070352"
     inkscape:cx="720.20566"
     inkscape:cy="497.5"
     inkscape:window-width="1920"
     inkscape:window-height="1136"
     inkscape:window-x="0"
     inkscape:window-y="0"
     inkscape:window-maximized="1"
     inkscape:current-layer="svg15248" />
  <!-- Generator: Sketch 52.6 (67491) - http://www.bohemiancoding.com/sketch -->
  <title
     id="title15181">Group</title>
  <desc
     id="desc15183">Created with Sketch.</desc>
  <g
     id="Schnorr"
     stroke="none"
     stroke-width="1"
     fill="none"
     fill-rule="evenodd">
    <g
       id="Group"
       transform="translate(0.000000, 3.000000)">
      <path
         id="Shape"
         style="stroke:#000000;stroke-width:4;stroke-linecap:square"
         d="m 200.72727,494.4 0.86226,-5.61699 0.86225,-2.30183 0.86226,-1.74938 1.72451,-2.73518 1.72452,-2.18016 1.72451,-1.84818 2.58677,-2.36158 2.58676,-2.01724 2.58677,-1.76689 3.44903,-2.06089 3.44902,-1.7982 4.31128,-1.95799 4.31128,-1.69908 4.31128,-1.48686 5.17354,-1.55064 5.17354,-1.3354 6.03579,-1.32781 6.03579,-1.11618 6.89805,-1.0546 7.76031,-0.94664 8.62256,-0.8016 9.48482,-0.63073 10.34707,-0.44777 12.07159,-0.28322 15.52061,-0.1198 37.93927,-0.17972 12.07158,-0.32917 10.34708,-0.49006 9.48482,-0.65697 9.48481,-0.8852 8.62257,-1.02234 8.62256,-1.24309 8.62256,-1.4725 8.62256,-1.70637 8.62256,-1.94097 8.62256,-2.17309 8.62256,-2.40018 8.62257,-2.62039 9.48481,-3.12705 9.48482,-3.37184 9.48482,-3.60445 9.48482,-3.82497 10.34707,-4.41053 10.34707,-4.64489 11.20933,-5.28119 11.20933,-5.52558 11.20933,-5.75628 12.07159,-6.44303 12.07158,-6.68276 12.93385,-7.41247 12.93384,-7.66077 13.7961,-8.43224 13.7961,-8.68936 13.79609,-8.93564 14.65836,-9.75326 14.65835,-10.01024 14.65836,-10.25813 15.52061,-11.12271 15.52061,-11.38285 15.52061,-11.63517 16.38287,-12.54752 16.38286,-12.81324 16.38287,-13.07209 17.24512,-14.03281 17.24513,-14.3059 17.24512,-14.57276 18.10738,-15.58233 18.10738,-15.86404 18.10738,-16.14001 18.10737,-16.41063 18.96964,-17.47687 18.96964,-17.762963 18.96963,-18.043971 18.96966,-18.320191 19.8319,-19.443356 19.8319,-19.735424 19.8319,-20.022858 1.7245,-1.754555 v 0" />
      <path
         id="polyline15186"
         style="stroke:#000000;stroke-width:4;stroke-linecap:square"
         d="m 200.72727,494.4 0.86226,5.61699 0.86225,2.30183 0.86226,1.74938 1.72451,2.73518 1.72452,2.18016 1.72451,1.84818 2.58677,2.36158 2.58676,2.01724 2.58677,1.76689 3.44903,2.06089 3.44902,1.7982 4.31128,1.95799 4.31128,1.69908 4.31128,1.48686 5.17354,1.55064 5.17354,1.3354 6.03579,1.32781 6.03579,1.11618 6.89805,1.0546 7.76031,0.94664 8.62256,0.80159 9.48482,0.63074 10.34707,0.44777 12.07159,0.28322 15.52061,0.1198 37.93927,0.17972 12.07158,0.32917 10.34708,0.49006 9.48482,0.65697 9.48481,0.8852 8.62257,1.02234 8.62256,1.24309 8.62256,1.47249 8.62256,1.70638 8.62256,1.94097 8.62256,2.17309 8.62256,2.40018 8.62257,2.62039 9.48481,3.12705 9.48482,3.37184 9.48482,3.60445 9.48482,3.82497 10.34707,4.41053 10.34707,4.64489 11.20933,5.28119 11.20933,5.52558 11.20933,5.75628 12.07159,6.44303 12.07158,6.68276 12.93385,7.41247 12.93384,7.66077 13.7961,8.43224 13.7961,8.68936 13.79609,8.93564 14.65836,9.75326 14.65835,10.01024 14.65836,10.25813 15.52061,11.12271 15.52061,11.38285 15.52061,11.63517 16.38287,12.54752 16.38286,12.81324 16.38287,13.07209 17.24512,14.03281 17.24513,14.3059 17.24512,14.57276 18.10738,15.58233 18.10738,15.86404 18.10738,16.14001 18.10737,16.41063 18.96964,17.47687 18.96964,17.76296 18.96963,18.04397 18.96966,18.3202 19.8319,19.44335 19.8319,19.73542 19.8319,20.02286 1.7245,1.75456 v 0" />
      <path
         id="Path-2"
         style="stroke:#4a90e2;stroke-width:2"
         d="M 934.92785,122.97592 V 866.63223 L 243.681,460.30096" />
      <path
         id="Oval"
         style="fill:#4a90e2;stroke:#2673ba;stroke-width:3"
         d="m 250,460 a 6,6 0 0 1 -6,6 6,6 0 0 1 -6,-6 6,6 0 0 1 6,-6 6,6 0 0 1 6,6 z" />
      <path
         id="circle15190"
         style="fill:#d0021b;stroke:#b50004;stroke-width:3"
         d="m 379,536 a 6,6 0 0 1 -6,6 6,6 0 0 1 -6,-6 6,6 0 0 1 6,-6 6,6 0 0 1 6,6 z" />
      <path
         id="circle15192"
         style="fill:#9b9b9b;stroke:#000000;stroke-width:3"
         d="m 528,421 a 6,6 0 0 1 -6,6 6,6 0 0 1 -6,-6 6,6 0 0 1 6,-6 6,6 0 0 1 6,6 z" />
      <path
         id="circle15194"
         style="fill:#4a90e2;stroke:#2673ba;stroke-width:3"
         d="m 941,123 a 6,6 0 0 1 -6,6 6,6 0 0 1 -6,-6 6,6 0 0 1 6,-6 6,6 0 0 1 6,6 z" />
      <path
         id="circle15196"
         style="fill:#d0021b;stroke:#b50004;stroke-width:3"
         d="m 381,453 a 6,6 0 0 1 -6,6 6,6 0 0 1 -6,-6 6,6 0 0 1 6,-6 6,6 0 0 1 6,6 z" />
      <g
         aria-label="G"
         id="G"
         style="font-size:36px;font-family:Georgia;fill:#000000">
        <path
           d="m 560.04492,427.5957 q -0.61523,-3.28711 -2.5664,-4.85156 -1.95118,-1.58203 -5.43165,-1.58203 -4.53515,0 -6.76757,2.91797 -2.23243,2.91797 -2.23243,8.82422 0,5.7832 2.30274,8.7539 2.30273,2.97071 6.76758,2.97071 1.98633,0 3.79687,-0.49219 1.81055,-0.49219 3.44531,-1.47656 v -6.76758 h -4.93945 v -1.88086 h 8.50781 v 9.79101 q -2.33789,1.35352 -5.04492,2.03907 -2.68945,0.66797 -5.76562,0.66797 -5.94141,0 -9.52735,-3.70899 -3.56836,-3.72656 -3.56836,-9.89648 0,-6.22266 3.58594,-9.91407 3.58594,-3.70898 9.65039,-3.70898 2.25,0 4.64063,0.52734 2.4082,0.50977 5.11523,1.56446 v 6.22265 z"
           id="path57766" />
      </g>
      <g
         aria-label="s×G"
         id="s×G"
         style="font-size:36px;font-family:Georgia;fill:#000000">
        <path
           d="m 867.02148,95.962891 v -4.359375 h 1.86329 q 0.0703,2.091796 1.30078,3.128906 1.24804,1.037109 3.67382,1.037109 2.17969,0 3.32227,-0.808594 1.14258,-0.826171 1.14258,-2.390625 0,-1.230468 -0.84375,-1.986328 -0.82617,-0.755859 -3.51563,-1.617187 l -2.33789,-0.791016 q -2.4082,-0.773437 -3.49804,-1.933594 -1.07227,-1.160156 -1.07227,-2.953125 0,-2.566406 1.88086,-4.02539 1.88086,-1.458985 5.20312,-1.458985 1.47657,0 3.11133,0.386719 1.63477,0.386719 3.375,1.125 v 4.078125 h -1.86328 q -0.0703,-1.810547 -1.26562,-2.830078 -1.19532,-1.019531 -3.25196,-1.019531 -2.03906,0 -3.09375,0.720703 -1.03711,0.720703 -1.03711,2.162109 0,1.177735 0.79102,1.898438 0.79102,0.703125 3.16406,1.441406 l 2.56641,0.791016 q 2.6543,0.826172 3.81445,2.074218 1.17774,1.230469 1.17774,3.181641 0,2.654297 -2.03907,4.183594 -2.02148,1.511719 -5.58984,1.511719 -1.81055,0 -3.5332,-0.386719 -1.72266,-0.386719 -3.44532,-1.160156 z"
           id="path52890" />
        <path
           d="m 908.68164,77.59375 -8.13867,8.138672 8.13867,8.103515 -2.02148,1.96875 -8.10352,-8.085937 -8.10352,8.085937 -2.0039,-1.96875 8.08594,-8.103515 -8.08594,-8.138672 2.0039,-1.986328 8.10352,8.103515 8.10352,-8.103515 z"
           id="path52892" />
        <path
           d="m 936.68359,78.595703 q -0.61523,-3.287109 -2.5664,-4.851562 -1.95117,-1.582032 -5.43164,-1.582032 -4.53516,0 -6.76758,2.917969 -2.23242,2.917969 -2.23242,8.824219 0,5.783203 2.30273,8.753906 2.30274,2.970703 6.76758,2.970703 1.98633,0 3.79687,-0.492187 1.81055,-0.492188 3.44532,-1.476563 v -6.767578 h -4.93946 v -1.880859 h 8.50782 v 9.791015 q -2.33789,1.353516 -5.04493,2.039063 -2.68945,0.667969 -5.76562,0.667969 -5.94141,0 -9.52734,-3.708985 -3.56836,-3.726562 -3.56836,-9.896484 0,-6.222656 3.58593,-9.914063 3.58594,-3.708984 9.65039,-3.708984 2.25,0 4.64063,0.527344 2.4082,0.509765 5.11523,1.564453 v 6.222656 z"
           id="path52894" />
      </g>
      <g
         aria-label="hash(R,P,m)×P"
         id="hash(P,R,m)×P"
         style="font-size:32px;font-family:Georgia;fill:#000000">
        <path
           d="m 7.3125,442 v -1.65625 h 2.59375 v -21 h -2.75 v -1.65625 h 5.625 v 10.65625 q 0.796875,-1.6875 2.0625,-2.54688 1.28125,-0.85937 2.96875,-0.85937 2.75,0 4.046875,1.57812 1.296875,1.57813 1.296875,4.92188 v 8.90625 h 2.5625 V 442 h -7.9375 v -1.65625 h 2.484375 v -8 q 0,-3.04688 -0.75,-4.15625 -0.734375,-1.125 -2.640625,-1.125 -2,0 -3.046875,1.45312 -1.046875,1.45313 -1.046875,4.23438 v 7.59375 h 2.5 V 442 Z"
           id="path40064" />
        <path
           d="m 39.34375,436.78125 v -3.51563 h -3.703125 q -2.140625,0 -3.1875,0.92188 -1.046875,0.92187 -1.046875,2.82812 0,1.73438 1.0625,2.75 1.0625,1.01563 2.875,1.01563 1.796875,0 2.890625,-1.10938 1.109375,-1.10937 1.109375,-2.89062 z m 2.875,-5.15625 v 8.71875 h 2.5625 V 442 h -5.4375 v -1.79688 q -0.953125,1.15625 -2.203125,1.70313 -1.25,0.54687 -2.921875,0.54687 -2.765625,0 -4.390625,-1.46875 -1.625,-1.46875 -1.625,-3.96875 0,-2.57812 1.859375,-4 1.859375,-1.42187 5.25,-1.42187 h 4.03125 v -1.14063 q 0,-1.89062 -1.15625,-2.92187 -1.140625,-1.04688 -3.21875,-1.04688 -1.71875,0 -2.734375,0.78125 -1.015625,0.78125 -1.265625,2.3125 h -1.484375 v -3.35937 q 1.5,-0.64063 2.90625,-0.95313 1.421875,-0.32812 2.765625,-0.32812 3.453125,0 5.25,1.71875 1.8125,1.70312 1.8125,4.96875 z"
           id="path40066" />
        <path
           d="m 47.484375,441.07812 v -3.875 h 1.65625 q 0.0625,1.85938 1.15625,2.78125 1.109375,0.92188 3.265625,0.92188 1.9375,0 2.953125,-0.71875 1.015625,-0.73438 1.015625,-2.125 0,-1.09375 -0.75,-1.76563 -0.734375,-0.67187 -3.125,-1.4375 l -2.078125,-0.70312 q -2.140625,-0.6875 -3.109375,-1.71875 -0.953125,-1.03125 -0.953125,-2.625 0,-2.28125 1.671875,-3.57813 1.671875,-1.29687 4.625,-1.29687 1.3125,0 2.765625,0.34375 1.453125,0.34375 3,1 v 3.625 h -1.65625 q -0.0625,-1.60938 -1.125,-2.51563 -1.0625,-0.90625 -2.890625,-0.90625 -1.8125,0 -2.75,0.64063 -0.921875,0.64062 -0.921875,1.92187 0,1.04688 0.703125,1.6875 0.703125,0.625 2.8125,1.28125 l 2.28125,0.70313 q 2.359375,0.73437 3.390625,1.84375 1.046875,1.09375 1.046875,2.82812 0,2.35938 -1.8125,3.71875 -1.796875,1.34375 -4.96875,1.34375 -1.609375,0 -3.140625,-0.34375 -1.53125,-0.34375 -3.0625,-1.03125 z"
           id="path40068" />
        <path
           d="m 63.421875,442 v -1.65625 h 2.59375 v -21 h -2.75 v -1.65625 h 5.625 v 10.65625 q 0.796875,-1.6875 2.0625,-2.54688 1.28125,-0.85937 2.96875,-0.85937 2.75,0 4.046875,1.57812 1.296875,1.57813 1.296875,4.92188 v 8.90625 h 2.5625 V 442 h -7.9375 v -1.65625 H 76.375 v -8 q 0,-3.04688 -0.75,-4.15625 -0.734375,-1.125 -2.640625,-1.125 -2,0 -3.046875,1.45312 -1.046875,1.45313 -1.046875,4.23438 v 7.59375 h 2.5 V 442 Z"
           id="path40070" />
        <path
           d="M 92.921875,446.98437 Q 89.125,445.28125 87.1875,441.59375 q -1.9375,-3.70313 -1.9375,-9.25 0,-5.5625 1.9375,-9.25 1.9375,-3.70313 5.734375,-5.40625 v 1.53125 q -2.40625,1.65625 -3.453125,4.67187 -1.046875,3 -1.046875,8.45313 0,5.4375 1.046875,8.45312 1.046875,3 3.453125,4.65625 z"
           id="path40072" />
        <path
           d="m 110.53125,430.42187 q 1.09375,0.29688 1.875,1.01563 0.79688,0.70312 1.42188,1.98437 l 3.39062,6.92188 h 2.84375 V 442 h -5.5 l -3.64062,-7.42188 Q 109.875,432.42187 109,431.79687 q -0.875,-0.64062 -2.40625,-0.64062 h -3.48437 v 9.1875 h 3.29687 V 442 h -9.4375 v -1.65625 h 2.96875 v -20 h -2.96875 v -1.67188 h 11.82813 q 3.40625,0 5.25,1.625 1.85937,1.625 1.85937,4.60938 0,2.40625 -1.35937,3.79687 -1.34375,1.375 -4.01563,1.71875 z m -7.42187,-0.9375 h 4.60937 q 2.35938,0 3.48438,-1.10937 1.125,-1.125 1.125,-3.46875 0,-2.34375 -1.125,-3.45313 -1.125,-1.10937 -3.48438,-1.10937 h -4.60937 z"
           id="path40074" />
        <path
           d="m 120.45313,445.10937 q 1.46875,-1.07812 2.15625,-2.54687 0.6875,-1.45313 0.6875,-3.53125 v -0.57813 h 3.07812 q -0.125,2.67188 -1.26562,4.57813 -1.125,1.92187 -3.40625,3.32812 z"
           id="path40076" />
        <path
           d="m 137.375,430.125 h 4.125 q 2.32812,0 3.54687,-1.25 1.21875,-1.26563 1.21875,-3.64063 0,-2.39062 -1.21875,-3.64062 -1.21875,-1.25 -3.54687,-1.25 h -4.125 z M 131.23437,442 v -1.65625 h 2.96875 v -20 h -2.96875 v -1.67188 h 11.03125 q 3.5,0 5.54688,1.78125 2.04687,1.76563 2.04687,4.78125 0,3 -2.04687,4.78125 -2.04688,1.78125 -5.54688,1.78125 H 137.375 v 8.54688 h 3.60937 V 442 Z"
           id="path40078" />
        <path
           d="m 145.67187,445.10937 q 1.46875,-1.07812 2.15625,-2.54687 0.6875,-1.45313 0.6875,-3.53125 v -0.57813 h 3.07813 q -0.125,2.67188 -1.26563,4.57813 -1.125,1.92187 -3.40625,3.32812 z"
           id="path40080" />
        <path
           d="m 171.26562,428.625 q 0.82813,-1.82813 2.10938,-2.75 1.29687,-0.9375 3.01562,-0.9375 2.60938,0 3.89063,1.625 1.28125,1.60937 1.28125,4.875 v 8.90625 h 2.59375 V 442 h -7.96875 v -1.65625 h 2.5 v -8.57813 q 0,-2.54687 -0.75,-3.625 -0.75,-1.07812 -2.48438,-1.07812 -1.92187,0 -2.9375,1.45312 -1,1.45313 -1,4.23438 v 7.59375 h 2.5 V 442 h -7.875 v -1.65625 h 2.5 v -8.6875 q 0,-2.48438 -0.75,-3.53125 -0.75,-1.0625 -2.48437,-1.0625 -1.92188,0 -2.9375,1.45312 -1,1.45313 -1,4.23438 v 7.59375 h 2.5 V 442 H 156 v -1.65625 h 2.59375 v -13.3125 h -2.75 v -1.64063 h 5.625 v 2.95313 q 0.79687,-1.65625 2.03125,-2.53125 1.23437,-0.875 2.79687,-0.875 1.9375,0 3.23438,0.96875 1.29687,0.95312 1.73437,2.71875 z"
           id="path40082" />
        <path
           d="m 187.29687,446.98437 v -1.53125 q 2.40625,-1.65625 3.45313,-4.65625 1.0625,-3.01562 1.0625,-8.45312 0,-5.45313 -1.0625,-8.45313 -1.04688,-3.01562 -3.45313,-4.67187 v -1.53125 q 3.8125,1.70312 5.75,5.40625 1.9375,3.6875 1.9375,9.25 0,5.54687 -1.9375,9.25 -1.9375,3.6875 -5.75,5.39062 z"
           id="path40084" />
        <path
           d="m 219.92187,424.75 -7.23437,7.23437 7.23437,7.20313 -1.79687,1.75 -7.20313,-7.1875 -7.20312,7.1875 -1.78125,-1.75 7.1875,-7.20313 -7.1875,-7.23437 1.78125,-1.76563 7.20312,7.20313 7.20313,-7.20313 z"
           id="path40086" />
        <path
           d="m 232.23437,430.125 h 4.125 q 2.32813,0 3.54688,-1.25 1.21875,-1.26563 1.21875,-3.64063 0,-2.39062 -1.21875,-3.64062 -1.21875,-1.25 -3.54688,-1.25 h -4.125 z M 226.09375,442 v -1.65625 h 2.96875 v -20 h -2.96875 v -1.67188 H 237.125 q 3.5,0 5.54687,1.78125 2.04688,1.76563 2.04688,4.78125 0,3 -2.04688,4.78125 -2.04687,1.78125 -5.54687,1.78125 h -4.89063 v 8.54688 h 3.60938 V 442 Z"
           id="path40088" />
      </g>
      <g
         aria-label="s×G = R + hash(R,P,m)×P"
         transform="rotate(-90,905,470.5)"
         id="s×G-=-R-+-hash(P,R,m"
         style="font-size:36px;font-family:Georgia;fill:#9b9b9b">
        <path
           d="m 698.02148,481.96289 v -4.35937 h 1.86329 q 0.0703,2.09179 1.30078,3.1289 1.24804,1.03711 3.67382,1.03711 2.17969,0 3.32227,-0.80859 1.14258,-0.82617 1.14258,-2.39063 0,-1.23047 -0.84375,-1.98633 -0.82617,-0.75586 -3.51563,-1.61718 l -2.33789,-0.79102 q -2.4082,-0.77344 -3.49804,-1.93359 -1.07227,-1.16016 -1.07227,-2.95313 0,-2.5664 1.88086,-4.02539 1.88086,-1.45898 5.20312,-1.45898 1.47657,0 3.11133,0.38672 1.63477,0.38671 3.375,1.125 v 4.07812 h -1.86328 q -0.0703,-1.81055 -1.26562,-2.83008 -1.19532,-1.01953 -3.25196,-1.01953 -2.03906,0 -3.09375,0.7207 -1.03711,0.72071 -1.03711,2.16211 0,1.17774 0.79102,1.89844 0.79102,0.70313 3.16406,1.44141 l 2.56641,0.79101 q 2.6543,0.82618 3.81445,2.07422 1.17774,1.23047 1.17774,3.18164 0,2.6543 -2.03907,4.1836 -2.02148,1.51172 -5.58984,1.51172 -1.81055,0 -3.5332,-0.38672 -1.72266,-0.38672 -3.44532,-1.16016 z"
           id="path55265" />
        <path
           d="m 739.68164,463.59375 -8.13867,8.13867 8.13867,8.10352 -2.02148,1.96875 -8.10352,-8.08594 -8.10352,8.08594 -2.0039,-1.96875 8.08594,-8.10352 -8.08594,-8.13867 2.0039,-1.98633 8.10352,8.10352 8.10352,-8.10352 z"
           id="path55267" />
        <path
           d="m 767.68359,464.5957 q -0.61523,-3.28711 -2.5664,-4.85156 -1.95117,-1.58203 -5.43164,-1.58203 -4.53516,0 -6.76758,2.91797 -2.23242,2.91797 -2.23242,8.82422 0,5.7832 2.30273,8.7539 2.30274,2.97071 6.76758,2.97071 1.98633,0 3.79687,-0.49219 1.81055,-0.49219 3.44532,-1.47656 v -6.76758 h -4.93946 v -1.88086 h 8.50782 v 9.79101 q -2.33789,1.35352 -5.04493,2.03907 -2.68945,0.66797 -5.76562,0.66797 -5.94141,0 -9.52734,-3.70899 -3.56836,-3.72656 -3.56836,-9.89648 0,-6.22266 3.58593,-9.91407 3.58594,-3.70898 9.65039,-3.70898 2.25,0 4.64063,0.52734 2.4082,0.50977 5.11523,1.56446 v 6.22265 z"
           id="path55269" />
        <path
           d="m 788.6543,466.72266 h 22.53515 v 2.8125 H 788.6543 Z m 0,7.17187 h 22.53515 v 2.8125 H 788.6543 Z"
           id="path55271" />
        <path
           d="m 843.69141,469.97461 q 1.23046,0.33398 2.10937,1.14258 0.89649,0.79101 1.59961,2.23242 l 3.81445,7.78711 h 3.19922 V 483 h -6.1875 l -4.0957,-8.34961 q -1.17774,-2.42578 -2.16211,-3.12891 -0.98438,-0.7207 -2.70703,-0.7207 h -3.91992 v 10.33594 h 3.70898 V 483 h -10.61719 v -1.86328 h 3.33985 v -22.5 h -3.33985 v -1.88086 h 13.30664 q 3.83204,0 5.90625,1.82812 2.0918,1.82813 2.0918,5.18555 0,2.70703 -1.5293,4.27149 -1.51171,1.54687 -4.51757,1.93359 z m -8.34961,-1.05469 h 5.18554 q 2.6543,0 3.91993,-1.24805 1.26562,-1.26562 1.26562,-3.90234 0,-2.63672 -1.26562,-3.88476 -1.26563,-1.24805 -3.91993,-1.24805 h -5.18554 z"
           id="path55273" />
        <path
           d="m 881.48437,460.42969 v 9.86133 h 9.86133 v 2.84765 h -9.86133 V 483 h -2.8125 v -9.86133 h -9.86132 v -2.84765 h 9.86132 v -9.86133 z"
           id="path55275" />
        <path
           d="m 908.08008,483 v -1.86328 h 2.91797 v -23.625 h -3.09375 v -1.86328 h 6.32812 v 11.98828 q 0.89649,-1.89844 2.32031,-2.86524 1.44141,-0.96679 3.33985,-0.96679 3.09375,0 4.55273,1.77539 1.45899,1.77539 1.45899,5.53711 v 10.01953 h 2.88281 V 483 h -8.92969 v -1.86328 h 2.79492 v -9 q 0,-3.42774 -0.84375,-4.67578 -0.82617,-1.26563 -2.9707,-1.26563 -2.25,0 -3.42773,1.63477 -1.17774,1.63476 -1.17774,4.76367 v 8.54297 h 2.8125 V 483 Z"
           id="path55277" />
        <path
           d="m 944.11523,477.12891 v -3.95508 h -4.16601 q -2.4082,0 -3.58594,1.03711 -1.17773,1.03711 -1.17773,3.18164 0,1.95117 1.19531,3.09375 1.19531,1.14258 3.23437,1.14258 2.02149,0 3.25196,-1.24805 1.24804,-1.24805 1.24804,-3.25195 z m 3.23438,-5.80079 v 9.8086 h 2.88281 V 483 h -6.11719 v -2.02148 q -1.07226,1.30078 -2.47851,1.91601 -1.40625,0.61524 -3.28711,0.61524 -3.11133,0 -4.93945,-1.65235 -1.82813,-1.65234 -1.82813,-4.46484 0,-2.90039 2.0918,-4.5 2.09179,-1.59961 5.90625,-1.59961 h 4.53515 v -1.2832 q 0,-2.12696 -1.30078,-3.28711 -1.2832,-1.17774 -3.62109,-1.17774 -1.93359,0 -3.07617,0.87891 -1.14258,0.8789 -1.42383,2.60156 h -1.66992 v -3.7793 q 1.6875,-0.7207 3.26953,-1.07226 1.59961,-0.36914 3.11133,-0.36914 3.88476,0 5.90625,1.93359 2.03906,1.91602 2.03906,5.58984 z"
           id="path55279" />
        <path
           d="m 953.27344,481.96289 v -4.35937 h 1.86328 q 0.0703,2.09179 1.30078,3.1289 1.24805,1.03711 3.67383,1.03711 2.17969,0 3.32226,-0.80859 1.14258,-0.82617 1.14258,-2.39063 0,-1.23047 -0.84375,-1.98633 -0.82617,-0.75586 -3.51562,-1.61718 l -2.33789,-0.79102 q -2.40821,-0.77344 -3.49805,-1.93359 -1.07227,-1.16016 -1.07227,-2.95313 0,-2.5664 1.88086,-4.02539 1.88086,-1.45898 5.20313,-1.45898 1.47656,0 3.11133,0.38672 1.63476,0.38671 3.375,1.125 v 4.07812 h -1.86329 q -0.0703,-1.81055 -1.26562,-2.83008 -1.19531,-1.01953 -3.25195,-1.01953 -2.03907,0 -3.09375,0.7207 -1.03711,0.72071 -1.03711,2.16211 0,1.17774 0.79101,1.89844 0.79102,0.70313 3.16407,1.44141 l 2.5664,0.79101 q 2.6543,0.82618 3.81445,2.07422 1.17774,1.23047 1.17774,3.18164 0,2.6543 -2.03906,4.1836 -2.02149,1.51172 -5.58985,1.51172 -1.81054,0 -3.5332,-0.38672 -1.72266,-0.38672 -3.44531,-1.16016 z"
           id="path55281" />
        <path
           d="m 971.20312,483 v -1.86328 h 2.91797 v -23.625 h -3.09375 v -1.86328 h 6.32813 v 11.98828 q 0.89648,-1.89844 2.32031,-2.86524 1.44141,-0.96679 3.33984,-0.96679 3.09375,0 4.55274,1.77539 1.45898,1.77539 1.45898,5.53711 v 10.01953 h 2.88282 V 483 h -8.92969 v -1.86328 h 2.79492 v -9 q 0,-3.42774 -0.84375,-4.67578 -0.82617,-1.26563 -2.9707,-1.26563 -2.25,0 -3.42774,1.63477 -1.17773,1.63476 -1.17773,4.76367 v 8.54297 h 2.8125 V 483 Z"
           id="path55283" />
        <path
           d="m 1004.3906,488.60742 q -4.2715,-1.91601 -6.45115,-6.06445 -2.17968,-4.16602 -2.17968,-10.40625 0,-6.25781 2.17968,-10.40625 2.17965,-4.16602 6.45115,-6.08203 v 1.72265 q -2.707,1.86328 -3.8847,5.25586 -1.17778,3.375 -1.17778,9.50977 0,6.11719 1.17778,9.50976 1.1777,3.375 3.8847,5.23829 z"
           id="path55285" />
        <path
           d="m 1024.2012,469.97461 q 1.2304,0.33398 2.1093,1.14258 0.8965,0.79101 1.5997,2.23242 l 3.8144,7.78711 h 3.1992 V 483 h -6.1875 l -4.0957,-8.34961 q -1.1777,-2.42578 -2.1621,-3.12891 -0.9844,-0.7207 -2.707,-0.7207 h -3.9199 v 10.33594 h 3.7089 V 483 h -10.6171 v -1.86328 h 3.3398 v -22.5 h -3.3398 v -1.88086 h 13.3066 q 3.832,0 5.9063,1.82812 2.0917,1.82813 2.0917,5.18555 0,2.70703 -1.5292,4.27149 -1.5118,1.54687 -4.5176,1.93359 z m -8.3496,-1.05469 h 5.1855 q 2.6543,0 3.9199,-1.24805 1.2657,-1.26562 1.2657,-3.90234 0,-2.63672 -1.2657,-3.88476 -1.2656,-1.24805 -3.9199,-1.24805 h -5.1855 z"
           id="path55287" />
        <path
           d="m 1035.3633,486.49805 q 1.6523,-1.21289 2.4258,-2.86524 0.7734,-1.63476 0.7734,-3.97265 v -0.65039 h 3.4629 q -0.1406,3.00585 -1.4238,5.15039 -1.2657,2.16211 -3.8321,3.74414 z"
           id="path55289" />
        <path
           d="m 1054.4004,469.64062 h 4.6406 q 2.6192,0 3.9903,-1.40625 1.371,-1.42382 1.371,-4.0957 0,-2.68945 -1.371,-4.0957 -1.3711,-1.40625 -3.9903,-1.40625 h -4.6406 z M 1047.4922,483 v -1.86328 h 3.3398 v -22.5 h -3.3398 v -1.88086 h 12.4101 q 3.9375,0 6.2403,2.00391 2.3027,1.98632 2.3027,5.3789 0,3.375 -2.3027,5.37891 -2.3028,2.0039 -6.2403,2.0039 h -5.5019 v 9.61524 h 4.0605 V 483 Z"
           id="path55291" />
        <path
           d="m 1063.7344,486.49805 q 1.6523,-1.21289 2.4258,-2.86524 0.7734,-1.63476 0.7734,-3.97265 v -0.65039 h 3.4629 q -0.1406,3.00585 -1.4238,5.15039 -1.2657,2.16211 -3.8321,3.74414 z"
           id="path55293" />
        <path
           d="m 1092.5273,467.95312 q 0.9317,-2.05664 2.3731,-3.09375 1.459,-1.05468 3.3926,-1.05468 2.9355,0 4.3769,1.82812 1.4414,1.81055 1.4414,5.48438 v 10.01953 h 2.918 V 483 h -8.9648 v -1.86328 h 2.8125 v -9.65039 q 0,-2.86524 -0.8438,-4.07813 -0.8437,-1.21289 -2.7949,-1.21289 -2.1621,0 -3.3047,1.63477 -1.125,1.63476 -1.125,4.76367 v 8.54297 h 2.8125 V 483 h -8.8594 v -1.86328 h 2.8125 v -9.77344 q 0,-2.79492 -0.8437,-3.97266 -0.8438,-1.19531 -2.795,-1.19531 -2.1621,0 -3.3046,1.63477 -1.125,1.63476 -1.125,4.76367 v 8.54297 h 2.8125 V 483 h -8.9649 v -1.86328 h 2.918 v -14.97656 h -3.0938 v -1.84571 h 6.3282 v 3.32227 q 0.8964,-1.86328 2.2851,-2.84766 1.3887,-0.98437 3.1465,-0.98437 2.1797,0 3.6387,1.08984 1.459,1.07227 1.9511,3.05859 z"
           id="path55295" />
        <path
           d="m 1110.5625,488.60742 v -1.72265 q 2.707,-1.86329 3.8848,-5.23829 1.1953,-3.39257 1.1953,-9.50976 0,-6.13477 -1.1953,-9.50977 -1.1778,-3.39258 -3.8848,-5.25586 v -1.72265 q 4.2891,1.91601 6.4688,6.08203 2.1796,4.14844 2.1796,10.40625 0,6.24023 -2.1796,10.40625 -2.1797,4.14844 -6.4688,6.06445 z"
           id="path55297" />
        <path
           d="m 1147.2656,463.59375 -8.1386,8.13867 8.1386,8.10352 -2.0215,1.96875 -8.1035,-8.08594 -8.1035,8.08594 -2.0039,-1.96875 8.0859,-8.10352 -8.0859,-8.13867 2.0039,-1.98633 8.1035,8.10352 8.1035,-8.10352 z"
           id="path55299" />
        <path
           d="m 1161.1172,469.64062 h 4.6406 q 2.6192,0 3.9902,-1.40625 1.3711,-1.42382 1.3711,-4.0957 0,-2.68945 -1.3711,-4.0957 -1.371,-1.40625 -3.9902,-1.40625 h -4.6406 z M 1154.209,483 v -1.86328 h 3.3398 v -22.5 h -3.3398 v -1.88086 h 12.4101 q 3.9375,0 6.2403,2.00391 2.3027,1.98632 2.3027,5.3789 0,3.375 -2.3027,5.37891 -2.3028,2.0039 -6.2403,2.0039 h -5.5019 v 9.61524 h 4.0605 V 483 Z"
           id="path55301" />
      </g>
      <g
         aria-label="P = pk×G"
         id="P-=-pk×G"
         style="font-size:36px;font-family:Georgia;fill:#000000">
        <path
           d="m 309.89453,383.64062 h 4.64063 q 2.61914,0 3.99023,-1.40625 1.37109,-1.42382 1.37109,-4.0957 0,-2.68945 -1.37109,-4.0957 -1.37109,-1.40625 -3.99023,-1.40625 h -4.64063 z M 302.98633,397 v -1.86328 h 3.33984 v -22.5 h -3.33984 v -1.88086 h 12.41015 q 3.9375,0 6.24024,2.00391 2.30273,1.98632 2.30273,5.3789 0,3.375 -2.30273,5.37891 -2.30274,2.0039 -6.24024,2.0039 h -5.50195 v 9.61524 h 4.06055 V 397 Z"
           id="path42977" />
        <path
           d="m 340.48047,380.72266 h 22.53515 v 2.8125 h -22.53515 z m 0,7.17187 h 22.53515 v 2.8125 h -22.53515 z"
           id="path42979" />
        <path
           d="m 385.65625,386.73437 v 1.84571 q 0,3.375 1.2832,5.15039 1.30078,1.75781 3.76172,1.75781 2.47852,0 3.74414,-1.98633 1.28321,-1.98633 1.28321,-5.85351 0,-3.88477 -1.28321,-5.85352 -1.26562,-1.96875 -3.74414,-1.96875 -2.46094,0 -3.76172,1.77539 -1.2832,1.77539 -1.2832,5.13281 z m -3.23438,-6.53906 h -3.11132 v -1.88086 h 6.3457 v 2.91797 q 0.94922,-1.75781 2.4082,-2.58398 1.47657,-0.84375 3.63867,-0.84375 3.44532,0 5.625,2.72461 2.17969,2.72461 2.17969,7.11914 0,4.39453 -2.17969,7.13672 -2.17968,2.72461 -5.625,2.72461 -2.1621,0 -3.63867,-0.82618 -1.45898,-0.84375 -2.4082,-2.60156 v 8.52539 h 3.05859 v 1.88086 h -9.40429 v -1.88086 h 3.11132 z"
           id="path42981" />
        <path
           d="m 411.61914,397 h -9.07031 v -1.86328 h 2.91797 v -23.625 h -3.11133 v -1.86328 h 6.3457 v 17.80664 l 7.875,-7.25977 h -2.68945 v -1.88086 h 8.45508 v 1.88086 h -3.19922 l -5.55469,5.13281 7.10156,9.8086 h 2.68946 V 397 h -9.21094 v -1.86328 h 2.67187 l -5.58984,-7.68164 -2.54883,2.37304 v 5.3086 h 2.91797 z"
           id="path42983" />
        <path
           d="m 448.33984,377.59375 -8.13867,8.13867 8.13867,8.10352 -2.02148,1.96875 -8.10352,-8.08594 -8.10351,8.08594 -2.00391,-1.96875 8.08594,-8.10352 -8.08594,-8.13867 2.00391,-1.98633 8.10351,8.10352 8.10352,-8.10352 z"
           id="path42985" />
        <path
           d="m 476.3418,378.5957 q -0.61524,-3.28711 -2.56641,-4.85156 -1.95117,-1.58203 -5.43164,-1.58203 -4.53516,0 -6.76758,2.91797 -2.23242,2.91797 -2.23242,8.82422 0,5.7832 2.30273,8.7539 2.30274,2.97071 6.76758,2.97071 1.98633,0 3.79688,-0.49219 1.81054,-0.49219 3.44531,-1.47656 v -6.76758 h -4.93945 v -1.88086 h 8.50781 v 9.79101 q -2.33789,1.35352 -5.04492,2.03907 -2.68946,0.66797 -5.76563,0.66797 -5.9414,0 -9.52734,-3.70899 -3.56836,-3.72656 -3.56836,-9.89648 0,-6.22266 3.58594,-9.91407 3.58593,-3.70898 9.65039,-3.70898 2.25,0 4.64062,0.52734 2.40821,0.50977 5.11524,1.56446 v 6.22265 z"
           id="path42987" />
      </g>
      <g
         aria-label="y^2 = x^3+7"
         transform="translate(753.569331, 674.538944) rotate(36.000000) translate(-753.569331, -674.538944) "
         id="y^2-=-x^3+7"
         style="font-size:36px;font-family:Georgia;fill:#9b9b9b">
        <path
           d="m 659.33887,690.46667 1.23047,-3.11132 -6.97852,-17.1211 h -2.12695 v -1.88086 h 8.5957 v 1.88086 h -2.98828 l 5.25586,12.84961 5.25586,-12.84961 h -2.79492 v -1.88086 h 7.01367 v 1.88086 h -2.0918 l -8.56055,21.02344 q -0.8789,2.17969 -1.95117,2.9707 -1.07226,0.8086 -3.02344,0.8086 -0.82617,0 -1.70507,-0.14063 -0.86133,-0.14062 -1.74024,-0.40429 v -3.56836 h 1.65235 q 0.10546,1.19531 0.59765,1.70507 0.50977,0.52735 1.56446,0.52735 0.96679,0 1.54687,-0.54492 0.59766,-0.52735 1.24805,-2.14454 z"
           id="path61946" />
        <path
           d="m 688.71191,660.7948 9.54493,9.79102 h -2.68946 l -8.57812,-6.69727 -8.56055,6.69727 h -2.70703 l 9.54492,-9.79102 z"
           id="path61948" />
        <path
           d="m 706.67676,667.05261 h -1.96875 v -4.67578 q 1.88086,-1.00195 3.77929,-1.5293 1.91602,-0.52734 3.74415,-0.52734 4.0957,0 6.46875,1.98633 2.37304,1.98633 2.37304,5.39648 0,3.84961 -5.3789,9.21094 -0.42188,0.4043 -0.63282,0.61523 l -6.62695,6.62696 h 10.95117 v -3.23438 h 2.05664 v 6.11719 h -16.92773 v -1.91602 l 7.96289,-7.94531 q 2.63672,-2.63672 3.76172,-4.83398 1.125,-2.21485 1.125,-4.64063 0,-2.65429 -1.38867,-4.14843 -1.3711,-1.49415 -3.79688,-1.49415 -2.51367,0 -3.88476,1.24805 -1.3711,1.24805 -1.61719,3.74414 z"
           id="path61950" />
        <path
           d="m 740.2334,670.7616 h 22.53515 v 2.8125 H 740.2334 Z m 0,7.17187 h 22.53515 v 2.8125 H 740.2334 Z"
           id="path61952" />
        <path
           d="m 788.50293,675.63074 3.91992,-5.39649 h -2.51367 v -1.88086 h 7.18945 v 1.88086 h -2.47851 l -5.00977,6.90821 5.83594,8.0332 h 2.44336 v 1.86328 h -8.63086 v -1.86328 h 2.37305 l -4.06055,-5.58984 -4.07813,5.58984 h 2.42579 v 1.86328 h -7.10157 v -1.86328 h 2.47852 l 5.15039,-7.10156 -5.67774,-7.83985 h -2.30273 v -1.88086 h 8.34961 v 1.88086 h -2.23242 z"
           id="path61954" />
        <path
           d="m 815.13379,660.7948 9.54492,9.79102 h -2.68945 l -8.57813,-6.69727 -8.56054,6.69727 h -2.70704 l 9.54493,-9.79102 z"
           id="path61956" />
        <path
           d="m 831.99121,661.90222 q 2.05664,-0.77344 3.9375,-1.17773 1.89844,-0.4043 3.55078,-0.4043 3.84961,0 6.01172,1.66992 2.16211,1.65235 2.16211,4.60547 0,2.37305 -1.49414,3.97266 -1.49414,1.58203 -4.23633,2.14453 3.23438,0.45703 5.00977,2.35547 1.79297,1.88086 1.79297,4.88672 0,3.67382 -2.47852,5.64257 -2.46094,1.95118 -7.10156,1.95118 -2.05664,0 -4.02539,-0.43946 -1.95117,-0.43945 -3.88477,-1.33593 v -5.09766 h 1.96875 q 0.17578,2.53125 1.70508,3.83203 1.5293,1.30078 4.30664,1.30078 2.68945,0 4.23633,-1.54687 1.56445,-1.56446 1.56445,-4.27149 0,-3.09375 -1.59961,-4.67578 -1.59961,-1.59961 -4.69336,-1.59961 h -1.66992 v -1.79297 h 0.87891 q 3.07617,0 4.60547,-1.26562 1.54687,-1.28321 1.54687,-3.84961 0,-2.30274 -1.26562,-3.51563 -1.26563,-1.23047 -3.63868,-1.23047 -2.37304,0 -3.6914,1.125 -1.30078,1.125 -1.5293,3.33985 h -1.96875 z"
           id="path61958" />
        <path
           d="m 867.88574,664.46863 v 9.86133 h 9.86133 v 2.84765 h -9.86133 v 9.86133 h -2.8125 v -9.86133 h -9.86133 v -2.84765 h 9.86133 v -9.86133 z"
           id="path61960" />
        <path
           d="m 901.86426,662.58777 -10.26563,24.45117 h -2.61914 l 9.79102,-23.36133 H 886.6416 v 3.23438 h -2.05664 v -6.11719 h 17.2793 z"
           id="path61962" />
      </g>
      <g
         aria-label="Public key"
         id="Public-key"
         style="font-size:20px;font-family:HelveticaNeue, 'Helvetica Neue';fill:#9b9b9b">
        <path
           d="m 307.93555,347.04102 v 5.47851 h 2.48047 q 1.37695,0 2.1289,-0.71289 0.75195,-0.71289 0.75195,-2.03125 0,-1.30859 -0.75195,-2.02148 -0.75195,-0.71289 -2.1289,-0.71289 z m -1.97266,-1.6211 h 4.45313 q 2.45117,0 3.70117,1.11328 1.25976,1.10352 1.25976,3.24219 0,2.1582 -1.25976,3.26172 -1.25,1.10351 -3.70117,1.10351 h -2.48047 V 360 h -1.97266 z"
           id="path49667" />
        <path
           d="m 317.4082,355.68359 v -6.62109 h 1.79688 v 6.55273 q 0,1.55274 0.60547,2.33399 0.60547,0.77148 1.8164,0.77148 1.45508,0 2.29492,-0.92773 0.84961,-0.92774 0.84961,-2.5293 v -6.20117 h 1.79688 V 360 h -1.79688 v -1.67969 q -0.65429,0.9961 -1.52343,1.48438 -0.85938,0.47851 -2.00196,0.47851 -1.88476,0 -2.86132,-1.17187 -0.97657,-1.17188 -0.97657,-3.42774 z m 4.52149,-6.88476 z"
           id="path49669" />
        <path
           d="m 338.12109,354.54102 q 0,-1.98243 -0.82031,-3.10547 -0.81055,-1.13282 -2.23633,-1.13282 -1.42578,0 -2.24609,1.13282 -0.81055,1.12304 -0.81055,3.10547 0,1.98242 0.81055,3.11523 0.82031,1.12305 2.24609,1.12305 1.42578,0 2.23633,-1.12305 0.82031,-1.13281 0.82031,-3.11523 z m -6.11328,-3.81836 q 0.56641,-0.97657 1.42578,-1.44532 0.86914,-0.47851 2.07032,-0.47851 1.99218,0 3.23242,1.58203 1.25,1.58203 1.25,4.16016 0,2.57812 -1.25,4.16015 -1.24024,1.58203 -3.23242,1.58203 -1.20118,0 -2.07032,-0.46875 -0.85937,-0.47851 -1.42578,-1.45508 V 360 h -1.80664 v -15.19531 h 1.80664 z"
           id="path49671" />
        <path
           d="m 342.96484,344.80469 h 1.79688 V 360 h -1.79688 z"
           id="path49673" />
        <path
           d="m 348.52148,349.0625 h 1.79688 V 360 h -1.79688 z m 0,-4.25781 h 1.79688 v 2.27539 h -1.79688 z"
           id="path49675" />
        <path
           d="m 361.94922,349.48242 v 1.67969 q -0.76172,-0.41992 -1.5332,-0.625 -0.76172,-0.21484 -1.54297,-0.21484 -1.74805,0 -2.71485,1.11328 -0.96679,1.10351 -0.96679,3.10547 0,2.00195 0.96679,3.11523 0.9668,1.10352 2.71485,1.10352 0.78125,0 1.54297,-0.20508 0.77148,-0.21485 1.5332,-0.63477 v 1.66016 q -0.75195,0.35156 -1.5625,0.52734 -0.80078,0.17578 -1.70899,0.17578 -2.4707,0 -3.92578,-1.55273 -1.45508,-1.55274 -1.45508,-4.18945 0,-2.67579 1.46485,-4.20899 1.47461,-1.5332 4.0332,-1.5332 0.83008,0 1.6211,0.17578 0.79101,0.16601 1.5332,0.50781 z"
           id="path49677" />
        <path
           d="m 371.36328,344.80469 h 1.80664 v 8.97461 l 5.36133,-4.7168 h 2.29492 l -5.80078,5.11719 6.04492,5.82031 h -2.34375 l -5.55664,-5.3418 V 360 h -1.80664 z"
           id="path49679" />
        <path
           d="m 391.65625,354.08203 v 0.87891 h -8.26172 q 0.11719,1.85547 1.11328,2.83203 1.00586,0.9668 2.79297,0.9668 1.03516,0 2.00195,-0.25391 0.97657,-0.25391 1.9336,-0.76172 v 1.69922 q -0.9668,0.41016 -1.98242,0.625 -1.01563,0.21484 -2.06055,0.21484 -2.61719,0 -4.15039,-1.52343 -1.52344,-1.52344 -1.52344,-4.1211 0,-2.68555 1.44531,-4.25781 1.45508,-1.58203 3.91602,-1.58203 2.20703,0 3.48633,1.42578 1.28906,1.41601 1.28906,3.85742 z m -1.79688,-0.52734 q -0.0195,-1.47461 -0.83007,-2.35352 -0.80078,-0.8789 -2.12891,-0.8789 -1.50391,0 -2.41211,0.8496 -0.89844,0.84961 -1.03516,2.39258 z"
           id="path49681" />
        <path
           d="m 399.15625,361.01562 q -0.76172,1.95313 -1.48438,2.54883 -0.72265,0.59571 -1.93359,0.59571 h -1.43555 v -1.50391 h 1.05469 q 0.74219,0 1.15235,-0.35156 0.41015,-0.35157 0.9082,-1.66016 l 0.32226,-0.82031 -4.42382,-10.76172 h 1.90429 l 3.41797,8.55469 3.41797,-8.55469 h 1.9043 z"
           id="path49683" />
      </g>
      <g
         aria-label="Generator point"
         id="Generator-point"
         style="font-size:20px;font-family:HelveticaNeue, 'Helvetica Neue';fill:#9b9b9b">
        <path
           d="m 547.9043,468.91992 v -3.91601 h -3.22266 v -1.6211 h 5.17578 v 6.25977 q -1.14258,0.81054 -2.51953,1.23047 -1.37695,0.41015 -2.93945,0.41015 -3.41797,0 -5.35157,-1.99218 -1.92382,-2.00196 -1.92382,-5.56641 0,-3.57422 1.92382,-5.56641 1.9336,-2.00195 5.35157,-2.00195 1.42578,0 2.70508,0.35156 1.28906,0.35156 2.37304,1.03516 v 2.09961 q -1.09375,-0.92774 -2.32422,-1.39649 -1.23047,-0.46875 -2.58789,-0.46875 -2.67578,0 -4.02343,1.49414 -1.3379,1.49414 -1.3379,4.45313 0,2.94922 1.3379,4.44336 1.34765,1.49414 4.02343,1.49414 1.04492,0 1.86524,-0.17578 0.82031,-0.18555 1.47461,-0.56641 z"
           id="path60501" />
        <path
           d="m 562.73828,465.08203 v 0.87891 h -8.26172 q 0.11719,1.85547 1.11328,2.83203 1.00586,0.9668 2.79297,0.9668 1.03516,0 2.00196,-0.25391 0.97656,-0.25391 1.93359,-0.76172 v 1.69922 q -0.9668,0.41016 -1.98242,0.625 -1.01563,0.21484 -2.06055,0.21484 -2.61719,0 -4.15039,-1.52343 -1.52344,-1.52344 -1.52344,-4.1211 0,-2.68555 1.44531,-4.25781 1.45508,-1.58203 3.91602,-1.58203 2.20703,0 3.48633,1.42578 1.28906,1.41601 1.28906,3.85742 z m -1.79687,-0.52734 q -0.0195,-1.47461 -0.83008,-2.35352 -0.80078,-0.8789 -2.12891,-0.8789 -1.5039,0 -2.41211,0.8496 -0.89844,0.84961 -1.03515,2.39258 z"
           id="path60503" />
        <path
           d="M 574.7793,464.39844 V 471 h -1.79688 v -6.54297 q 0,-1.55273 -0.60547,-2.32422 -0.60547,-0.77148 -1.8164,-0.77148 -1.45508,0 -2.29493,0.92773 -0.83984,0.92774 -0.83984,2.5293 V 471 h -1.80664 v -10.9375 h 1.80664 v 1.69922 q 0.64453,-0.98633 1.51367,-1.47461 0.87891,-0.48828 2.02149,-0.48828 1.88476,0 2.85156,1.17187 0.9668,1.16211 0.9668,3.42774 z"
           id="path60505" />
        <path
           d="m 587.71875,465.08203 v 0.87891 h -8.26172 q 0.11719,1.85547 1.11328,2.83203 1.00586,0.9668 2.79297,0.9668 1.03516,0 2.00195,-0.25391 0.97657,-0.25391 1.9336,-0.76172 v 1.69922 q -0.9668,0.41016 -1.98242,0.625 -1.01563,0.21484 -2.06055,0.21484 -2.61719,0 -4.15039,-1.52343 -1.52344,-1.52344 -1.52344,-4.1211 0,-2.68555 1.44531,-4.25781 1.45508,-1.58203 3.91602,-1.58203 2.20703,0 3.48633,1.42578 1.28906,1.41601 1.28906,3.85742 z m -1.79688,-0.52734 q -0.0195,-1.47461 -0.83007,-2.35352 -0.80078,-0.8789 -2.12891,-0.8789 -1.50391,0 -2.41211,0.8496 -0.89844,0.84961 -1.03516,2.39258 z"
           id="path60507" />
        <path
           d="m 597.00586,461.74219 q -0.30274,-0.17578 -0.66406,-0.25391 -0.35157,-0.0879 -0.78125,-0.0879 -1.52344,0 -2.34375,0.99609 -0.81055,0.98633 -0.81055,2.8418 V 471 h -1.80664 v -10.9375 h 1.80664 v 1.69922 q 0.56641,-0.9961 1.47461,-1.47461 0.9082,-0.48828 2.20703,-0.48828 0.18555,0 0.41016,0.0293 0.22461,0.0195 0.49804,0.0684 z"
           id="path60509" />
        <path
           d="m 603.86133,465.50195 q -2.17774,0 -3.01758,0.49805 -0.83984,0.49805 -0.83984,1.69922 0,0.95703 0.625,1.52344 0.63476,0.55664 1.71875,0.55664 1.49414,0 2.39257,-1.05469 0.90821,-1.06445 0.90821,-2.82227 v -0.40039 z m 3.58398,-0.74218 V 471 h -1.79687 v -1.66016 q -0.61524,0.9961 -1.53321,1.47461 -0.91796,0.46875 -2.24609,0.46875 -1.67969,0 -2.67578,-0.9375 -0.98633,-0.94726 -0.98633,-2.52929 0,-1.84571 1.23047,-2.78321 1.24023,-0.9375 3.69141,-0.9375 h 2.51953 v -0.17578 q 0,-1.24023 -0.82032,-1.91406 -0.81054,-0.68359 -2.28515,-0.68359 -0.9375,0 -1.82617,0.2246 -0.88868,0.22461 -1.70899,0.67383 v -1.66015 q 0.98633,-0.38086 1.91406,-0.56641 0.92774,-0.19531 1.80665,-0.19531 2.37304,0 3.54492,1.23047 1.17187,1.23047 1.17187,3.73047 z"
           id="path60511" />
        <path
           d="m 612.92383,456.95703 v 3.10547 h 3.70117 v 1.39648 h -3.70117 v 5.9375 q 0,1.33789 0.36133,1.71875 0.37109,0.38086 1.49414,0.38086 h 1.8457 V 471 h -1.8457 q -2.08008,0 -2.8711,-0.77148 -0.79101,-0.78125 -0.79101,-2.83204 v -5.9375 h -1.31836 v -1.39648 h 1.31836 v -3.10547 z"
           id="path60513" />
        <path
           d="m 623.22656,461.32227 q -1.44531,0 -2.28515,1.13281 -0.83985,1.12304 -0.83985,3.08594 0,1.96289 0.83008,3.0957 0.83984,1.12305 2.29492,1.12305 1.43555,0 2.27539,-1.13282 0.83985,-1.13281 0.83985,-3.08593 0,-1.94336 -0.83985,-3.07618 -0.83984,-1.14257 -2.27539,-1.14257 z m 0,-1.52344 q 2.34375,0 3.68164,1.52344 1.33789,1.52343 1.33789,4.21875 0,2.68554 -1.33789,4.21875 -1.33789,1.52343 -3.68164,1.52343 -2.35351,0 -3.6914,-1.52343 -1.32813,-1.53321 -1.32813,-4.21875 0,-2.69532 1.32813,-4.21875 1.33789,-1.52344 3.6914,-1.52344 z"
           id="path60515" />
        <path
           d="m 637.5625,461.74219 q -0.30273,-0.17578 -0.66406,-0.25391 -0.35157,-0.0879 -0.78125,-0.0879 -1.52344,0 -2.34375,0.99609 -0.81055,0.98633 -0.81055,2.8418 V 471 h -1.80664 v -10.9375 h 1.80664 v 1.69922 q 0.56641,-0.9961 1.47461,-1.47461 0.9082,-0.48828 2.20703,-0.48828 0.18555,0 0.41016,0.0293 0.22461,0.0195 0.49804,0.0684 z"
           id="path60517" />
        <path
           d="m 647.54297,469.35937 v 5.80079 h -1.80664 V 460.0625 h 1.80664 v 1.66016 q 0.5664,-0.97657 1.42578,-1.44532 0.86914,-0.47851 2.07031,-0.47851 1.99219,0 3.23242,1.58203 1.25,1.58203 1.25,4.16016 0,2.57812 -1.25,4.16015 -1.24023,1.58203 -3.23242,1.58203 -1.20117,0 -2.07031,-0.46875 -0.85938,-0.47851 -1.42578,-1.45508 z m 6.11328,-3.81835 q 0,-1.98243 -0.82031,-3.10547 -0.81055,-1.13282 -2.23633,-1.13282 -1.42578,0 -2.24609,1.13282 -0.81055,1.12304 -0.81055,3.10547 0,1.98242 0.81055,3.11523 0.82031,1.12305 2.24609,1.12305 1.42578,0 2.23633,-1.12305 0.82031,-1.13281 0.82031,-3.11523 z"
           id="path60519" />
        <path
           d="m 662.73828,461.32227 q -1.44531,0 -2.28516,1.13281 -0.83984,1.12304 -0.83984,3.08594 0,1.96289 0.83008,3.0957 0.83984,1.12305 2.29492,1.12305 1.43555,0 2.27539,-1.13282 0.83985,-1.13281 0.83985,-3.08593 0,-1.94336 -0.83985,-3.07618 -0.83984,-1.14257 -2.27539,-1.14257 z m 0,-1.52344 q 2.34375,0 3.68164,1.52344 1.33789,1.52343 1.33789,4.21875 0,2.68554 -1.33789,4.21875 -1.33789,1.52343 -3.68164,1.52343 -2.35351,0 -3.69141,-1.52343 -1.32812,-1.53321 -1.32812,-4.21875 0,-2.69532 1.32812,-4.21875 1.3379,-1.52344 3.69141,-1.52344 z"
           id="path60521" />
        <path
           d="m 670.73633,460.0625 h 1.79687 V 471 h -1.79687 z m 0,-4.25781 h 1.79687 v 2.27539 h -1.79687 z"
           id="path60523" />
        <path
           d="M 685.38477,464.39844 V 471 h -1.79688 v -6.54297 q 0,-1.55273 -0.60547,-2.32422 -0.60547,-0.77148 -1.8164,-0.77148 -1.45508,0 -2.29493,0.92773 -0.83984,0.92774 -0.83984,2.5293 V 471 h -1.80664 v -10.9375 h 1.80664 v 1.69922 q 0.64453,-0.98633 1.51367,-1.47461 0.87891,-0.48828 2.02149,-0.48828 1.88476,0 2.85156,1.17187 0.9668,1.16211 0.9668,3.42774 z"
           id="path60525" />
        <path
           d="m 690.74609,456.95703 v 3.10547 h 3.70118 v 1.39648 h -3.70118 v 5.9375 q 0,1.33789 0.36133,1.71875 0.3711,0.38086 1.49414,0.38086 h 1.84571 V 471 h -1.84571 q -2.08008,0 -2.87109,-0.77148 -0.79102,-0.78125 -0.79102,-2.83204 v -5.9375 h -1.31836 v -1.39648 h 1.31836 v -3.10547 z"
           id="path60527" />
      </g>
      <g
         aria-label="R = k×G"
         id="R-=-k×G"
         style="font-size:36px;font-family:Georgia;fill:#000000">
        <path
           d="m 264.24414,573.97461 q 1.23047,0.33398 2.10938,1.14258 0.89648,0.79101 1.5996,2.23242 l 3.81446,7.78711 h 3.19922 V 587 h -6.1875 l -4.09571,-8.34961 q -1.17773,-2.42578 -2.16211,-3.12891 -0.98437,-0.7207 -2.70703,-0.7207 h -3.91992 v 10.33594 h 3.70899 V 587 h -10.61719 v -1.86328 h 3.33984 v -22.5 h -3.33984 v -1.88086 h 13.30664 q 3.83203,0 5.90625,1.82812 2.0918,1.82813 2.0918,5.18555 0,2.70703 -1.5293,4.27149 -1.51172,1.54687 -4.51758,1.93359 z m -8.34961,-1.05469 h 5.18555 q 2.65429,0 3.91992,-1.24805 1.26562,-1.26562 1.26562,-3.90234 0,-2.63672 -1.26562,-3.88476 -1.26563,-1.24805 -3.91992,-1.24805 h -5.18555 z"
           id="path44726" />
        <path
           d="m 289.36328,570.72266 h 22.53516 v 2.8125 h -22.53516 z m 0,7.17187 h 22.53516 v 2.8125 h -22.53516 z"
           id="path44728" />
        <path
           d="m 337.45703,587 h -9.07031 v -1.86328 h 2.91797 v -23.625 h -3.11133 v -1.86328 h 6.3457 v 17.80664 l 7.875,-7.25977 h -2.68945 v -1.88086 h 8.45508 v 1.88086 h -3.19922 l -5.55469,5.13281 7.10156,9.8086 h 2.68946 V 587 h -9.21094 v -1.86328 h 2.67187 l -5.58984,-7.68164 -2.54883,2.37304 v 5.3086 h 2.91797 z"
           id="path44730" />
        <path
           d="m 374.17773,567.59375 -8.13867,8.13867 8.13867,8.10352 -2.02148,1.96875 -8.10352,-8.08594 -8.10351,8.08594 -2.00391,-1.96875 8.08594,-8.10352 -8.08594,-8.13867 2.00391,-1.98633 8.10351,8.10352 8.10352,-8.10352 z"
           id="path44732" />
        <path
           d="m 402.17969,568.5957 q -0.61524,-3.28711 -2.56641,-4.85156 -1.95117,-1.58203 -5.43164,-1.58203 -4.53516,0 -6.76758,2.91797 -2.23242,2.91797 -2.23242,8.82422 0,5.7832 2.30273,8.7539 2.30274,2.97071 6.76758,2.97071 1.98633,0 3.79688,-0.49219 1.81054,-0.49219 3.44531,-1.47656 v -6.76758 h -4.93945 v -1.88086 h 8.50781 v 9.79101 q -2.33789,1.35352 -5.04492,2.03907 -2.68946,0.66797 -5.76563,0.66797 -5.9414,0 -9.52734,-3.70899 -3.56836,-3.72656 -3.56836,-9.89648 0,-6.22266 3.58594,-9.91407 3.58593,-3.70898 9.65039,-3.70898 2.25,0 4.64062,0.52734 2.40821,0.50977 5.11524,1.56446 v 6.22265 z"
           id="path44734" />
      </g>
      <g
         aria-label="Random point"
         id="Random-point"
         style="font-size:20px;font-family:HelveticaNeue, 'Helvetica Neue';fill:#9b9b9b">
        <path
           d="m 254.87695,605.16406 q 0.63477,0.21485 1.23047,0.91797 0.60547,0.70313 1.21094,1.93359 L 259.32031,612 h -2.11914 l -1.86523,-3.74023 q -0.72266,-1.46485 -1.40625,-1.94336 -0.67383,-0.47852 -1.84571,-0.47852 h -2.14843 V 612 h -1.97266 v -14.58008 h 4.45313 q 2.5,0 3.73046,1.04492 1.23047,1.04493 1.23047,3.1543 0,1.37695 -0.64453,2.28516 -0.63476,0.9082 -1.85547,1.25976 z m -4.9414,-6.12304 v 5.17578 h 2.48047 q 1.42578,0 2.14843,-0.6543 0.73242,-0.66406 0.73242,-1.94336 0,-1.2793 -0.73242,-1.92383 -0.72265,-0.65429 -2.14843,-0.65429 z"
           id="path61965" />
        <path
           d="m 266.3125,606.50195 q -2.17773,0 -3.01758,0.49805 -0.83984,0.49805 -0.83984,1.69922 0,0.95703 0.625,1.52344 0.63476,0.55664 1.71875,0.55664 1.49414,0 2.39258,-1.05469 0.9082,-1.06445 0.9082,-2.82227 v -0.40039 z m 3.58398,-0.74218 V 612 h -1.79687 v -1.66016 q -0.61524,0.9961 -1.5332,1.47461 -0.91797,0.46875 -2.2461,0.46875 -1.67969,0 -2.67578,-0.9375 -0.98633,-0.94726 -0.98633,-2.52929 0,-1.84571 1.23047,-2.78321 1.24024,-0.9375 3.69141,-0.9375 h 2.51953 v -0.17578 q 0,-1.24023 -0.82031,-1.91406 -0.81055,-0.68359 -2.28516,-0.68359 -0.9375,0 -1.82617,0.2246 -0.88867,0.22461 -1.70899,0.67383 v -1.66015 q 0.98633,-0.38086 1.91407,-0.56641 0.92773,-0.19531 1.80664,-0.19531 2.37304,0 3.54492,1.23047 1.17187,1.23047 1.17187,3.73047 z"
           id="path61967" />
        <path
           d="M 282.68945,605.39844 V 612 h -1.79687 v -6.54297 q 0,-1.55273 -0.60547,-2.32422 -0.60547,-0.77148 -1.81641,-0.77148 -1.45508,0 -2.29492,0.92773 -0.83984,0.92774 -0.83984,2.5293 V 612 h -1.80664 v -10.9375 h 1.80664 v 1.69922 q 0.64453,-0.98633 1.51367,-1.47461 0.87891,-0.48828 2.02148,-0.48828 1.88477,0 2.85157,1.17187 0.96679,1.16211 0.96679,3.42774 z"
           id="path61969" />
        <path
           d="m 293.4707,602.72266 v -5.91797 h 1.79688 V 612 h -1.79688 v -1.64063 q -0.5664,0.97657 -1.43554,1.45508 -0.85938,0.46875 -2.07032,0.46875 -1.98242,0 -3.23242,-1.58203 -1.24023,-1.58203 -1.24023,-4.16015 0,-2.57813 1.24023,-4.16016 1.25,-1.58203 3.23242,-1.58203 1.21094,0 2.07032,0.47851 0.86914,0.46875 1.43554,1.44532 z m -6.12304,3.81836 q 0,1.98242 0.81054,3.11523 0.82032,1.12305 2.2461,1.12305 1.42578,0 2.24609,-1.12305 0.82031,-1.13281 0.82031,-3.11523 0,-1.98243 -0.82031,-3.10547 -0.82031,-1.13282 -2.24609,-1.13282 -1.42578,0 -2.2461,1.13282 -0.81054,1.12304 -0.81054,3.10547 z"
           id="path61971" />
        <path
           d="m 303.20703,602.32227 q -1.44531,0 -2.28516,1.13281 -0.83984,1.12304 -0.83984,3.08594 0,1.96289 0.83008,3.0957 0.83984,1.12305 2.29492,1.12305 1.43555,0 2.27539,-1.13282 0.83985,-1.13281 0.83985,-3.08593 0,-1.94336 -0.83985,-3.07618 -0.83984,-1.14257 -2.27539,-1.14257 z m 0,-1.52344 q 2.34375,0 3.68164,1.52344 1.33789,1.52343 1.33789,4.21875 0,2.68554 -1.33789,4.21875 -1.33789,1.52343 -3.68164,1.52343 -2.35351,0 -3.69141,-1.52343 -1.32812,-1.53321 -1.32812,-4.21875 0,-2.69532 1.32812,-4.21875 1.3379,-1.52344 3.69141,-1.52344 z"
           id="path61973" />
        <path
           d="m 319.7207,603.16211 q 0.67383,-1.21094 1.61133,-1.78711 0.9375,-0.57617 2.20703,-0.57617 1.70899,0 2.63672,1.20117 0.92774,1.19141 0.92774,3.39844 V 612 h -1.80665 v -6.54297 q 0,-1.57226 -0.55664,-2.33398 -0.55664,-0.76172 -1.69921,-0.76172 -1.39649,0 -2.20704,0.92773 -0.81054,0.92774 -0.81054,2.5293 V 612 h -1.80664 v -6.54297 q 0,-1.58203 -0.55664,-2.33398 -0.55664,-0.76172 -1.71875,-0.76172 -1.37696,0 -2.1875,0.9375 -0.81055,0.92773 -0.81055,2.51953 V 612 h -1.80664 v -10.9375 h 1.80664 v 1.69922 q 0.61523,-1.00586 1.47461,-1.48438 0.85937,-0.47851 2.04101,-0.47851 1.19141,0 2.02149,0.60547 0.83984,0.60547 1.24023,1.75781 z"
           id="path61975" />
        <path
           d="m 338.7832,610.35937 v 5.80079 h -1.80664 V 601.0625 h 1.80664 v 1.66016 q 0.56641,-0.97657 1.42578,-1.44532 0.86914,-0.47851 2.07032,-0.47851 1.99218,0 3.23242,1.58203 1.25,1.58203 1.25,4.16016 0,2.57812 -1.25,4.16015 -1.24024,1.58203 -3.23242,1.58203 -1.20118,0 -2.07032,-0.46875 -0.85937,-0.47851 -1.42578,-1.45508 z m 6.11328,-3.81835 q 0,-1.98243 -0.82031,-3.10547 -0.81055,-1.13282 -2.23633,-1.13282 -1.42578,0 -2.24609,1.13282 -0.81055,1.12304 -0.81055,3.10547 0,1.98242 0.81055,3.11523 0.82031,1.12305 2.24609,1.12305 1.42578,0 2.23633,-1.12305 0.82031,-1.13281 0.82031,-3.11523 z"
           id="path61977" />
        <path
           d="m 353.97852,602.32227 q -1.44532,0 -2.28516,1.13281 -0.83984,1.12304 -0.83984,3.08594 0,1.96289 0.83007,3.0957 0.83985,1.12305 2.29493,1.12305 1.43554,0 2.27539,-1.13282 0.83984,-1.13281 0.83984,-3.08593 0,-1.94336 -0.83984,-3.07618 -0.83985,-1.14257 -2.27539,-1.14257 z m 0,-1.52344 q 2.34375,0 3.68164,1.52344 1.33789,1.52343 1.33789,4.21875 0,2.68554 -1.33789,4.21875 -1.33789,1.52343 -3.68164,1.52343 -2.35352,0 -3.69141,-1.52343 -1.32813,-1.53321 -1.32813,-4.21875 0,-2.69532 1.32813,-4.21875 1.33789,-1.52344 3.69141,-1.52344 z"
           id="path61979" />
        <path
           d="m 361.97656,601.0625 h 1.79688 V 612 h -1.79688 z m 0,-4.25781 h 1.79688 v 2.27539 h -1.79688 z"
           id="path61981" />
        <path
           d="M 376.625,605.39844 V 612 h -1.79688 v -6.54297 q 0,-1.55273 -0.60546,-2.32422 -0.60547,-0.77148 -1.81641,-0.77148 -1.45508,0 -2.29492,0.92773 -0.83985,0.92774 -0.83985,2.5293 V 612 h -1.80664 v -10.9375 h 1.80664 v 1.69922 q 0.64454,-0.98633 1.51368,-1.47461 0.8789,-0.48828 2.02148,-0.48828 1.88477,0 2.85156,1.17187 0.9668,1.16211 0.9668,3.42774 z"
           id="path61983" />
        <path
           d="m 381.98633,597.95703 v 3.10547 h 3.70117 v 1.39648 h -3.70117 v 5.9375 q 0,1.33789 0.36133,1.71875 0.37109,0.38086 1.49414,0.38086 h 1.8457 V 612 h -1.8457 q -2.08008,0 -2.8711,-0.77148 -0.79101,-0.78125 -0.79101,-2.83204 v -5.9375 h -1.31836 v -1.39648 h 1.31836 v -3.10547 z"
           id="path61985" />
      </g>
      <path
         id="Path-3"
         d="M410.535599,421.665343 C440.488796,405.688675 473.160527,403.358881 508.391542,414.655624 L506.864866,419.416849 C473.089933,408.586995 441.982126,410.725964 413.38496,425.81377 L420.011506,435.461498 L387.897651,439.928075 L403.592703,411.557045 L410.535599,421.665343 Z"
         fill="#D0021B"
         fill-rule="nonzero" />
      <path
         id="path15229"
         d="M887.2713,132.420219 C710.94135,168.733342 592.098515,260.201614 530.476861,406.932852 L525.866889,404.996836 C588.164054,256.657095 708.418189,164.122961 886.363201,127.502316 L884.175215,115.653062 L915.326053,124.64613 L889.441095,144.17096 L887.2713,132.420219 Z"
         fill="#4A90E2"
         fill-rule="nonzero" />
      <path
         id="path15231"
         d="M108.088757,154.5 L1,154.5 L1,149.5 L108.088757,149.5 L108.088757,137.5 L137.088757,152 L108.088757,166.5 L108.088757,154.5 Z"
         fill="#4A90E2"
         fill-rule="nonzero" />
      <path
         id="path15233"
         d="M108.088757,93.5 L1,93.5 L1,88.5 L108.088757,88.5 L108.088757,76.5 L137.088757,91 L108.088757,105.5 L108.088757,93.5 Z"
         fill="#D0021B"
         fill-rule="nonzero" />
      <path
         id="path15235"
         d="M279.034412,428.300654 C310.488876,412.828141 340.624455,415.736152 369.032073,436.991069 L366.036656,440.994502 C339.295324,420.98632 311.339519,418.175806 281.767673,432.529962 L288.116533,442.353865 L255.88986,445.916383 L272.375849,417.997534 L279.034412,428.300654 Z"
         fill="#4A90E2"
         fill-rule="nonzero" />
      <path
         id="path15237"
         d="M420.853507,515.395105 C465.635279,498.621383 497.586064,471.609509 516.824096,434.320103 L521.267593,436.612554 C501.398171,475.125794 468.378532,502.995478 422.327662,520.181975 L425.899524,531.780513 L393.916396,526.457968 L417.364309,504.064992 L420.853507,515.395105 Z"
         fill="#D0021B"
         fill-rule="nonzero" />
      <path
         d="M102.098624,494.595105 L848.500006,494.595105"
         id="Path-4"
         stroke="#979797" />
      <g
         aria-label="Signing"
         id="Signing"
         style="font-size:20px;font-family:HelveticaNeue, 'Helvetica Neue';fill:#000000">
        <path
           d="m 12.703125,66.898437 v 1.923829 q -1.123047,-0.53711 -2.119141,-0.800782 -0.9960934,-0.263672 -1.9238277,-0.263672 -1.6113282,0 -2.4902344,0.625 -0.8691407,0.625 -0.8691407,1.777344 0,0.966797 0.5761719,1.464844 0.5859375,0.488281 2.2070313,0.791016 l 1.1914062,0.24414 q 2.2070314,0.419922 3.2519534,1.484375 1.054687,1.054688 1.054687,2.832031 0,2.119141 -1.425781,3.212891 -1.416016,1.09375 -4.1601563,1.09375 -1.0351562,0 -2.2070312,-0.234375 -1.1621094,-0.234375 -2.4121094,-0.693359 v -2.03125 q 1.2011719,0.673828 2.3535156,1.015625 1.1523438,0.341797 2.265625,0.341797 1.6894532,0 2.6074223,-0.664063 0.917968,-0.664062 0.917968,-1.894531 0,-1.074219 -0.664062,-1.679688 -0.654297,-0.605468 -2.1582032,-0.908203 L 7.4980469,74.300781 q -2.2070313,-0.439453 -3.1933594,-1.376953 -0.9863281,-0.9375 -0.9863281,-2.607422 0,-1.933594 1.3574218,-3.046875 1.3671875,-1.113281 3.7597657,-1.113281 1.0253906,0 2.0898441,0.185547 1.064453,0.185547 2.177734,0.55664 z"
           id="path45957" />
        <path
           d="m 16.580078,70.0625 h 1.796875 V 81 h -1.796875 z m 0,-4.257813 h 1.796875 v 2.275391 h -1.796875 z"
           id="path45959" />
        <path
           d="m 29.333984,75.404297 q 0,-1.953125 -0.810547,-3.027344 -0.800781,-1.074219 -2.255859,-1.074219 -1.445312,0 -2.255859,1.074219 -0.800782,1.074219 -0.800782,3.027344 0,1.943359 0.800782,3.017578 0.810547,1.074219 2.255859,1.074219 1.455078,0 2.255859,-1.074219 0.810547,-1.074219 0.810547,-3.017578 z m 1.796875,4.238281 q 0,2.792969 -1.240234,4.150391 -1.240234,1.367187 -3.798828,1.367187 -0.947266,0 -1.78711,-0.146484 -0.839843,-0.136719 -1.630859,-0.429688 v -1.748047 q 0.791016,0.429688 1.5625,0.634766 0.771484,0.205078 1.572266,0.205078 1.767578,0 2.646484,-0.927734 0.878906,-0.917969 0.878906,-2.783203 v -0.888672 q -0.55664,0.966797 -1.425781,1.445312 Q 27.039062,81 25.828125,81 q -2.011719,0 -3.242188,-1.533203 -1.230468,-1.533203 -1.230468,-4.0625 0,-2.539063 1.230468,-4.072266 1.230469,-1.533203 3.242188,-1.533203 1.210937,0 2.080078,0.478516 0.869141,0.478515 1.425781,1.445312 V 70.0625 h 1.796875 z"
           id="path45961" />
        <path
           d="M 43.923828,74.398437 V 81 h -1.796875 v -6.542969 q 0,-1.552734 -0.605469,-2.324219 -0.605468,-0.771484 -1.816406,-0.771484 -1.455078,0 -2.294922,0.927734 -0.839844,0.927735 -0.839844,2.529297 V 81 h -1.80664 V 70.0625 h 1.80664 v 1.699219 q 0.644532,-0.986328 1.513672,-1.47461 0.878907,-0.488281 2.021485,-0.488281 1.884765,0 2.851562,1.171875 0.966797,1.162109 0.966797,3.427734 z"
           id="path45963" />
        <path
           d="m 47.507812,70.0625 h 1.796875 V 81 h -1.796875 z m 0,-4.257813 h 1.796875 v 2.275391 h -1.796875 z"
           id="path45965" />
        <path
           d="M 62.15625,74.398437 V 81 h -1.796875 v -6.542969 q 0,-1.552734 -0.605469,-2.324219 -0.605469,-0.771484 -1.816406,-0.771484 -1.455078,0 -2.294922,0.927734 -0.839844,0.927735 -0.839844,2.529297 V 81 h -1.80664 V 70.0625 h 1.80664 v 1.699219 q 0.644532,-0.986328 1.513672,-1.47461 0.878906,-0.488281 2.021485,-0.488281 1.884765,0 2.851562,1.171875 0.966797,1.162109 0.966797,3.427734 z"
           id="path45967" />
        <path
           d="m 72.9375,75.404297 q 0,-1.953125 -0.810547,-3.027344 -0.800781,-1.074219 -2.255859,-1.074219 -1.445313,0 -2.25586,1.074219 -0.800781,1.074219 -0.800781,3.027344 0,1.943359 0.800781,3.017578 0.810547,1.074219 2.25586,1.074219 1.455078,0 2.255859,-1.074219 0.810547,-1.074219 0.810547,-3.017578 z m 1.796875,4.238281 q 0,2.792969 -1.240234,4.150391 -1.240235,1.367187 -3.798829,1.367187 -0.947265,0 -1.787109,-0.146484 -0.839844,-0.136719 -1.630859,-0.429688 v -1.748047 q 0.791015,0.429688 1.5625,0.634766 0.771484,0.205078 1.572265,0.205078 1.767578,0 2.646485,-0.927734 Q 72.9375,81.830078 72.9375,79.964844 V 79.076172 Q 72.380859,80.042969 71.511719,80.521484 70.642578,81 69.431641,81 q -2.011719,0 -3.242188,-1.533203 -1.230469,-1.533203 -1.230469,-4.0625 0,-2.539063 1.230469,-4.072266 1.230469,-1.533203 3.242188,-1.533203 1.210937,0 2.080078,0.478516 0.86914,0.478515 1.425781,1.445312 V 70.0625 h 1.796875 z"
           id="path45969" />
      </g>
      <g
         aria-label="Verification"
         id="Verification"
         style="font-size:20px;font-family:HelveticaNeue, 'Helvetica Neue';fill:#000000">
        <path
           d="M 7.7226562,141 2.15625,126.41992 h 2.0605469 l 4.6191406,12.27539 4.6289065,-12.27539 h 2.050781 L 9.9589844,141 Z"
           id="path46958" />
        <path
           d="m 25.369141,135.08203 v 0.87891 h -8.261719 q 0.117187,1.85547 1.113281,2.83203 1.005859,0.9668 2.792969,0.9668 1.035156,0 2.001953,-0.25391 0.976562,-0.25391 1.933594,-0.76172 v 1.69922 q -0.966797,0.41016 -1.982422,0.625 -1.015625,0.21484 -2.060547,0.21484 -2.617188,0 -4.150391,-1.52343 -1.523437,-1.52344 -1.523437,-4.1211 0,-2.68555 1.445312,-4.25781 1.455078,-1.58203 3.916016,-1.58203 2.207031,0 3.486328,1.42578 1.289063,1.41601 1.289063,3.85742 z m -1.796875,-0.52734 q -0.01953,-1.47461 -0.830079,-2.35352 -0.800781,-0.8789 -2.128906,-0.8789 -1.503906,0 -2.412109,0.8496 -0.898438,0.84961 -1.035156,2.39258 z"
           id="path46960" />
        <path
           d="m 34.65625,131.74219 q -0.302734,-0.17578 -0.664063,-0.25391 -0.351562,-0.0879 -0.78125,-0.0879 -1.523437,0 -2.34375,0.99609 -0.810546,0.98633 -0.810546,2.8418 V 141 H 28.25 v -10.9375 h 1.806641 v 1.69922 q 0.566406,-0.9961 1.474609,-1.47461 0.908203,-0.48828 2.207031,-0.48828 0.185547,0 0.410156,0.0293 0.22461,0.0195 0.498047,0.0684 z"
           id="path46962" />
        <path
           d="m 36.541016,130.0625 h 1.796875 V 141 h -1.796875 z m 0,-4.25781 h 1.796875 v 2.27539 h -1.796875 z"
           id="path46964" />
        <path
           d="M 50.935547,130.0625 V 141 h -1.806641 v -9.54102 h -4.93164 V 141 h -1.806641 v -9.54102 h -1.71875 v -1.39648 h 1.71875 v -0.76172 q 0,-1.78711 0.839844,-2.63672 0.849609,-0.85937 2.597656,-0.85937 h 1.806641 v 1.49414 h -1.71875 q -0.966797,0 -1.347657,0.39062 -0.371093,0.39063 -0.371093,1.40625 v 0.9668 z m -1.806641,-4.23828 h 1.806641 v 2.27539 h -1.806641 z"
           id="path46966" />
        <path
           d="m 62.566406,130.48242 v 1.67969 q -0.761719,-0.41992 -1.533203,-0.625 -0.761719,-0.21484 -1.542969,-0.21484 -1.748047,0 -2.714843,1.11328 -0.966797,1.10351 -0.966797,3.10547 0,2.00195 0.966797,3.11523 0.966796,1.10352 2.714843,1.10352 0.78125,0 1.542969,-0.20508 0.771484,-0.21485 1.533203,-0.63477 v 1.66016 q -0.751953,0.35156 -1.5625,0.52734 -0.800781,0.17578 -1.708984,0.17578 -2.470703,0 -3.925781,-1.55273 -1.455079,-1.55274 -1.455079,-4.18945 0,-2.67579 1.464844,-4.20899 1.47461,-1.5332 4.033203,-1.5332 0.830078,0 1.621094,0.17578 0.791016,0.16601 1.533203,0.50781 z"
           id="path46968" />
        <path
           d="m 70.662109,135.50195 q -2.177734,0 -3.017578,0.49805 -0.839844,0.49805 -0.839844,1.69922 0,0.95703 0.625,1.52344 0.634766,0.55664 1.71875,0.55664 1.494141,0 2.392579,-1.05469 0.908203,-1.06445 0.908203,-2.82227 v -0.40039 z m 3.583985,-0.74218 V 141 h -1.796875 v -1.66016 q -0.615235,0.9961 -1.533203,1.47461 -0.917969,0.46875 -2.246094,0.46875 -1.679688,0 -2.675781,-0.9375 -0.986329,-0.94726 -0.986329,-2.52929 0,-1.84571 1.230469,-2.78321 1.240235,-0.9375 3.691406,-0.9375 h 2.519532 v -0.17578 q 0,-1.24023 -0.820313,-1.91406 -0.810547,-0.68359 -2.285156,-0.68359 -0.9375,0 -1.826172,0.2246 -0.888672,0.22461 -1.708984,0.67383 v -1.66015 q 0.986328,-0.38086 1.914062,-0.56641 0.927735,-0.19531 1.806641,-0.19531 2.373047,0 3.544922,1.23047 1.171875,1.23047 1.171875,3.73047 z"
           id="path46970" />
        <path
           d="m 79.724609,126.95703 v 3.10547 h 3.701172 v 1.39648 h -3.701172 v 5.9375 q 0,1.33789 0.361328,1.71875 0.371094,0.38086 1.494141,0.38086 h 1.845703 V 141 h -1.845703 q -2.080078,0 -2.871094,-0.77148 -0.791015,-0.78125 -0.791015,-2.83204 v -5.9375 h -1.31836 v -1.39648 h 1.31836 v -3.10547 z"
           id="path46972" />
        <path
           d="m 85.789062,130.0625 h 1.796875 V 141 h -1.796875 z m 0,-4.25781 h 1.796875 v 2.27539 h -1.796875 z"
           id="path46974" />
        <path
           d="m 95.583984,131.32227 q -1.445312,0 -2.285156,1.13281 -0.839844,1.12304 -0.839844,3.08594 0,1.96289 0.830078,3.0957 0.839844,1.12305 2.294922,1.12305 1.435547,0 2.275391,-1.13282 0.839844,-1.13281 0.839844,-3.08593 0,-1.94336 -0.839844,-3.07618 -0.839844,-1.14257 -2.275391,-1.14257 z m 0,-1.52344 q 2.34375,0 3.681641,1.52344 1.337895,1.52343 1.337895,4.21875 0,2.68554 -1.337895,4.21875 -1.337891,1.52343 -3.681641,1.52343 -2.353515,0 -3.691406,-1.52343 -1.328125,-1.53321 -1.328125,-4.21875 0,-2.69532 1.328125,-4.21875 1.337891,-1.52344 3.691406,-1.52344 z"
           id="path46976" />
        <path
           d="M 112.67383,134.39844 V 141 h -1.79688 v -6.54297 q 0,-1.55273 -0.60547,-2.32422 -0.60546,-0.77148 -1.8164,-0.77148 -1.45508,0 -2.29492,0.92773 -0.83985,0.92774 -0.83985,2.5293 V 141 h -1.80664 v -10.9375 h 1.80664 v 1.69922 q 0.64453,-0.98633 1.51367,-1.47461 0.87891,-0.48828 2.02149,-0.48828 1.88476,0 2.85156,1.17187 0.9668,1.16211 0.9668,3.42774 z"
           id="path46978" />
      </g>
    </g>
  </g>
  <metadata
     id="metadata32833">
    <rdf:RDF>
      <cc:Work
         rdf:about="">
        <dc:title>Group</dc:title>
      </cc:Work>
    </rdf:RDF>
  </metadata>
</svg>
